<?xml version="1.0" standalone="no"?>
<!DOCTYPE svg PUBLIC "-//W3C//DTD SVG 1.1//EN" "http://www.w3.org/Graphics/SVG/1.1/DTD/svg11.dtd" >
<svg xmlns="http://www.w3.org/2000/svg">
<metadata>
Created by FontForge 20110222 at Fri Aug 24 20:30:57 2012
 By negro,,,
(C) 2012 by Vitaly Puzrin
</metadata>
<defs>
<font id="brandico" horiz-adv-x="1030" >
  <font-face 
    font-family="Brandico"
    font-weight="500"
    font-stretch="normal"
    units-per-em="1000"
    panose-1="2 0 6 3 0 0 0 0 0 0"
    ascent="800"
    descent="-200"
    bbox="12 -151.034 2145 944"
    underline-thickness="50"
    underline-position="-100"
    unicode-range="U+F300-F33D"
  />
<missing-glyph horiz-adv-x="364" 
d="M33 0v666h265v-666h-265zM66 33h199v600h-199v-600z" />
    <glyph glyph-name=".notdef" horiz-adv-x="364" 
d="M33 0v666h265v-666h-265zM66 33h199v600h-199v-600z" />
    <glyph glyph-name="glyph1" unicode="&#xf301;" 
d="M198 850h634q76 0 129.5 -53.5t53.5 -129.5v-634q0 -76 -53.5 -129.5t-129.5 -53.5h-634q-76 0 -129.5 53.5t-53.5 129.5v634q0 76 53.5 129.5t129.5 53.5zM542 -150h148v391h147l6 141h-153v102q0 33 11.5 48t47.5 15l90 -1l4 132q-43 5 -100 5q-100 0 -150.5 -52
t-50.5 -129v-120h-104v-141h104v-391v0z" />
    <glyph glyph-name="glyph2" unicode="&#xf302;" horiz-adv-x="779" 
d="M764 -25q0 -51 -37.5 -88t-88.5 -37h-248q-155 0 -265 110t-110 264v501q0 52 36.5 88.5t89.5 36.5q51 0 88 -37t37 -88v-181h353q47 0 82 -34.5t35 -81.5t-35 -81.5t-82 -34.5h-353v-88q0 -51 36.5 -87.5t87.5 -36.5h248q51 0 88.5 -37t37.5 -88v0z" />
    <glyph glyph-name="glyph0" unicode="&#xf300;" horiz-adv-x="516" 
d="M139 -150v469h-124v169h124v144q0 92 61.5 155t180.5 63q30 0 60 -2t45 -4l14 -1l-4 -157h-108q-43 0 -56.5 -17.5t-13.5 -56.5v-124h183l-8 -169h-175v-469h-179v0z" />
    <glyph glyph-name="glyph3" unicode="&#xf303;" horiz-adv-x="1332" 
d="M1318 385q-35 -5 -77.5 -0.5t-69.5 15.5q53 4 90.5 27t51.5 57q-22 -14 -69.5 -21t-84.5 4q-1 4 -3 14.5t-4 16.5q-26 97 -105.5 161.5t-170.5 54.5l29 11q2 1 14.5 4t24 6.5t23.5 9t17.5 12t1.5 14.5q-2 7 -14.5 7.5t-29.5 -4t-32.5 -9.5t-31 -11t-18.5 -7q64 24 69 53
q-59 -8 -103 -49q17 19 20 39q-68 -43 -115 -122.5t-89 -192.5q-62 59 -99 79q-136 73 -335 148q-4 -42 23.5 -87.5t88.5 -77.5q-27 4 -81 -9q9 -48 43 -81t104 -49q-61 -4 -90 -35q19 -37 59.5 -61.5t101.5 -18.5q-35 -15 -46.5 -36.5t-2 -39t34.5 -28.5t55 -6
q-68 -71 -158.5 -94.5t-177 -1.5t-148.5 82q79 -108 191.5 -172.5t229 -80t237 6.5t219.5 77.5t172.5 142.5t99.5 193q101 -1 155 59v0z" />
    <glyph glyph-name="glyph12" unicode="&#xf304;" horiz-adv-x="1011" 
d="M370 823q52 -15 86 -67q4 -6 10 -17.5t9 -17.5l2 10v3q18 59 75.5 94t128.5 16q64 -16 99 -75q36 -61 14 -130l-16 -35l47 10q40 2 66 -3q50 -14 75 -56v-3q21 -38 7 -82q-21 -56 -89 -89q35 -15 47 -24q17 -11 39 -45l7 -11q32 -70 10.5 -131t-73.5 -90
q-43 -21 -89 -16.5t-80 28.5q11 -57 -2 -101t-48 -64q-34 -23 -82 -9q-38 10 -80 56q-11 -64 -70.5 -100.5t-133.5 -16.5q-43 12 -64 32q-20 23 -32 43q-32 62 -12 125l8 19l25 42q-49 -15 -99 -4q-40 3 -64.5 40.5t-12.5 80.5q12 37 38 59l21 18l-10 3q-38 6 -63 31
q-23 17 -33 37q-30 52 -5 113q26 62 83 91q59 32 121 17l34 -11l-10 14q-31 55 -21.5 117t53.5 89q39 20 84 10zM729 738q-20 37 -63 47q-44 16 -84 -8.5t-49 -62.5l-1 -14l1 -56l14 -160q28 -14 41 -24l127 155q12 20 21 43l4 31q0 27 -11 49zM292 710q-4 -32 15 -75l8 -14
l125 -137l21 7l-28 167q-3 17 -17 45q-24 49 -63 60q-20 11 -33 -1q-27 -16 -28 -52zM216 545q-41 10 -79 -11q-39 -16 -55 -60q-13 -33 3 -63q16 -31 53 -37l14 -2l203 25q6 20 23 42l-124 90zM350 315l-113 -21q-2 -1 -42 -17q-46 -23 -58 -58l-3 -12l4 -16q10 -19 45 -21
q36 -4 74 14l11 7l42 35q1 1 21 20.5t33 30.5l-4 10zM790 544l-17 -7l-143 -119l-5 -7l3 -4l2 -10l174 21q41 7 72 26.5t41 46.5l2 15l-5 18q-14 27 -52.5 31.5t-71.5 -11.5zM496 435q-39 0 -66.5 -27t-27.5 -65t27.5 -66t66.5 -28q37 0 65 28q28 24 28 66q0 37 -27 64.5
t-66 27.5zM463 205q-14 1 -44 16l-119 -141q-16 -16 -21 -40l-7 -32q0 -22 13 -48q17 -33 56.5 -45.5t81.5 8.5q35 15 52 58l2 14v56q-9 68 -14 154zM571 224l-18 -10l-24 -9l21 -122l17 -47q23 -52 63 -62q54 -7 61 56q4 35 -17 74l-7 14l-37 45zM635 311l-5 -17l-10 -21
l149 -123q19 -21 52.5 -26t64.5 11q37 17 48 60l4 29q0 36 -21 60q-15 28 -53 41l-14 1l-56 -1z" />
    <glyph glyph-name="glyph13" unicode="&#xf305;" horiz-adv-x="611" 
d="M471 306h-68q-89 0 -149.5 56t-60.5 168q0 117 57 176t139 59h82v-459zM578 850h-185q-143 0 -238.5 -87.5t-95.5 -245.5q0 -99 53.5 -170.5t153.5 -107.5l-248 -368q-6 -9 -1.5 -15t14.5 -6h115q15 0 19 9l225 362h81v-362q0 -9 11 -9h101q13 0 13 11v976q0 13 -18 13v0
z" />
    <glyph glyph-name="glyph14" unicode="&#xf306;" 
d="M192 850h475l348 -500l-348 -500h-475q-74 0 -125.5 52t-51.5 125v646q0 73 51.5 125t125.5 52zM571 667h-113q-88 0 -146.5 -55.5t-58.5 -156.5q0 -128 127 -177l-151 -234q-4 -6 -1.5 -10t8.5 -4h71q9 0 12 6l137 230h50v-230q0 -6 7 -6h61q8 0 8 7v622q0 8 -11 8z
M506 321h-42q-54 0 -91.5 35.5t-37.5 106.5q0 74 35 112t85 38h51v-292z" />
    <glyph glyph-name="glyph9" unicode="&#xf307;" horiz-adv-x="954" 
d="M115 273q-37 13 -65 59.5t-28 94.5q0 79 55 131q53 49 128 49q55 0 100 -26q55 0 121 26v-113q-16 -6 -43 -12q8 -23 8 -47q0 -71 -43 -122t-108 -61q-43 -6 -43 -48q0 -14 14 -28q17 -20 55 -26q156 -24 156 -130q0 -170 -202 -170q-90 0 -147.5 36.5t-57.5 110.5
q0 91 102 125v3q-37 22 -37 70q0 61 35 76v2zM309 5q0 56 -92 56q-88 0 -88 -58q0 -57 96 -57q84 0 84 59zM276 427q0 34 -17.5 56.5t-48.5 22.5q-69 0 -69 -81q0 -75 69 -75q66 0 66 77zM618 768q0 -32 -22.5 -56.5t-53.5 -24.5q-32 0 -54 24t-22 57t22 57.5t54 24.5
q31 0 53.5 -24.5t22.5 -57.5zM480 116q2 30 2 74v341q0 45 -2 71h124q-3 -42 -3 -69v-336q0 -30 3 -81h-124zM842 108q-76 0 -104.5 47.5t-28.5 144.5v196h1v2l-17 1q-15 0 -37 -3v106h54v42q0 26 -4 50h127q-3 -21 -3 -47v-45h95v-106q-5 0 -23.5 1t-24.5 1h-47v-204
q0 -73 48 -73q34 0 61 18v-109q-40 -22 -97 -22z" />
    <glyph glyph-name="glyph10" unicode="&#xf308;" horiz-adv-x="1132" 
d="M456 224q0 51 -22 87.5t-52.5 36.5t-52 -36.5t-21.5 -87.5t21.5 -87t52.5 -36t52.5 36t21.5 87zM856 224q0 51 -22 87.5t-52.5 36.5t-53 -36.5t-22.5 -87.5t22 -87t53.5 -36t53 36t21.5 87zM933 238q0 -37 -4.5 -68.5t-14.5 -55t-21 -42.5t-29.5 -32.5t-35 -23.5
t-42.5 -16t-46.5 -10t-52 -6t-54.5 -2.5t-58 -0.5q-65 0 -114 5.5t-97 21.5t-78 43.5t-49 74.5t-19 112q0 78 61 142q23 24 58.5 33.5t65.5 8.5t84.5 -5.5t87.5 -4.5t87 4.5t85 5.5t66.5 -8.5t57.5 -32.5q62 -67 62 -143zM724 -99q156 15 239.5 64.5t120.5 136.5q6 12 19 59
q16 52 16 174q0 146 -102 248q31 101 -15 216q-3 1 -9 2t-27 -1t-45.5 -9t-65.5 -27t-85 -50q-91 23 -198 23q-115 0 -218 -28q-47 32 -89 53t-68.5 28t-46.5 10t-28 1l-9 -2q-21 -54 -24 -108.5t2.5 -79.5t12.5 -43q-90 -98 -90 -233q0 -115 27 -193q2 -8 22 -48
q87 -162 364 -193h297z" />
    <glyph glyph-name="glyph8" unicode="&#xf309;" 
d="M922 850h-815q-41 0 -66.5 -22.5t-25.5 -69.5v-828q0 -37 26 -58t66 -21h815q40 0 66 21t26 58v828q0 47 -25.5 69.5t-66.5 22.5v0zM751 771h79v-184h185v-77h-185v-186h-79v186h-184v77h184v184v0zM248 324q65 0 97 36q38 44 38 94q0 56 -19.5 116t-62.5 106t-99 46
q-29 0 -57 -13t-45 -35q-28 -35 -28 -108q0 -39 10.5 -79.5t30.5 -78t55.5 -61t79.5 -23.5zM433 139q73 -62 96 -89q51 -61 51 -128q0 -47 -11 -71h-85q6 21 6 26q0 18 -7.5 35t-16.5 29.5t-31 31t-36 29t-48 34t-51 35.5q-12 1 -34 1q-82 0 -152 -23q-69 -26 -99 -67v84
q23 18 58.5 29t61 13t66.5 3t49 2q-15 19 -21.5 28.5t-14 29.5t-7.5 41t14 57q-2 0 -19.5 -1.5t-26.5 -1.5q-90 0 -160 58v355q92 90 261 92h307l-81 -66h-89q89 -77 89 -184q0 -73 -30 -117.5t-88 -89.5q-41 -41 -41 -72t38 -62l52 -41v0z" />
    <glyph glyph-name="glyph15" unicode="&#xf30a;" 
d="M211 850h608q81 0 138.5 -57.5t57.5 -138.5v-608q0 -81 -57.5 -138.5t-138.5 -57.5h-608q-81 0 -138.5 57.5t-57.5 138.5v608q0 81 57.5 138.5t138.5 57.5zM656 375q34 14 55.5 45.5t21.5 74.5q0 54 -32.5 85.5t-86.5 39.5q-28 4 -94 4h-197v-558h224q107 0 165 46
q58 44 58 125q0 57 -31 90.5t-83 44.5v3zM590 466q0 -58 -59 -61q-10 -1 -51 -1h-17v118h9q7 0 24.5 0.5t24.5 0t19.5 -1.5t18.5 -4t13 -9t11 -14q7 -13 7 -28zM625 240q0 -34 -22 -51.5t-57 -19.5q-14 -1 -76 -1h-7v140h25h15q26 0 39 -0.5t32 -3.5t28 -10t16 -20.5
t7 -33.5z" />
    <glyph glyph-name="glyph11" unicode="&#xf30b;" 
d="M973 278q42 -69 42 -148q0 -116 -82 -198t-198 -82q-79 0 -148 42q-36 -6 -72 -6q-192 0 -328 136t-136 328q0 36 6 72q-42 69 -42 148q0 116 82 198t198 82q79 0 148 -42q36 6 72 6q192 0 328 -136t136 -328q0 -36 -6 -72zM324 275q-24 0 -41.5 -15.5t-17.5 -38.5
q0 -42 29.5 -80.5t67.5 -58.5q60 -33 153 -33q158 0 220 90q30 42 30 96q0 67 -36.5 102.5t-101.5 56.5q-23 7 -83 22t-73 18q-73 21 -73 64q0 31 32.5 48.5t74.5 17.5q53 0 75 -18q23 -17 40 -51q14 -23 25 -33q13 -11 35 -11q23 0 40.5 17t17.5 40q0 52 -54 94
q-63 49 -170 49q-150 0 -208 -78q-29 -38 -29 -86q0 -95 100 -139q42 -18 113 -34q46 -10 80 -20q66 -21 66 -72q0 -39 -37 -61t-87 -22q-54 0 -82 21.5t-47 66.5q-20 48 -59 48z" />
    <glyph glyph-name="glyph16" unicode="&#xf30c;" horiz-adv-x="609" 
d="M305 699q44 0 75 -31.5t31 -75.5t-31 -75.5t-75 -31.5t-75.5 31.5t-31.5 75.5t31.5 75.5t75.5 31.5zM305 334q107 0 182.5 76t75.5 182t-75.5 182t-182.5 76t-182.5 -76t-75.5 -182t75.5 -182t182.5 -76v0zM409 123q78 18 150 62q26 17 33 48t-9 57t-47.5 33t-57.5 -10
q-80 -49 -174 -49t-173 49q-26 17 -57 10t-47 -33q-17 -26 -10 -57.5t33 -47.5q72 -44 150 -62l-144 -144q-22 -23 -22 -54t22 -53t53 -22q32 0 54 22l142 142l141 -142q22 -22 53 -22t54 22t23 53.5t-23 53.5l-144 144v0z" />
    <glyph glyph-name="glyph17" unicode="&#xf30d;" 
d="M156 850h718q58 0 99.5 -41t41.5 -100v-718q0 -59 -41.5 -100t-99.5 -41h-718q-58 0 -99.5 41t-41.5 100v718q0 59 41.5 100t99.5 41zM537 748q-85 0 -145 -60.5t-60 -145.5t60 -145.5t145 -60.5t145.5 60.5t60.5 145.5t-60.5 145.5t-145.5 60.5zM399 320q-23 14 -46.5 8
t-36.5 -27t-7.5 -45t26.5 -38q56 -35 119 -50l-115 -115q-18 -18 -18 -42.5t18 -42.5t43 -18q24 0 42 18l113 113l113 -113q18 -18 43 -18t43 18t18 42.5t-18 42.5l-115 115q63 15 119 50q21 14 26.5 38t-7.5 45q-14 21 -38 26.5t-45 -7.5q-63 -40 -138.5 -40t-138.5 40z
M452 542q0 35 25 60t60 25t60.5 -25t25.5 -60t-25.5 -60t-60.5 -25t-60 25t-25 60z" />
    <glyph glyph-name="glyph5" unicode="&#xf30e;" 
d="M208 850h614q80 0 136.5 -56.5t56.5 -136.5v-614q0 -80 -56.5 -136.5t-136.5 -56.5h-614q-80 0 -136.5 56.5t-56.5 136.5v614q0 80 56.5 136.5t136.5 56.5zM838 510q6 140 -104 143q-149 5 -202 -167q28 11 53 11q54 0 48 -61q-3 -36 -48 -107t-68 -71q-29 0 -53 110
q-6 26 -28 163q-10 61 -35.5 89.5t-67.5 24.5q-36 -3 -106 -64q-34 -31 -104 -93l34 -44q49 34 56 34q38 0 69 -115l57 -212q43 -115 106 -115q101 0 247 189q142 182 146 285z" />
    <glyph glyph-name="glyph4" unicode="&#xf30f;" horiz-adv-x="951" 
d="M938 565q-5 -134 -188 -370q-190 -245 -320 -245q-81 0 -137 150l-75 274q-42 150 -90 150q-9 0 -72 -44l-44 56q66 57 135 120q92 80 137 84q54 5 87 -32t46 -116q29 -176 37 -212q32 -141 69 -141q30 0 87 91q60 94 63 139q9 79 -63 79q-34 0 -68 -14q68 222 261 216
q143 -4 135 -185z" />
    <glyph glyph-name="glyph7" unicode="&#xf310;" 
d="M208 850h614q80 0 136.5 -56.5t56.5 -136.5v-614q0 -80 -56.5 -136.5t-136.5 -56.5h-614q-80 0 -136.5 56.5t-56.5 136.5v614q0 80 56.5 136.5t136.5 56.5zM549 709h-99q-18 -147 -142 -187v-99h77v-245q0 -48 9.5 -72.5t36.5 -47.5q52 -46 147 -46q81 0 160 38v109
q-52 -34 -106 -34q-26 0 -47.5 11t-28.5 30t-7 78v179h165v109h-165v177v0z" />
    <glyph glyph-name="glyph6" unicode="&#xf311;" horiz-adv-x="646" 
d="M361 850v-253h237v-157h-237v-256q0 -88 9 -112q10 -27 41 -43t69 -16q77 0 151 49v-157q-63 -29 -111.5 -42t-116.5 -13q-134 0 -212 67q-38 33 -51.5 68.5t-13.5 104.5v350h-111v142q176 57 203 268h143v0z" />
    <glyph glyph-name="glyph18" unicode="&#xf31a;" horiz-adv-x="1495" 
d="M1391 542q4 -3 11 -6.5t10 -6t7.5 -12t6.5 -26.5v-111q-9 -21 -19.5 -34.5t-25 -20t-23.5 -8.5t-27 -5l-46 3l-3 -375q-1 -12 -4 -22t-5.5 -17t-9.5 -13t-10 -9t-13 -7l-12.5 -5t-14.5 -3.5t-14 -3.5h-167q-72 1 -83 95l-1 11l-3 -11q-28 -112 -106 -101h-1l-143 3
q-23 2 -39.5 8.5t-25.5 11.5t-14.5 17.5t-7 17.5t-3.5 22.5t-2 20.5q-3 328 -3 358v1l246 -82h-1h-1h-1v1h-1h-1l-1 1h-1h-1h-1v1h-1h-1l-1 1h-1h-1l-1 1h-1h-1l-1 1h-1h-1l-1 1h-1h-1l-1 1h-1h-1l-1 1h-1h-1h-1v1h-1h-1l-1 1h-1h-1l-1 1h-1h-1h-1v1h-1h-1l-1 1h-1h-1h-1v1
h-1h-1l-1 1h-1h-1l-1 1h-1h-1h-1v1h-1h-1h-1v1h-1h-1l-1 1h-1h-1l-1 1h-1h-1l-1 1h-1h-1h-1l-1 1h-1h-1l-1 1h-1h-1l-1 1h-1h-1l-1 1h-1h-1l-1 1h-1h-1l-1 1h-1l-1 1h-1h-1l-1 1h-1h-1l-1 1h-1h-1h-1v1h-1h-1h-1l-1 1h-1l-1 1h-1h-1l-1 1h-1h-1h-1l-1 1h-1h-1l-1 1h-1l-1 1
h-1h-1h-1l-1 1h-1l-1 1h-1h-1h-1v1h-1h-1h-1l-1 1h-1h-1v1h-1h-1h-1l-1 1h-1h-1v1h-1h-1h-1l-1 1h-1h-1v1h-1h-1h-1l-1 1h-1h-1l-1 1h-1l-1 1h-1h-1h-1l-1 1h-1h-1v1h-1h-1h-1l-1 1h-1h-1l-1 1h-1h-1v1h-1h-1h-1l-1 1h-1h-1l-1 1h-1h-1l-1 1h-1l-1 1h-1h-1h-1l-1 1h-1h-1
l-1 1h-1h-1l-1 1h-1l-1 1h-1h-1h-1l-1 1h-1h-1l-1 1h-1h-1l-1 1h-1h-1l-1 1h-1h-1v1h-1h-1h-1l-1 1h-1h-1l-1 1h-1h-1l-1 1h-1h-1l-1 1h-1h-1l-1 1h-1h-1l-1 1h-1h-1l-1 1h-1h-1l-1 1h-1h-1l-1 1h-1h-1l-1 1h-1h-1l-1 1h-1h-1v1h-1h-1h-1l-1 1h-1h-1l-2 1q-18 6 -29.5 13
t-23.5 23t-17 45.5t-4 72.5q1 39 7.5 63.5t19.5 36t24 15.5t30 6q9 112 73.5 177t203.5 78q99 7 206 -32q15 8 31 14t29.5 10.5t31 7t28.5 4t29.5 1t27 -0.5t28 -2.5t24.5 -3t25 -4t22 -3.5q59 -16 84.5 -41.5t24.5 -67.5v0l3 -91q2 0 -16.5 -22.5t-39.5 -45.5t-25 -24z
M1430 492q-2 10 -4 17.5t-4 11.5t-5.5 7.5l-5 5t-6 3.5t-5.5 3q16 3 25 6.5t21.5 13t20.5 28t12 47.5h1l-3 91q1 44 -25.5 70t-86.5 42v1q-2 0 -22 3.5t-25 4t-25 3t-28 2.5t-26.5 0.5t-29.5 -1t-29 -4t-31.5 -7t-30 -10.5t-31.5 -14q-107 39 -205 32q-138 -13 -204 -78.5
t-76 -176.5q-24 -3 -39 -10.5t-28.5 -36t-14.5 -78.5q-1 -57 10.5 -91.5t26 -45.5t39.5 -20l3 -356q1 -5 2 -18t2.5 -19t5 -17t9.5 -17t15.5 -13t25 -11.5t35.5 -6.5h1l143 -3q78 -11 108 95q14 -88 86 -89h167q3 1 12.5 3.5t13 3.5t12.5 3.5t12.5 5.5t10 7.5t10 10t7.5 13
t6 17t3 20.5l3 370l42 -2q24 3 37.5 7t31.5 20t30 44v1v112zM604 591q18 231 278 255q99 7 206 -32q15 8 31.5 14t30 10.5t31 7t28.5 4t29 1t26.5 -1t27.5 -2.5t24.5 -3t25 -4t22.5 -3q60 -16 86 -42t25 -69l3 -91q-5 -30 -12.5 -48t-22.5 -27.5t-21 -11.5t-27 -7
q3 -2 9.5 -5.5t9.5 -6.5t7.5 -12.5t6.5 -25.5v-111q-12 -28 -29.5 -43.5t-31 -19.5t-36.5 -7l-44 3l-3 -373q-1 -13 -4 -23t-6 -17.5t-10 -13.5l-10.5 -9t-13 -7t-12.5 -5t-15 -3.5t-14 -3.5h-167q-74 1 -85 97q-28 -114 -109 -103l-143 3q-20 2 -35 6t-24.5 11t-15.5 13
t-9.5 17t-5 16.5t-2.5 18.5t-2 18l-3 358q-26 9 -40 19.5t-25.5 44.5t-10.5 91q1 51 14.5 78.5t27.5 34.5t40 10zM853 503v75q2 19 5 29.5t11.5 22.5t25 17t43.5 4h1q8 1 20 -1t20.5 -5t26 -9.5t24.5 -8.5q0 19 -1 56t-1 56l-638 205l636 -204q-53 17 -83 22t-54 2.5
t-34 -1.5h-1q-53 -7 -86.5 -27.5t-47.5 -57.5t-17.5 -58.5t-5.5 -63.5q-1 -12 -1 -17l2 -29l-81 4l2 -118h75l-4 -452h157v452l195 4v-456l156 -4h2l-2 460h139v106h-139q2 21 0.5 42.5t1 41.5t9 34.5t24.5 21.5t47 3q70 -9 102 -35v4q0 19 1 57.5t1 57.5q-86 36 -194 22
q-35 -5 -61 -15.5t-41.5 -28t-25.5 -33.5t-13.5 -42.5t-5 -43t-1 -47.5t-0.5 -44zM850 500l196 -2q1 15 1 44.5t1 47.5t4.5 43.5t12.5 41.5t24 33.5t40.5 27.5t60.5 15q106 14 190 -21l-2 -108q-29 22 -97 31q-31 4 -50 -3.5t-25.5 -23.5t-9.5 -37t-1.5 -43.5t-0.5 -43.5
h139v-98h-139l2 -460l-150 4v456l-203 -4v-452h-149l4 452h-75l-2 110l81 -4l-2 33q0 3 1 23.5t1.5 27t3 26t5.5 28l9 25.5t13.5 26t19 21.5t25.5 19.5t33.5 13.5t42.5 9.5q11 -1 34.5 1.5t53 -2t82.5 -21.5l2 -104q-5 2 -20 7.5t-18.5 6.5l-17.5 5t-16.5 3t-15.5 0
q-9 -4 -23.5 -12t-38.5 -28t-26 -36v-1v-78zM851 502l193 -3q1 14 1 44t1 47.5t4.5 43.5t13 42.5t25 34t41 27.5t60.5 15q109 15 192 -21l-2 -114q-29 24 -99 33q-30 4 -48.5 -3t-25 -22.5t-9.5 -36t-1.5 -42.5t-0.5 -43h139v-102h-139l2 -460l-154 4v456l-199 -4v-452h-153
l4 452h-75l-2 114l81 -4l-2 31q0 3 1 23.5t1.5 27t3 26t5.5 28t9 26t13.5 26.5t19.5 22t26 20t34 13.5t43 9.5q10 -1 34.5 1.5t54.5 -2.5t83 -22l2 -108q-6 2 -24 8.5t-25.5 9t-19.5 4.5t-20 1q-27 1 -44.5 -4t-26 -17.5t-12 -23.5t-5.5 -30v-76z" />
    <glyph glyph-name="glyph19" unicode="&#xf31b;" horiz-adv-x="2043" 
d="M1224 850h608q81 0 138.5 -57.5t57.5 -138.5v-608q0 -81 -57.5 -138.5t-138.5 -57.5h-608q-81 0 -138.5 57.5t-57.5 138.5v608q0 81 57.5 138.5t138.5 57.5zM1552 -14q-54 1 -62 73q-21 -85 -80 -78l-105 2q-15 2 -26 4.5t-18 8t-11.5 9.5t-7 12.5t-3.5 11.5t-2 14t-1 13
q-2 240 -2 262q-19 6 -29.5 14t-19 33t-7.5 67q1 37 11 57.5t20.5 25.5t29.5 7q13 170 203 187q66 5 150 -24h1q11 6 23 10.5t21.5 7.5t22.5 4.5t21 3t21.5 1t19.5 -0.5t20.5 -1.5t18 -2t18 -3t16.5 -2.5q43 -11 62.5 -30.5t18.5 -50.5l2 -67q1 0 -12.5 -16.5t-29 -33.5
t-19.5 -18q1 -1 8.5 -5t10.5 -10t5 -22v-81q-8 -20 -21 -31.5t-22.5 -14.5t-26.5 -6l-33 3l-2 -274q-1 -8 -2.5 -15t-4 -12t-5 -9t-7 -7l-7.5 -5t-9 -4t-8.5 -2.5t-9.5 -2t-9 -2.5h-122zM1238 523q-18 -2 -29 -7t-21 -26t-11 -58q-1 -60 13.5 -82.5t42.5 -31.5l2 -262v0
q0 -2 1 -13t2 -14t3.5 -12t7.5 -12.5t12 -9t18 -8.5t26 -5l105 -2q58 -8 79 73q9 -67 63 -68h122q2 0 10.5 2t11 3t9.5 3.5t9.5 5t7.5 7t7.5 9.5t4.5 13t3 17v0l2 273l32 -3v0q18 3 27 5.5t22.5 14.5t21.5 32v82q-2 11 -5 18.5t-4.5 9.5t-7 4.5t-6.5 3.5q13 3 19 5t16 8.5
t16 20.5t9 35l-2 67q1 31 -18 50.5t-63 31.5v0q-88 13 -132 6q-38 -6 -71 -23q-84 29 -151 24q-191 -17 -204 -187zM1238 522q13 170 204 187q67 5 151 -24q71 38 191 19q8 -1 11 -2q43 -11 62.5 -30.5t18.5 -50.5l2 -67q-1 -9 -3 -16.5t-4 -13.5t-5.5 -10.5t-5.5 -8
t-6.5 -6.5l-6 -4t-7 -3t-7.5 -2.5l-8 -2t-7 -1.5q2 -1 6.5 -4t7 -5t5.5 -9t5 -19v-82q-8 -20 -21.5 -31.5t-22.5 -14t-27 -5.5l-32 2l-2 -273q-1 -8 -2.5 -15t-4.5 -12t-5 -9t-7 -7.5t-7.5 -5t-9 -4t-8.5 -3l-10 -2.5t-9 -2h-122q-54 1 -62 71q-21 -83 -80 -75l-105 2
q-15 2 -26 4.5t-18 8t-11.5 9.5t-7 12.5t-3.5 11.5t-2 14t-1 13l-2 262q-28 9 -42.5 31.5t-13.5 82.5q1 37 10.5 57.5t20.5 25.5t29 7zM1420 457v56q2 14 4 21.5t8 17t18.5 13t32.5 2.5h1q14 2 65 -17q-1 14 -1 40v40q-39 13 -61 16.5t-40 2t-25 -1.5v0q-17 -2 -31.5 -7
t-25 -10t-19.5 -14.5t-14.5 -16t-10 -19.5t-6.5 -19.5t-4 -21t-2.5 -19t-1 -19.5t-0.5 -17v0l1 -22l-59 3l2 -84v-1h54l-3 -331h114v331l144 3v-334l114 -3l-2 337h102v76h-102q1 16 0 32t1.5 30.5t7.5 25.5t18.5 16t34.5 2q54 -8 74 -24q0 56 1 84v1q-60 25 -141 15
q-30 -4 -51 -15t-31.5 -22.5t-16.5 -34.5t-7 -35t-1.5 -41t-0.5 -37zM1419 456l142 -1q1 10 1 37.5t1 41t7 35.5t16.5 33.5t31 22.5t50.5 15q81 11 140 -15l-1 -82q-23 17 -73 23q-22 3 -35.5 -2.5t-18.5 -16.5t-7 -26t-1 -31.5t-1 -31.5h102v-74h-102l2 -337l-112 3v334
l-146 -3v-331h-112l3 331h-54l-2 83l59 -3l-1 23q0 2 0.5 17t1 19.5t2.5 19.5t4 21t6.5 18.5t10 19t14 16t19 14.5t25 10t31.5 7q7 0 25 1.5t39.5 -2t60.5 -16.5l1 -78q-51 19 -65 17q-61 -29 -64 -55v-57zM1420 457l141 -2v32.5t1 34.5t3.5 31.5t9.5 31.5t18.5 24.5
t30 20.5t44.5 11q80 10 141 -16l-2 -83q-23 18 -73 24q-22 3 -35.5 -2.5t-18 -16.5t-6.5 -26t-1 -31.5t-1 -31.5h102v-74h-102l1 -338l-112 3v335l-146 -3v-332h-112l3 332h-55l-1 83l59 -3l-2 23q0 2 0.5 17t1 19.5t2.5 19t4 21t6.5 19.5t10 19.5t14.5 16t19.5 14.5t25 10
t31.5 7q7 0 24.5 1.5t39.5 -2t61 -16.5l2 -79q-50 18 -66 16q-20 1 -32.5 -2.5t-18.5 -13t-8 -17t-4 -21.5v-56z" />
    <glyph glyph-name="glyph20" unicode="&#xf31c;" horiz-adv-x="2163" 
d="M1951 472q35 -1 66 -10t60 -28.5t47 -55.5t20 -86v-137q-3 -40 -10.5 -74t-26 -73t-46.5 -67.5t-76.5 -51.5t-111.5 -32q-22 -3 -48.5 -3.5t-66 1t-63.5 1.5q-76 2 -191 0q-169 -3 -257 72t-89 229v243q-1 62 1 182q0 28 2 36v0q7 96 75.5 156.5t168.5 73.5l300 2
q110 -9 175.5 -73t73.5 -159q11 -90 -3 -146zM1705 850v1l-300 -2v0q-100 -13 -169 -74t-76 -157q-2 -8 -2 -36q-2 -120 -1 -182v-243q1 -154 89.5 -229.5t257.5 -72.5q115 2 191 0q24 0 63.5 -1.5t66 -1t48.5 3.5q63 9 111.5 32t77 51.5t47 67.5t26 73t10.5 75v137
q-2 50 -20 86t-47 55.5t-60 29t-66 10.5q14 56 3 145q-8 96 -74 159.5t-176 72.5zM1455 663h243q49 -6 75 -33t24.5 -57.5t-27.5 -58t-71 -34.5l-244 -1q-65 9 -88.5 50t2.5 82.5t86 51.5zM1454 664q-45 -7 -71.5 -34.5t-28 -58.5t24 -58t75.5 -34v-1h245v1q45 7 71.5 34.5
t28 58.5t-24 58t-75.5 34h-245zM1399 260l448 -1q49 -6 76 -36t27 -64t-26 -64.5t-72 -37.5l-448 2q-50 6 -77.5 35.5t-27 63.5t27 64.5t72.5 37.5zM1399 261q-63 -10 -88.5 -56.5t0.5 -92.5t93 -54l448 -2v0q62 10 87 56.5t-0.5 92.5t-91.5 55v0zM1455 663h243
q49 -6 75 -33t24.5 -57.5t-27.5 -58t-71 -34.5l-244 -1q-65 9 -88.5 50t2.5 82.5t86 51.5zM1454 664q-45 -7 -71.5 -34.5t-28 -58.5t24 -58t75.5 -34v-1h245v1q45 7 71.5 34.5t28 58.5t-24 58t-75.5 34h-245zM1399 260l448 -1q49 -6 76 -36t27 -64t-26 -64.5t-72 -37.5
l-448 2q-50 6 -77.5 35.5t-27 63.5t27 64.5t72.5 37.5zM1399 261q-63 -10 -88.5 -56.5t0.5 -92.5t93 -54l448 -2v0q62 10 87 56.5t-0.5 92.5t-91.5 55v0zM1399 260l448 -1q49 -6 76 -36t27 -64t-26 -64.5t-72 -37.5l-448 2q-50 6 -77.5 35.5t-27 63.5t27 64.5t72.5 37.5z
M1399 261q-63 -10 -88.5 -56.5t0.5 -92.5t93 -54l448 -2v0q62 10 87 56.5t-0.5 92.5t-91.5 55v0zM1705 850q110 -9 176 -72.5t74 -159.5q11 -88 -4 -146q35 -1 66 -10t60.5 -28.5t47.5 -55.5t20 -86v-137q-3 -40 -10.5 -74t-26 -73t-47 -67.5t-77 -51.5t-111.5 -32
q-22 -3 -48 -3.5t-67 0.5t-63 1q-98 3 -191 1q-169 -3 -257.5 72t-89.5 229q-1 13 0 113t1 130q-2 92 0 182q0 28 2 36q7 96 76 157t169 74zM1455 663q-46 -8 -72.5 -35.5t-27 -58t25.5 -57.5t74 -33h244q46 8 72.5 35.5t27 58t-25.5 57.5t-74 33h-244zM1399 261
q-47 -7 -73.5 -37.5t-26.5 -65t27.5 -64.5t77.5 -36l448 -2q47 7 73 37.5t25.5 65t-27.5 64.5t-76 36z" />
    <glyph glyph-name="glyph21" unicode="&#xf31d;" horiz-adv-x="1933" 
d="M1115 850h607q81 0 138.5 -57.5t57.5 -138.5v-607q0 -81 -57.5 -138.5t-138.5 -57.5h-607q-81 0 -138 57.5t-57 138.5v607q0 81 57 138.5t138 57.5zM1605 426q48 -2 82.5 -28t37.5 -85v-86q-2 -26 -6.5 -46.5t-16 -45t-29 -42t-47.5 -32t-69 -20.5q-8 -1 -110 -1
q-68 2 -119 0q-105 -2 -160 45t-56 144q-1 25 0 76.5t1 75.5q-2 58 0 114q0 19 1 23v0q4 60 46.5 97.5t105.5 46.5l187 1q69 -6 109 -46t45 -100q7 -57 -2 -91zM1453 664l-187 -1q-63 -9 -106 -47t-47 -98q-1 -4 -1 -23q-2 -56 0 -114q0 -24 -1 -75.5t0 -76.5
q1 -97 56.5 -144.5t160.5 -45.5q51 2 119 0q102 0 110 1q49 7 83 26t51 47.5t24.5 54.5t10.5 59v86q-3 59 -37.5 85.5t-82.5 28.5q9 34 2 91q-5 60 -45.5 100t-109.5 46zM1297 546h152q41 -6 55.5 -31.5t-2 -51.5t-53.5 -32h-152q-41 6 -55.5 31.5t2 51.5t53.5 32zM1297 547
q-28 -5 -44.5 -22t-17.5 -36.5t15 -37t47 -21.5h152q28 5 44.5 22t17.5 36.5t-15 37t-47 21.5h-152zM1262 293l279 -1q30 -4 47 -22.5t16.5 -40t-16.5 -40.5t-44 -23l-279 1q-41 5 -57 34t0 57.5t54 34.5zM1262 294q-39 -6 -55 -35.5t0 -58.5t58 -34l279 -1v0q39 6 54.5 35
t-0.5 58.5t-57 34.5zM1297 546h152q41 -6 55.5 -31.5t-2 -51.5t-53.5 -32h-152q-41 6 -55.5 31.5t2 51.5t53.5 32zM1297 547q-28 -5 -44.5 -22t-17.5 -36.5t15 -37t47 -21.5h152q28 5 44.5 22t17.5 36.5t-15 37t-47 21.5h-152zM1262 293l279 -1q30 -4 47 -22.5t16.5 -40
t-16.5 -40.5t-44 -23l-279 1q-41 5 -57 34t0 57.5t54 34.5zM1262 294q-39 -6 -55 -35.5t0 -58.5t58 -34l279 -1v0q39 6 54.5 35t-0.5 58.5t-57 34.5zM1262 293l279 -1q30 -4 47 -22.5t16.5 -40t-16.5 -40.5t-44 -23l-279 1q-41 5 -57 34t0 57.5t54 34.5zM1262 294
q-39 -6 -55 -35.5t0 -58.5t58 -34l279 -1v0q39 6 54.5 35t-0.5 58.5t-57 34.5zM1453 663q69 -6 109.5 -45.5t45.5 -99.5q7 -58 -2 -92q48 -2 82.5 -28t37.5 -85v-86q-3 -33 -10.5 -59t-24.5 -54.5t-51 -47.5t-83 -26q-8 -1 -110 -1q-68 2 -119 0q-105 -2 -160 45.5
t-56 144.5v152q-1 39 1 114q0 19 1 23q4 60 46.5 97.5t105.5 46.5zM1297 546q-38 -6 -54 -32t-1 -52t55 -31h152q38 6 54 32t1 52t-55 31h-152zM1262 294q-39 -6 -54.5 -35.5t0.5 -58.5t57 -34h279q29 5 45.5 24t16 40.5t-17.5 40t-47 22.5z" />
    <glyph glyph-name="glyph22" unicode="&#xf32a;" horiz-adv-x="1023" 
d="M541 374q63 3 106 -9v-144l210 -2q-12 50 -34.5 87.5t-51.5 59t-64 36t-71.5 19t-74.5 7t-73 -0.5v46q248 4 386 -78.5t134 -250.5h-469zM375 557h113v-413l-473 -1q1 38 10 73.5t34 76t63 72t103 57t150 36.5l2 -44q-93 -14 -138.5 -64t-64.5 -133h206z" />
    <glyph glyph-name="glyph23" unicode="&#xf32b;" horiz-adv-x="697" 
d="M249 361q0 25 -12 43q-13 18 -36 23t-42 -7q-27 -16 -28.5 -66t11.5 -83q0 -1 1 -5t2 -6q6 -7 18 -5q15 3 12 41q0 8 -2.5 26t-2.5 26t3 26q6 22 21 29q10 2 15 0.5t8.5 -11t4.5 -17.5t2.5 -19t2.5 -15q5 -21 9 -21q1 0 17 12q33 25 40 29q21 12 30 -2q3 -5 3 -10
t-0.5 -7.5t-3.5 -9.5t-4 -8q-14 -32 -24 -46q-2 -2 -14 -16t-16.5 -24.5t-2.5 -23.5q2 -14 16 -10q7 1 13 11q3 4 9 13t9 13q30 40 35 49q18 32 18 69q0 23 -10.5 40.5t-33.5 13.5q-25 -5 -50 -32q-16 -18 -18 -20v0zM227 849q-6 -1 -25.5 -2t-29.5 -3q-60 -9 -136 -45
l-14 -7q-2 -2 -2.5 -7t-1 -11.5t-0.5 -8.5q-4 -55 -1 -77t14 -24q12 -2 35 27q35 46 66 58q37 14 109 18q188 13 287 -86q69 -69 88 -195q8 -51 1 -81q-21 -93 -144 -187q-6 -5 -21 -15t-23 -17q-23 -20 -39 -49q-46 -84 -20 -198q0 -1 1 -5t2 -6q6 -9 18 -8.5t15 10.5
q4 12 0 31q-17 106 37 162q16 16 51 39t43 29q108 84 137 187q7 25 8 49.5t-4.5 51t-10.5 42.5t-16 45q-66 183 -202 245q-71 33 -187 38h-35v0zM68 192q-28 -4 -21 -37q6 -28 40 -54q73 -56 162 -51q42 2 67 14q12 6 14 17.5t-13 15.5q-8 1 -20 -3q-4 -1 -10.5 -3t-12 -3.5
t-10.5 -2.5q-55 -8 -98 23q-29 20 -59 59q-1 2 -4 5t-4 4.5t-4 4.5l-4.5 4.5t-4.5 3.5t-5.5 2t-6 1t-6.5 0v0zM43 80q-13 -3 -15 -4q-4 -5 -4 -10t6.5 -13t13 -15t16 -14.5t14.5 -11t9 -6.5q77 -54 168 -60q27 -2 53 3q18 3 20 4q12 6 10.5 23.5t-13.5 22.5q-2 1 -24 -2
q-122 -17 -212 62l-6.5 6.5l-6.5 6.5t-7.5 5.5t-9.5 2.5t-12 0v0zM53 -14q-17 -2 -26 -21q-13 -31 36 -62q27 -17 68 -31q61 -22 121.5 -22t92.5 34q16 16 -1 22h-7.5t-8 -3.5t-7.5 -3.5q-29 -11 -48 -13q-19 -3 -63 8q-70 18 -97 37q-1 1 -3 2t-3.5 2t-3 2.5l-2.5 2.5
q-3 3 -13 16.5t-16 19.5q-11 11 -19 10v0z" />
    <glyph glyph-name="glyph24" unicode="&#xf32c;" horiz-adv-x="1025" 
d="M454 134q-7 -7 -21 -17t-63.5 -26.5t-106.5 -16.5q-120 0 -184 68.5t-64 197.5q0 136 65.5 211t190.5 75q114 0 177 -45.5t99 -156.5l38 -114q22 -69 65.5 -106.5t124.5 -37.5q119 0 119 59q0 52 -78 71l-77 18q-70 17 -101 53t-31 96q0 86 57.5 124.5t144.5 38.5
q183 0 196 -144l-114 -14q-7 69 -88 69q-38 0 -59.5 -16t-21.5 -45q0 -27 14.5 -42.5t50.5 -23.5l72 -16q76 -18 113.5 -57t37.5 -106q0 -157 -237 -157q-137 0 -204 52t-98 147l-37 114q-24 74 -57.5 111t-101.5 37q-59 0 -99.5 -46.5t-40.5 -143.5q0 -81 37 -129.5
t97 -48.5q40 0 77 16.5t54 32.5l17 17z" />
    <glyph glyph-name="glyph25" unicode="&#xf32d;" 
d="M211 850h608q81 0 138.5 -57.5t57.5 -138.5v-608q0 -81 -57.5 -138.5t-138.5 -57.5h-608q-81 0 -138.5 57.5t-57.5 138.5v608q0 81 57.5 138.5t138.5 57.5zM462 157q-6 -6 -18.5 -15t-56.5 -24t-95 -15q-107 0 -164 61t-57 177q0 122 59 189t170 67q102 0 158 -41
t88 -140l33 -102q20 -61 59 -94.5t111 -33.5q106 0 106 53q0 47 -69 63l-69 16q-118 28 -118 133q0 77 51.5 111.5t129.5 34.5q164 0 175 -129l-102 -13q-6 62 -79 62q-34 0 -53 -14.5t-19 -40.5q0 -24 12.5 -38t45.5 -21l65 -14q134 -30 134 -145q0 -141 -212 -141
q-122 0 -181.5 46.5t-87.5 131.5l-33 102q-21 66 -50.5 99t-91.5 33q-53 0 -89.5 -41.5t-36.5 -128.5q0 -72 34 -115t87 -43q35 0 68 14.5t48 29.5l16 15z" />
    <glyph glyph-name="glyph26" unicode="&#xf33a;" horiz-adv-x="1031" 
d="M242 -107h-214v646h214v-646zM135 627h-1q-53 0 -86 32t-33 79q0 48 33.5 80t87.5 32t86.5 -32t33.5 -80q0 -48 -33 -79.5t-88 -31.5zM361 -107q3 585 0 646h214v-94h-1q69 109 195 109q111 0 179 -74t68 -217v-370h-215v346q0 146 -108 146q-41 0 -69 -23t-42 -56
q-7 -16 -7 -52v-361h-214z" />
    <glyph glyph-name="glyph27" unicode="&#xf33b;" 
d="M211 850h608q81 0 138.5 -57.5t57.5 -138.5v-608q0 -81 -57.5 -138.5t-138.5 -57.5h-608q-81 0 -138.5 57.5t-57.5 138.5v608q0 81 57.5 138.5t138.5 57.5zM335 11h-151v455h151v-455zM259 528h-1q-38 0 -60.5 22t-22.5 56t23.5 56.5t61.5 22.5t61 -22t24 -57
q0 -34 -23.5 -56t-62.5 -22zM418 11q2 412 0 455h151v-66h-1q49 76 137 76q78 0 126 -51.5t48 -152.5v-261h-151v243q0 103 -76 103q-56 0 -78 -55q-5 -12 -5 -37v-254h-151z" />
    <glyph glyph-name="glyph28" unicode="&#xf33c;" horiz-adv-x="958" 
d="M212 -75l-3 410l-173 -169q31 -72 64.5 -122t54 -69.5t57.5 -49.5zM204 323l3 -387q-33 26 -53 46t-51.5 68t-60.5 115zM207 329l2 -398q-34 28 -54 47.5t-52.5 68.5t-63.5 119zM896 124l-604 3l-3 -247q106 -26 193.5 -26t148 18.5t112.5 60t85 85.5t68 106zM297 122
l590 -3q-34 -60 -66.5 -103t-83.5 -82.5t-110 -57.5t-144 -17.5t-188 25.5zM295 125l597 -3q-34 -61 -67 -104.5t-84 -84t-111 -59t-146.5 -18.5t-191.5 26zM773 181l147 6q20 78 22.5 147.5t-8.5 125t-36.5 108.5t-55.5 94t-72 84zM916 192l-138 -5l-2 546
q104 -109 144 -236t-4 -305zM918 189l-142 -5l-3 556q107 -111 148.5 -240.5t-3.5 -310.5zM328 829l383 -348l-5 307q-46 27 -91.5 42t-76 20t-77 1t-65 -7.5t-68.5 -14.5zM706 492l-367 334q55 12 83.5 16t78 5t98 -15t102.5 -47zM708 486l-375 342q46 10 66.5 13.5t64 7
t75 -1.5t76 -20t88.5 -41zM438 626l-182 171q-73 -51 -122.5 -106t-73 -106t-35.5 -106t-10 -106.5t2 -107.5q1 -17 1 -25zM256 791l174 -165l-407 -374q0 57 -3 109t8.5 108t33.5 107.5t71 107t123 107.5zM256 794l178 -168l-413 -380q0 57 -3 109.5t8 109.5t33 109.5
t72 109.5t125 110z" />
    <glyph glyph-name="glyph29" unicode="&#xf33d;" horiz-adv-x="1023" 
d="M65 135q-40 104 -45.5 170.5t11.5 192.5l236 -578l-24 16t-25 17t-21.5 15.5t-23 18.5t-20 19.5t-22.5 25t-20.5 28t-23.5 35t-22 40.5zM270 -84l-240 587q-18 -128 -12 -196t46 -172q13 -25 27 -47t23.5 -36.5t26 -31.5t23 -24.5t26.5 -23t24 -18.5t28.5 -19.5
t27.5 -18.5zM30 500l239 -582q-4 3 -24.5 16.5t-25 17t-21.5 16t-23 19t-20.5 20t-23 24.5t-21 27.5t-23 35.5t-22.5 41q-40 104 -46 170.5t11 194.5zM526 281l-1 1l-167 -404q171 -49 319 8zM525 279l150 -392q-146 -56 -316 -8zM525 281l151 -395q-146 -56 -317 -8z
M967 146q-27 -51 -56.5 -89.5t-49 -55.5t-51 -40.5t-45.5 -35.5l223 582q21 -88 18 -181.5t-39 -179.5zM968 145q65 155 21 367l-1 -1v-1l-225 -587q0 -1 -0.5 -1t-0.5 -1q15 13 46.5 36.5t51.5 40.5t50 56t58 91v0zM989 510q21 -89 18 -183t-40 -181q-27 -52 -57 -91
t-49.5 -55.5t-51 -40.5t-45.5 -36zM831 550q-19 45 -5.5 81.5t68.5 50.5q-84 86 -185 128.5t-198.5 40t-188.5 -40t-161 -106.5q-67 -66 -108 -153zM892 683q-98 -25 -62 -132l-775 2q38 84 106 150q70 69 160.5 106.5t187.5 40.5t198 -39.5t185 -127.5zM893 683
q-98 -25 -63 -133l-776 2q52 113 150.5 189t214 100.5t243.5 -14.5t231 -144zM354 527q22 1 37.5 -1.5t25 -11t14 -14.5t11 -20t9.5 -20l53 -125l-114 -266l-155 388q-13 36 -1.5 55t58.5 13v47l64 -4zM357 569l-67 4v-47q-47 6 -58 -14t2 -56l156 -389v-2l1 2l114 267v1
l-53 125v0q-3 6 -9.5 19.5t-11 20t-14 15t-25 11.5t-37.5 2q1 7 1 20.5t1 20.5zM291 572l65 -3l-1 -42q22 1 37.5 -1.5t25 -11t14 -14.5t11 -20t9.5 -20l52 -125l-114 -268l-155 389q-4 21 -6 38t13 26.5t49 5.5v46zM640 451q-7 24 -8 34q-1 13 2.5 21t12.5 11.5t15 4.5
t21 1h20v60l119 -9q14 -40 22.5 -69t15.5 -66t6 -72.5t-11 -69.5l-76 -213zM823 575l-121 9v-60q-4 0 -19.5 -0.5t-21.5 -1.5t-15 -4.5t-12.5 -11.5t-2.5 -21q2 -16 7 -34v0l141 -369v-2q13 36 39 108.5t39 108.5v0q10 34 11 69.5t-6.5 73t-15.5 65.5t-23 69v1zM703 584
l119 -10q15 -41 23 -69t15.5 -65.5t6.5 -73t-11 -69.5l-77 -215l-140 369q-5 17 -7 30t1.5 20.5t6.5 12.5t12.5 7t15 2.5t18 0.5h17.5v60z" />
  </font>
</defs>
</svg>
