<svg width="1000" height="1000" xmlns="http://www.w3.org/2000/svg" xmlns:sketch="http://www.bohemiancoding.com/sketch/ns"><title>cc-visa</title><path d="M240.088 513.484c.003 .011 .007 .022 .01 .033l6.555 33.802 61.525 -166.33h66.567l-98.935 243.443 -66.49 .08 -52.955 -196.451c31.498 16.687 58.314 36.004 73.844 62.573 -4.004 -8.407 -9.257 -17.918 -16.008 -27.271 -7.862 -10.892 -24.849 -24.948 -31.946 -30.931 -24.73 -20.847 -58.328 -37.669 -94.606 -46.578l.802 -4.866h101.319c13.647 .516 24.678 4.935 28.482 19.744l21.836 112.751zm-200.096 -327.484c-22.087 0 -39.993 17.908 -39.993 40v548c0 22.091 17.915 40 39.993 40h920.015c22.087 0 39.993 -17.908 39.993 -40v-548c0 -22.091 -17.915 -40 -39.993 -40h-920.015zm320.513 438.356l40.706 -243.059h65.108l-40.734 243.059h-65.079zm293.023 -240.837c-12.438 -4.999 -31.926 -10.363 -56.264 -10.363 -62.03 0 -105.725 33.466 -106.098 81.427 -.349 35.454 31.194 55.231 55.007 67.035 24.436 12.094 32.65 19.807 32.533 30.606 -.154 16.539 -19.514 24.095 -37.557 24.095 -25.127 0 -38.475 -3.74 -59.093 -12.952l-8.09 -3.921 -8.811 55.235c14.662 6.887 41.777 12.855 69.929 13.164 65.989 0 108.828 -33.082 109.315 -84.298 .236 -28.069 -16.49 -49.429 -52.706 -67.038 -21.943 -11.414 -35.381 -19.031 -35.239 -30.589 0 -10.256 11.374 -21.223 35.951 -21.223 20.529 -.342 35.399 4.454 46.986 9.453l5.625 2.847 8.511 -53.478zm164.647 -2.222h-49.293c-15.269 0 -26.698 4.331 -33.403 20.169l-94.742 222.89h66.987s10.952 -29.969 13.429 -36.549c7.32 0 72.396 .104 81.698 .104 1.909 8.514 7.761 36.445 7.761 36.445h59.193l-51.632 -243.059zm-78.137 155.657c5.244 -13.874 25.262 -67.313 25.262 -67.313 -.374 .641 5.205 -13.941 8.407 -22.982l4.285 20.761s12.141 57.479 14.679 69.532l-52.632 .002z" sketch:type="MSShapeGroup" fill="#262626"/></svg>