<?xml version="1.0" encoding="UTF-8" standalone="no"?>
<svg
   xmlns:dc="http://purl.org/dc/elements/1.1/"
   xmlns:cc="http://creativecommons.org/ns#"
   xmlns:rdf="http://www.w3.org/1999/02/22-rdf-syntax-ns#"
   xmlns:svg="http://www.w3.org/2000/svg"
   xmlns="http://www.w3.org/2000/svg"
   xmlns:sodipodi="http://sodipodi.sourceforge.net/DTD/sodipodi-0.dtd"
   xmlns:inkscape="http://www.inkscape.org/namespaces/inkscape"
   width="1000px"
   height="1000px"
   viewBox="0 0 1000 1000"
   version="1.1"
   id="svg2"
   inkscape:version="0.48.3.1 r9886"
   sodipodi:docname="amex.svg">
  <metadata
     id="metadata15">
    <rdf:RDF>
      <cc:Work
         rdf:about="">
        <dc:format>image/svg+xml</dc:format>
        <dc:type
           rdf:resource="http://purl.org/dc/dcmitype/StillImage" />
      </cc:Work>
    </rdf:RDF>
  </metadata>
  <sodipodi:namedview
     pagecolor="#ffffff"
     bordercolor="#666666"
     borderopacity="1"
     objecttolerance="10"
     gridtolerance="10"
     guidetolerance="10"
     inkscape:pageopacity="0"
     inkscape:pageshadow="2"
     inkscape:window-width="640"
     inkscape:window-height="480"
     id="namedview13"
     showgrid="false"
     inkscape:zoom="0.236"
     inkscape:cx="500"
     inkscape:cy="500"
     inkscape:window-x="65"
     inkscape:window-y="24"
     inkscape:window-maximized="0"
     inkscape:current-layer="svg2" />
  <title
     id="title4">amex</title>
  <description
     id="description6">Created with Sketch (http://www.bohemiancoding.com/sketch)</description>
  <defs
     id="defs8" />
  <path

     d="M 46.53125 186 C 20.840831 186 4.7369516e-15 206.81433 0 232.5 L 0 767.5 C 0 793.18853 20.843556 814 46.53125 814 L 953.46875 814 C 979.15917 814 1000 793.18567 1000 767.5 L 1000 232.5 C 1000 206.81148 979.15644 186 953.46875 186 L 46.53125 186 z M 37.21875 317.9375 L 110.09375 317.9375 L 119.5 337.25 L 119.5 317.9375 L 204.9375 317.9375 L 223.625 360.1875 L 241.84375 317.9375 L 513.15625 317.9375 C 525.48839 317.9375 536.57961 320.2189 544.71875 327.46875 L 544.71875 317.9375 L 618.96875 317.9375 L 618.96875 327.46875 C 631.75933 320.43484 647.58044 317.9375 665.59375 317.9375 L 773.21875 317.9375 L 783.1875 337.25 L 783.1875 317.9375 L 862.875 317.9375 L 873.75 337.25 L 873.75 317.9375 L 951.375 317.9375 L 951.375 481.625 L 872.9375 481.625 L 858.09375 456.84375 L 858.09375 481.625 L 760.21875 481.625 L 749.5625 455.53125 L 725.46875 455.53125 L 714.59375 481.625 L 663.78125 481.625 C 643.84601 481.625 628.70891 476.8954 618.96875 471.65625 L 618.96875 481.625 L 498.21875 481.625 L 498.21875 444.46875 C 498.21875 439.22606 497.28826 438.92224 494.125 438.8125 L 489.59375 438.8125 L 489.71875 481.625 L 256.21875 481.625 L 256.21875 461.375 L 247.84375 481.6875 L 199.0625 481.6875 L 190.6875 461.6875 L 190.6875 481.625 L 96.75 481.625 L 86 455.53125 L 61.90625 455.53125 L 51.125 481.625 L 3.375 481.625 L 3.375 459.03125 L 3.375 395.75 L 37.21875 317.9375 z M 3.375 459.03125 L 33.71875 459.03125 L 44.5625 432.78125 L 102.6875 432.78125 L 113.40625 459.03125 L 170.21875 459.03125 L 170.21875 366.84375 L 210.8125 459.03125 L 235.34375 459.03125 L 275.8125 366.9375 L 275.9375 459.03125 L 304.5625 459.03125 L 304.5625 341.4375 L 258.0625 341.4375 L 224.5 421.21875 L 187.9375 341.4375 L 142.375 341.4375 L 142.375 452.75 L 94.875 341.4375 L 53.375 341.4375 L 3.375 459.03125 z M 325.53125 341.4375 L 325.53125 459.03125 L 418.65625 459.03125 L 418.65625 434.6875 L 353.40625 434.6875 L 353.40625 411.21875 L 417.09375 411.21875 L 417.09375 387.125 L 353.40625 387.125 L 353.40625 365.9375 L 418.65625 365.9375 L 418.65625 341.4375 L 325.53125 341.4375 z M 438.78125 341.4375 L 438.78125 459.03125 L 466.78125 459.03125 L 466.78125 416.25 L 496.8125 416.25 C 506.88779 416.25 513.12931 417.14604 517.21875 421.28125 C 522.31114 426.93792 521.625 437.11223 521.625 444.1875 L 521.75 459.03125 L 549.96875 459.03125 L 549.96875 435.90625 C 549.96875 425.40507 549.29547 420.19193 545.34375 414.34375 C 542.85406 410.91784 537.62357 406.77819 531.5 404.4375 C 538.76071 401.52937 551.21875 391.84053 551.21875 373.09375 C 551.21875 359.97879 545.88465 352.31486 537.03125 347.0625 C 527.98361 341.81014 517.45872 341.4375 503.15625 341.4375 L 438.78125 341.4375 z M 567.15625 341.4375 L 567.15625 459.03125 L 595.65625 459.03125 L 595.65625 341.4375 L 567.15625 341.4375 z M 666.59375 341.4375 C 647.33591 341.4375 633.19097 345.77222 624.15625 355.15625 C 612.14523 367.75342 609.09375 383.68687 609.09375 401.125 C 609.09375 422.50684 614.21014 436.0166 624.03125 446 C 633.77125 455.98339 650.94744 459.03125 664.53125 459.03125 L 697.25 459.03125 L 707.8125 432.78125 L 765.84375 432.78125 L 776.71875 459.03125 L 833.625 459.03125 L 833.625 370.78125 L 886.59375 459.03125 L 926.21875 459.03125 L 926.21875 341.4375 L 897.59375 341.4375 L 897.59375 423.34375 L 848.46875 341.4375 L 805.90625 341.4375 L 805.90625 452.65625 L 758.59375 341.4375 L 716.71875 341.4375 L 677.34375 433.90625 L 664.78125 433.90625 C 657.42512 433.90625 649.61475 432.49675 645.3125 427.84375 C 640.11807 421.91045 637.625 412.81591 637.625 400.21875 C 637.625 387.89467 640.89204 378.54466 645.65625 373.59375 C 651.20333 368.15342 656.95781 366.625 667.15625 366.625 L 693.65625 366.625 L 693.65625 341.4375 L 666.59375 341.4375 z M 73.375 360.75 L 92.3125 407.78125 L 54.5625 407.78125 L 73.375 360.75 z M 737.40625 360.75 L 756.75 407.78125 L 718.15625 407.78125 L 737.40625 360.75 z M 466.46875 365.78125 L 501 365.78125 C 505.88462 365.78125 510.9706 366.0112 514.28125 367.90625 C 517.9173 369.61391 520.15625 373.26078 520.15625 378.28125 C 520.15625 383.40424 518.01105 387.50766 514.375 389.40625 C 510.52319 391.74324 505.98887 391.84375 500.53125 391.84375 L 466.46875 391.84375 L 466.46875 365.78125 z M 200.53125 519.5 L 351.09375 519.5 L 372.6875 544.53125 L 395.78125 519.5 L 496.5625 519.5 C 508.21513 519.5 527.34078 520.7067 535.9375 529.0625 L 535.9375 519.5 L 626 519.5 C 634.46278 519.5 652.78963 521.19489 663.65625 529.0625 L 663.65625 519.5 L 800.1875 519.5 L 800.1875 529.0625 C 806.97605 522.52502 821.33535 519.5 833.5625 519.5 L 910.03125 519.5 L 910.03125 529.0625 C 918.05698 523.23254 929.36846 519.5 944.96875 519.5 L 996.6875 519.5 L 996.6875 542.84375 L 941.03125 542.84375 C 911.71991 542.84375 900.96875 560.73416 900.96875 577.75 C 900.96875 614.87352 933.67902 613.16749 959.90625 614.0625 C 964.77032 614.0625 967.7233 614.86622 969.75 616.65625 C 971.80489 618.28354 973.15625 621.02019 973.15625 624.4375 C 973.15625 627.63903 971.82063 630.27897 969.875 632.09375 C 967.62977 634.29414 963.89183 635 958.5625 635 L 904.84375 635 L 904.84375 660.15625 L 958.78125 660.15625 C 976.67963 660.15625 989.90247 655.08333 996.6875 645.125 L 996.6875 675.625 C 985.49661 681.05167 970.77976 683.1875 955.71875 683.1875 L 883.34375 683.1875 L 883.34375 672.6875 C 874.9585 679.44077 859.83024 683.1875 845.34375 683.1875 L 617.15625 683.1875 L 617.15625 645.34375 C 617.15625 640.70596 616.6869 640.5 612.0625 640.5 L 608.46875 640.5 L 608.46875 683.1875 L 533.34375 683.1875 L 533.34375 639 C 520.77118 644.45497 506.52014 644.93749 494.4375 644.75 L 485.46875 644.75 L 485.46875 683.25 L 394.40625 683.1875 L 372.03125 657.71875 L 348.25 683.1875 L 200.53125 683.1875 L 200.53125 519.5 z M 225.6875 543 L 225.6875 660.59375 L 336.40625 660.59375 L 372.1875 621.65625 L 406.59375 660.59375 L 460.9375 660.59375 L 460.9375 621.15625 L 495.8125 621.15625 C 520.24598 621.15625 544.5 614.41246 544.5 581.75 C 544.5 549.18682 519.55807 543 497.375 543 L 408.0625 543 L 372.5 581.5625 L 338.125 543 L 225.6875 543 z M 557.09375 543 L 557.09375 660.59375 L 585.125 660.59375 L 585.125 617.65625 L 614.96875 617.65625 C 625.15521 617.65625 631.38853 618.66277 635.46875 622.875 C 640.65887 628.34238 639.96875 638.80145 639.96875 645.875 L 639.96875 660.59375 L 668 660.59375 L 668 637.28125 C 667.88725 626.91734 667.3178 621.55289 663.375 615.8125 C 660.99311 612.3874 655.93421 608.24571 649.71875 605.9375 C 657.06878 603.0017 669.496 593.42333 669.5 574.65625 C 669.5 561.24308 663.96853 553.91997 655.15625 548.5625 C 645.99161 543.64115 635.66755 543 621.53125 543 L 557.09375 543 z M 685.4375 543 L 685.4375 660.59375 L 778.5625 660.59375 L 778.5625 636.1875 L 713.21875 636.09375 L 713.21875 612.6875 L 776.96875 612.6875 L 776.96875 588.6875 L 713.21875 588.6875 L 713.21875 567.3125 L 778.5625 567.3125 L 778.5625 543 L 685.4375 543 z M 831.875 543 C 802.61113 543 791.96875 560.94494 791.96875 578 C 791.96875 615.20909 824.67694 613.50918 850.78125 614.40625 C 855.64212 614.40625 858.5842 615.23709 860.71875 617.03125 C 862.63492 618.66229 864.125 621.35606 864.125 624.78125 C 864.125 627.99016 862.73219 630.64978 860.8125 632.46875 C 858.45955 634.67421 854.73162 635.375 849.4375 635.375 L 795.28125 635.375 L 795.28125 660.59375 L 849.65625 660.59375 C 877.80706 660.59375 893.5 648.76413 893.5 623.46875 C 893.5 611.36711 890.59127 604.22507 885.15625 598.5625 C 878.83359 592.11633 868.4345 589.4973 853.28125 589.125 L 838.25 588.71875 C 833.4948 588.71875 830.31971 588.40681 827.375 587.375 C 823.8632 586.07016 821.28125 583.06073 821.28125 578.625 C 821.28125 574.89487 822.41133 572.06031 825.46875 570.15625 C 828.27608 568.22381 831.58051 568.03125 836.65625 568.03125 L 887.84375 568.03125 L 887.84375 543 L 831.875 543 z M 432.90625 555.59375 L 432.90625 649.65625 L 390.125 601.875 L 432.90625 555.59375 z M 253.375 567.375 L 323.46875 567.375 L 354.0625 601.6875 L 322.125 636.21875 L 253.375 636.21875 L 253.375 612.8125 L 314.75 612.8125 L 314.75 588.78125 L 253.375 588.78125 L 253.375 567.375 z M 460.59375 567.375 L 497.15625 567.375 C 507.27566 567.375 514.28125 571.5236 514.28125 581.90625 C 514.28125 592.17435 507.58271 597.59375 496.8125 597.59375 L 460.59375 597.59375 L 460.59375 567.375 z M 585.59375 567.375 L 620.125 567.375 C 625.1154 567.375 630.10822 567.47971 633.5 569.46875 C 637.13228 571.34592 639.28125 574.91465 639.28125 579.875 C 639.28125 584.83535 637.13228 588.82919 633.5 591 C 629.75101 593.19877 625.10997 593.40625 619.65625 593.40625 L 585.59375 593.40625 L 585.59375 567.375 z M 945.78125 568.1875 L 996.6875 568.1875 L 996.6875 601.78125 C 995.90874 600.77014 995.22489 599.77575 994.09375 598.875 C 987.87773 592.40604 977.67847 589.75595 962.40625 589.375 L 947.28125 588.96875 C 942.62982 588.96875 939.44591 588.66103 936.5 587.625 C 932.88104 586.31482 930.40625 583.29762 930.40625 578.84375 C 930.40625 575.09838 931.55409 572.2556 934.5 570.34375 C 937.34372 568.40342 940.69991 568.1875 945.78125 568.1875 z "
     id="path3033" />
</svg>
