<svg xmlns="http://www.w3.org/2000/svg" width="1000.0000000000001" height="1000" version="1"><path d="M196.099 .156c-107.72 0 -195.88 88.161 -195.88 195.88l0 607.851c0 107.72 88.16 195.849 195.88 195.849l607.851 0c107.72 0 195.849 -88.129 195.849 -195.849l0 -607.851c0 -107.72 -88.129 -195.88 -195.849 -195.88l-607.851 0zm338.012 186.777c94.026 7.596 148.647 68.316 155.146 145.948 5.05 39.953 3.637 69.6 -2.127 91.418 53.633 1.773 116.39 25.822 120.388 113.098l0 85.911c-5.561 75.026 -32.259 167.679 -169.225 187.339 -30.84 4.427 -65.452 1.464 -110.345 1.157 -45.139 -1.19 -84.496 -.975 -118.917 -.344 -138.941 2.545 -215.468 -58.535 -216.185 -189.28 -1.116 -44.494 .65 -92.734 .501 -152.581 -.558 -37.925 -.768 -77.544 .094 -114.381 .267 -7.189 -.671 -15.069 1.22 -22.807 5.98 -84.295 73.682 -133.698 152.706 -144.665l186.745 -.814zm-156.148 117.259c-80.036 13.104 -83.991 104.44 0 115.726l151.924 0c80.036 -13.104 83.991 -104.44 0 -115.726l-151.924 0zm-34.508 252.82c-82.395 12.791 -83.607 116.536 2.941 127.271l279.1 1.001c81.695 -12.682 81.454 -116.322 -2.941 -127.302l-279.1 -.97z"/></svg>