<svg xmlns="http://www.w3.org/2000/svg" width="990.9329711871087" height="1000"><path d="M550.422 0l-300.866 1.285c-127.323 17.516 -236.411 96.432 -246.046 231.064 -3.046 12.359 -1.544 24.907 -1.975 36.389 -1.388 58.833 -1.055 122.129 -.156 182.701 .24 95.584 -2.583 172.602 -.783 243.664 1.153 208.816 124.429 306.403 348.288 302.339 55.46 -1.007 118.876 -1.368 191.602 .533 72.331 .488 128.091 5.253 177.78 -1.818 220.679 -31.402 263.696 -179.41 272.657 -299.236l0 -137.222c-6.44 -139.393 -107.508 -177.77 -193.922 -180.601 9.288 -34.845 11.521 -82.219 3.385 -146.029 -10.471 -123.99 -98.471 -220.938 -249.964 -233.07zm-251.594 187.246l244.761 0c135.326 18.024 128.953 163.934 0 184.864l-244.761 0c-135.326 -18.024 -128.953 -163.934 0 -184.864zm-55.572 403.798l449.653 1.536c135.976 17.536 136.359 183.07 4.733 203.325l-449.653 -1.568c-139.444 -17.144 -137.487 -182.865 -4.733 -203.294z"/></svg>