<svg xmlns="http://www.w3.org/2000/svg" width="704" height="1000"><path d="M351.455 294.781c-75.701 0 -145.649 24.077 -203.103 64.682l0 -285.415c-.001 -40.892 -33.146 -74.048 -74.048 -74.048s-74.048 33.156 -74.048 74.048l0 545.421c-.727 9.233 .088 62.72 2.534 77.904 24.33 171.015 170.95 302.627 348.665 302.627 194.75 0 352.609 -157.858 352.609 -352.609 -.001 -194.751 -157.859 -352.61 -352.609 -352.61zm0 555.713c-112.174 0 -203.103 -90.93 -203.103 -203.104s90.929 -203.103 203.103 -203.103c112.173 0 203.103 90.929 203.103 203.103s-90.93 203.104 -203.103 203.104z"/></svg>