<svg xmlns="http://www.w3.org/2000/svg" width="500" height="1000"><path d="M250.64 393.24c112.01 -1.75 173.43 -61.25 230.68 -116.99l0 672.38l-112.82 0c-1.02 -27.07 -1.59 -54.49 -2.01 -82.03l0 -188.14c.76 -71.14 1.91 -142.32 2.17 -212.16 -15.86 4.21 -33.75 12.58 -53.92 17.89 -60.61 15.99 -140.37 7.62 -186.5 -19.38 .15 33.14 .37 66.55 .63 100.07l0 351.6c-.19 10.72 -.31 21.48 -.54 32.17l-113.26 0l0 -674.15c57.89 61.29 122.02 120.5 235.57 118.74zm176.8 -196.08c40.09 0 72.57 -33.26 72.57 -74.27s-32.48 -74.26 -72.57 -74.26c-40.08 0 -72.58 33.24 -72.58 74.26s32.5 74.27 72.58 74.27zm-354.85 0c40.08 0 72.56 -33.26 72.56 -74.27s-32.48 -74.26 -72.56 -74.26c-40.09 0 -72.59 33.24 -72.59 74.26s32.5 74.27 72.59 74.27z"/></svg>