<?xml version="1.0" encoding="UTF-8" standalone="no"?>
<svg
   xmlns:dc="http://purl.org/dc/elements/1.1/"
   xmlns:cc="http://creativecommons.org/ns#"
   xmlns:rdf="http://www.w3.org/1999/02/22-rdf-syntax-ns#"
   xmlns:svg="http://www.w3.org/2000/svg"
   xmlns="http://www.w3.org/2000/svg"
   xmlns:sodipodi="http://sodipodi.sourceforge.net/DTD/sodipodi-0.dtd"
   xmlns:inkscape="http://www.inkscape.org/namespaces/inkscape"
   width="1000px"
   height="1000px"
   viewBox="0 0 1000 1000"
   version="1.1"
   id="svg2"
   inkscape:version="0.48.3.1 r9886"
   sodipodi:docname="discover.svg">
  <metadata
     id="metadata15">
    <rdf:RDF>
      <cc:Work
         rdf:about="">
        <dc:format>image/svg+xml</dc:format>
        <dc:type
           rdf:resource="http://purl.org/dc/dcmitype/StillImage" />
      </cc:Work>
    </rdf:RDF>
  </metadata>
  <sodipodi:namedview
     pagecolor="#ffffff"
     bordercolor="#666666"
     borderopacity="1"
     objecttolerance="10"
     gridtolerance="10"
     guidetolerance="10"
     inkscape:pageopacity="0"
     inkscape:pageshadow="2"
     inkscape:window-width="1144"
     inkscape:window-height="834"
     id="namedview13"
     showgrid="false"
     inkscape:zoom="0.236"
     inkscape:cx="500"
     inkscape:cy="500"
     inkscape:window-x="65"
     inkscape:window-y="24"
     inkscape:window-maximized="0"
     inkscape:current-layer="svg2" />
  <title
     id="title4">discover</title>
  <description
     id="description6">Created with Sketch (http://www.bohemiancoding.com/sketch)</description>
  <defs
     id="defs8" />
  <path

     d="M 45.9375 186 C 20.24708 186 -0.59375 206.81433 -0.59375 232.5 L -0.59375 767.5 C -0.59375 793.18853 20.249805 814 45.9375 814 L 952.90625 814 C 978.59666 814 999.40625 793.18567 999.40625 767.5 L 999.40625 232.5 C 999.40625 206.81148 978.59394 186 952.90625 186 L 45.9375 186 z M 525.875 362.78125 C 526.55319 362.76407 527.22392 362.78125 527.90625 362.78125 C 571.57528 362.78125 606.96875 398.16825 606.96875 441.84375 C 606.96875 485.51925 571.57528 520.9375 527.90625 520.9375 C 484.23722 520.9375 448.84375 485.51925 448.84375 441.84375 C 448.84375 398.85068 483.14917 363.86388 525.875 362.78125 z M 276.3125 366.25 C 291.98701 366.25 306.35445 371.62958 318.34375 382.125 L 303.75 401.25 C 296.47906 393.09794 289.60384 389.65625 281.25 389.65625 C 269.22202 389.65625 260.46875 396.49129 260.46875 405.5 C 260.46875 413.22648 265.38416 417.33569 282.125 423.53125 C 313.85523 435.13756 323.25 445.42998 323.25 468.15625 C 323.25 495.85112 302.92732 515.125 273.9375 515.125 C 252.71587 515.125 237.25746 506.74355 224.40625 487.875 L 242.4375 470.53125 C 248.85758 482.95553 259.57074 489.59375 272.875 489.59375 C 285.31736 489.59375 294.53125 481.02723 294.53125 469.4375 C 294.53125 463.42985 291.76225 458.26717 286.1875 454.625 C 283.38078 452.90063 277.82371 450.32094 266.90625 446.46875 C 240.70657 437.03448 231.71875 426.95863 231.71875 407.25 C 231.71875 383.83841 251.00788 366.25 276.3125 366.25 z M 407.53125 366.25 C 419.53196 366.25 429.62566 368.81496 441.875 375 L 441.875 407.6875 C 430.27211 396.39044 420.18518 391.65625 406.875 391.65625 C 380.71323 391.65625 360.15625 413.25079 360.15625 440.59375 C 360.15625 469.43894 380.09191 489.71875 408.1875 489.71875 C 420.83466 489.71875 430.71965 485.24047 441.875 474.125 L 441.875 506.8125 C 429.18917 512.76093 418.88676 515.125 406.875 515.125 C 364.39734 515.125 331.40625 482.64585 331.40625 440.78125 C 331.40625 399.36787 365.26908 366.25 407.53125 366.25 z M 54.65625 368.59375 L 95.90625 368.59375 C 141.48446 368.59375 173.25 397.75232 173.25 439.625 C 173.25 460.50379 163.52595 480.69712 147.09375 494.09375 C 133.26109 505.40195 117.50804 510.46875 95.6875 510.46875 L 54.65625 510.46875 L 54.65625 368.59375 z M 186.03125 368.59375 L 212.78125 368.59375 L 212.78125 510.46875 L 186.03125 510.46875 L 186.03125 368.59375 z M 595.34375 368.59375 L 625.75 368.59375 L 663.8125 464.5625 L 702.375 368.59375 L 732.5625 368.59375 L 670.90625 515.125 L 655.90625 515.125 L 595.34375 368.59375 z M 744.1875 368.59375 L 823.25 368.59375 L 823.25 392.625 L 772.03125 392.625 L 772.03125 424.125 L 821.375 424.125 L 821.375 448.15625 L 772.03125 448.15625 L 772.03125 486.4375 L 823.25 486.4375 L 823.25 510.46875 L 744.1875 510.46875 L 744.1875 368.59375 z M 843.03125 368.59375 L 884.46875 368.59375 C 916.71469 368.59375 935.21875 383.90571 935.21875 410.46875 C 935.21875 432.19168 923.62232 446.44487 902.5625 450.6875 L 947.6875 510.46875 L 913.28125 510.46875 L 874.59375 453.46875 L 870.9375 453.46875 L 870.9375 510.46875 L 843.03125 510.46875 L 843.03125 368.59375 z M 871.125 390.9375 L 871.125 434.125 L 879.21875 434.125 C 896.90046 434.125 906.28125 426.4251 906.28125 412.09375 C 906.28125 398.21955 896.89921 390.9375 879.65625 390.9375 L 871.125 390.9375 z M 82.75 392.5 L 82.75 486.5625 L 90.28125 486.5625 C 108.46046 486.5625 119.97369 483.1261 128.8125 475.25 C 138.54857 466.70884 144.375 453.0644 144.375 439.40625 C 144.375 425.78108 138.54857 412.54665 128.8125 404 C 119.52227 395.70069 108.46046 392.5 90.28125 392.5 L 82.75 392.5 z M 987.21875 526.6875 C 987.21875 526.6875 987.49806 679.06037 986.875 759.15625 C 986.82048 766.16578 984.25386 777.2633 976.28125 786.5 C 968.30864 795.7367 955.90768 800.05795 948.5 800.03125 C 941.09232 800.00455 224.40625 800.03125 224.40625 800.03125 C 716.29839 715.17423 987.21875 526.6875 987.21875 526.6875 z "
     id="path3017" />
</svg>
