<svg xmlns="http://www.w3.org/2000/svg" width="1000" height="1000"><path d="M182.594 0c-101.149 0 -182.594 81.445 -182.594 182.594l0 634.813c0 101.149 81.445 182.594 182.594 182.594l344.063 0l0 -390.938l-103.375 0l0 -140.75l103.375 0l0 -120.25c0 -94.475 61.079 -181.219 201.781 -181.219 56.968 0 99.094 5.469 99.094 5.469l-3.313 131.438s-42.963 -.406 -89.844 -.406c-50.739 0 -58.875 23.378 -58.875 62.188l0 102.781l152.75 0l-6.656 140.75l-146.094 0l0 390.938l141.906 0c101.149 0 182.594 -81.445 182.594 -182.594l0 -634.813c0 -101.149 -81.445 -182.594 -182.594 -182.594l-634.813 0z"/></svg>