<svg xmlns="http://www.w3.org/2000/svg" width="1000" height="1000" version="1"><path d="M195.844 .406c-107.697 0 -195.844 88.116 -195.844 195.813l0 607.719c0 107.697 88.147 195.813 195.844 195.813l607.719 0c107.697 0 195.813 -88.116 195.813 -195.813l0 -607.719c0 -107.697 -88.115 -195.813 -195.813 -195.813l-607.719 0zm478.156 137.75c34.547 -.061 66.298 5.91 93.031 9.813 58.344 15.475 81.624 39.211 80.75 81l2.156 66.625c-9.288 60.597 -35.137 63.214 -60.156 68.75 9.294 7.14 18.308 3.202 23.625 36.531l0 81.625c-18.391 43.405 -44.597 47.752 -70.906 51.563l-32.219 -2.125 -2.156 272.844c-4.249 50.34 -34.629 52.779 -62.313 60.156l-122.469 0c-37.405 -.76 -57.282 -25.588 -62.281 -70.906 -14.226 55.748 -40.966 80.24 -79.5 75.219l-105.281 -2.156c-70.323 -7.619 -64.533 -42.112 -68.75 -73.063l-2.156 -262.094c-29.845 -9.898 -57.836 -24.463 -55.875 -113.875 2.049 -78.947 30.275 -86.846 60.156 -90.25 8.319 -102.12 62.419 -173.742 204.125 -186.938 62.655 -4.644 107.727 8.325 150.406 23.656 37.933 -20.217 75.266 -26.314 109.813 -26.375zm-243.906 63.938c-13.101 .147 -22.342 2.083 -36.719 1.094 -116.673 14.624 -111.939 108.461 -114.594 162.906l1.531 22.813 -59.25 -3.063 1.5 83.563l54.719 0l-3.063 331.219l112.438 0l0 -331.219l145.844 -3.031l0 334.25l112.438 3.031 -1.531 -337.281l101.781 0l0 -74.438l-101.781 0c3.666 -50.353 -13.898 -118.586 62.281 -107.875 27.387 3.484 53.56 8.814 72.938 24.313l1.531 -83.563c-37.477 -16.034 -86.967 -22.916 -140.844 -15.75 -123.418 16.424 -103.413 111.409 -106.813 185.906l-141.281 -1.531l0 -56.188c3.541 -29.141 8.712 -57.307 63.813 -54.719 17.805 -2.411 39.98 7.839 65.313 16.719l-1.5 -79c-48.684 -15.605 -71.906 -18.345 -88.75 -18.156z"/></svg>