<svg width="924.464" height="1000" xmlns="http://www.w3.org/2000/svg"><path d="M526.961 0c-21.136 0 -39.171 8.011 -54.113 24.045 -14.939 16.037 -22.39 35.359 -22.39 57.954 0 21.866 7.448 40.798 22.39 56.831 14.942 16.037 32.978 24.073 54.113 24.073 20.409 0 38.08 -8.036 53.022 -24.073 14.942 -16.033 22.419 -34.965 22.419 -56.831 0 -22.596 -7.476 -41.917 -22.419 -57.954 -14.939 -16.033 -32.613 -24.045 -53.022 -24.045zm163.903 156.345c2.183 12.391 3.278 28.772 3.278 49.181l0 42.622l-53.55 0l0 106.041c15.304 -2.186 27.684 -3.246 37.159 -3.246l16.395 1.063l0 2.186l-1.091 0l0 195.69c0 61.228 7.678 106.058 22.982 134.486 20.409 37.896 57.21 56.831 110.413 56.831 37.899 0 70.331 -7.274 97.299 -21.859l0 -109.322c-18.227 12.394 -38.64 18.578 -61.232 18.578 -32.067 0 -48.086 -24.42 -48.086 -73.254l0 -203.34l46.995 0c8.748 0 18.046 .365 27.886 1.091 9.84 .73 16.561 1.091 20.204 1.091l0 -106.041l-95.081 0l0 -44.809c0 -17.49 1.095 -33.144 3.278 -46.995l-126.836 0l-.011 .004zm-500.638 86.34c-49.56 0 -92.183 16.413 -127.899 49.209 -37.166 34.983 -55.768 78.7 -55.768 131.177 0 34.983 10.194 67.784 30.6 98.391 18.22 28.421 39.005 46.658 62.327 54.677l0 2.186c-23.322 10.194 -34.972 35.72 -34.972 76.532 0 31.344 12.38 54.641 37.159 69.945l0 2.186c-67.776 22.592 -101.668 64.495 -101.668 125.713 0 53.21 22.599 92.222 67.791 117 35.706 19.68 81.252 29.509 136.641 29.509 134.83 0 202.249 -56.487 202.249 -169.459 0 -70.693 -52.119 -114.056 -156.345 -130.086 -24.048 -3.643 -42.254 -12.377 -54.645 -26.228 -9.475 -9.471 -14.209 -18.971 -14.209 -28.446 0 -26.965 14.57 -42.619 43.714 -46.995 44.458 -6.552 80.727 -27.145 108.79 -61.763 28.059 -34.622 42.091 -75.26 42.091 -121.904 0 -14.577 -2.913 -30.235 -8.741 -46.995 18.953 -4.376 33.509 -8.38 43.714 -12.022l0 -112.631c-45.921 17.493 -86.361 26.259 -121.341 26.259 -30.614 -17.49 -63.772 -26.259 -99.486 -26.259l0 .004zm274.44 5.464c1.456 13.117 2.186 36.819 2.186 71.068l0 340.012c0 34.987 -.73 59.747 -2.186 74.317l123.527 0c-1.46 -16.76 -2.186 -43.732 -2.186 -80.904l0 -335.612c0 -32.067 .726 -55.035 2.186 -68.882l-123.527 0zm-270.068 95.113c21.866 0 38.976 8.408 51.367 25.168 10.201 15.311 15.3 33.509 15.3 54.645 0 51.017 -22.209 76.532 -66.667 76.532 -45.911 0 -68.882 -25.15 -68.882 -75.441 0 -53.929 22.971 -80.904 68.882 -80.904zm7.65 444.962c61.225 0 91.836 18.567 91.836 55.736 0 39.359 -28.063 59.046 -84.182 59.046 -64.134 0 -96.204 -18.967 -96.204 -56.863 0 -38.629 29.519 -57.922 88.554 -57.922l-.004 .004z"/></svg>
