<svg xmlns="http://www.w3.org/2000/svg" width="1000.658" height="1000"><path d="M92.094 0c-50.868 0 -92.094 26.304 -92.094 92.094l0 78.969c3.632 -3.5 7.837 -7.39 11.719 -10.719 82.803 -68.539 173.641 -79.998 249.813 -81.406l307.031 0l-81.563 65.813l-89 0c35.658 30.921 88.844 86.196 88.844 184.656 0 107.855 -56.831 158.961 -117.844 207 -18.882 18.908 -40.656 39.382 -40.656 71.5 0 32.039 21.771 49.543 37.719 62.688l52.344 40.719c63.868 53.961 147.375 116.444 147.375 217.063 0 26.947 -2.924 51.151 -11.688 71.625l353.813 0c50.869 0 92.094 -28.069 92.094 -78.938l0 -580.563l-184.219 0l0 185.813l-78.938 0l0 -185.813l-184.219 0l0 -77.344l184.219 0l0 -184.219l78.938 0l0 184.219l184.219 0l0 -171.063c0 -65.789 -41.225 -92.094 -92.094 -92.094l-815.813 0zm907.906 263.156l0 77.344l.656 0l0 -77.344l-.656 0zm-812.937 -134.906c-37.803 0 -78.429 18.936 -101.719 48.094 -24.697 30.632 -28.5 69.919 -28.5 107.906 0 97.618 51.285 242.063 176.219 242.063 36.289 0 73.512 -9.219 97.406 -36.469 27.263 -31.224 37.938 -72.331 37.938 -93.344 0 -104.987 -60.844 -268.25 -181.344 -268.25zm-187.063 398.063l0 258.219c65.789 -52.632 179.88 -43.174 235.406 -46.938 -20.368 -26.276 -43.594 -53.949 -43.594 -99.094 0 -24.789 7.281 -39.393 14.531 -56.906 -16.013 1.434 -31.934 2.938 -46.5 2.938 -65.908 0 -120.028 -25.114 -159.844 -58.219zm251.438 252.093c-13.132 0 -91.607 2.941 -152.594 23.375 -20.987 7.671 -68.87 25.875 -98.844 66.625l0 52.656c0 50.868 41.225 78.938 92.094 78.938l376.969 0c2.171 -7.395 6.252 -11.878 6.094 -26.313 -.816 -74.487 -79.959 -115.018 -190.406 -193.781 -11.579 -1.5 -18.865 -1.5 -33.313 -1.5z"/></svg>