<svg width="1000" height="1000" xmlns="http://www.w3.org/2000/svg"><title>Layer 1</title><path d="M749.359 1.095h-498.716c-137.4 0 -249.186 111.41 -249.186 248.348v501.11c0 136.929 111.786 248.351 249.186 248.351h498.716c137.4 0 249.183 -111.423 249.183 -248.351v-501.111c0 -136.937 -111.783 -248.346 -249.183 -248.346zm156.895 749.456c0 86.214 -70.38 156.368 -156.894 156.368h-498.716c-86.514 0 -156.895 -70.154 -156.895 -156.368v-323.648h197.146c-14.393 30.443 -22.488 64.404 -22.488 100.218 0 130.083 106.18 235.897 236.696 235.897 130.513 0 236.695 -105.814 236.695 -235.897 0 -35.814 -8.094 -69.776 -22.49 -100.218h186.945v323.648zm-499.409 -223.428c0 -53.99 44.077 -97.923 98.259 -97.923 54.184 0 98.258 43.934 98.258 97.923 0 54.001 -44.074 97.926 -98.258 97.926 -54.181 -.001 -98.259 -43.925 -98.259 -97.926zm499.409 -192.199h-264.174c-38.701 -27.468 -85.954 -43.695 -136.976 -43.695 -51.022 0 -98.281 16.227 -136.973 43.695h-274.382v-85.481c0 -86.223 70.381 -156.367 156.895 -156.367h498.716c86.514 0 156.894 70.144 156.894 156.367v85.481h.001zm-100.006 -186.063h-85.55c-15.232 0 -27.687 12.418 -27.687 27.594v85.266c0 15.175 12.454 27.594 27.687 27.594h85.55c15.231 0 27.687 -12.419 27.687 -27.594v-85.266c0 -15.176 -12.455 -27.594 -27.687 -27.594z"/></svg>