<svg width="1000" height="1000" xmlns="http://www.w3.org/2000/svg"><title>Layer 1</title><path d="M603.575 510.854c0 -54.044 -44.172 -98.02 -98.463 -98.02 -54.285 0 -98.455 43.977 -98.455 98.02 0 54.058 44.17 98.026 98.455 98.026 54.291 0 98.463 -43.968 98.463 -98.026zm146.28 -510.252h-499.713c-137.677 0 -249.686 111.522 -249.686 248.597v69.266h367.413c38.769 -27.496 86.118 -43.739 137.243 -43.739 51.124 0 98.48 16.243 137.251 43.739h357.177v-69.266c0 -137.076 -112.009 -248.597 -249.685 -248.597zm101.12 236.435c0 15.191 -12.48 27.622 -27.743 27.622h-85.72c-15.261 0 -27.743 -12.431 -27.743 -27.622v-85.352c0 -15.19 12.481 -27.622 27.743 -27.622h85.72c15.262 0 27.743 12.43 27.743 27.622v85.352zm-108.688 273.817c0 130.215 -106.402 236.133 -237.176 236.133 -130.778 0 -237.17 -105.918 -237.17 -236.133 0 -35.848 8.11 -69.845 22.532 -100.318h-290.017v340.263c0 137.085 112.009 248.597 249.686 248.597h499.714c137.676 0 249.685 -111.513 249.685 -248.597v-340.263h-279.786c14.422 30.473 22.532 64.47 22.532 100.318z"/></svg>