<svg xmlns="http://www.w3.org/2000/svg" height="1000" width="667.1881873075539" version="1"><path d="M224.968 0c-4.449 -.03 -8.858 .158 -13.121 .719l0 -.031c-18.133 2.383 -36.574 2.121 -54.798 4.937 -34.916 5.391 -68.366 16.252 -101.066 29.336 -11.907 4.762 -23.639 10.067 -35.178 15.652 -4.294 2.078 -10.856 3.726 -14.309 7.061 -1.796 1.738 -1.594 5.83 -1.812 8.154 -.607 6.539 -1.429 13.053 -2.062 19.589 -2.442 25.217 -4.174 51.214 -.563 76.417 1.169 8.144 3.706 22.901 13.715 24.462 15.392 2.408 27.343 -16.533 34.896 -26.992 17.642 -24.425 37.734 -47.157 66.669 -58.078 34.057 -12.857 73.039 -15.899 109.063 -18.37 101.1 -6.929 211.602 11.542 286.076 86.007 10.591 10.59 20.622 21.824 29.148 34.178 33.346 48.282 50.96 103.199 59.452 160.861 3.993 27.074 6.738 54.455 .563 81.415 -10.717 46.775 -38.817 87.493 -71.105 122.154 -22.1 23.723 -46.972 45.178 -72.855 64.67 -14.45 10.879 -30.651 20.097 -44.238 31.991 -15.648 13.698 -28.66 30.833 -38.552 49.111 -26.622 49.213 -33.761 108.429 -25.931 163.36 1.605 11.26 3.041 22.573 5.592 33.679 .763 3.322 .913 9.032 3.062 11.747 4.022 5.078 14.973 7.888 21.119 8.186 6.41 .31 10.675 -4.625 12.247 -10.372 2.689 -9.848 1.09 -20.741 -.469 -30.647 -3.192 -20.291 -6.122 -40.73 -5.218 -61.327 1.668 -38.032 16.376 -73.468 42.738 -101.035 26.809 -28.034 63.037 -44.216 93.505 -67.7 61.404 -47.328 116.4 -111.175 137.524 -187.167 7.55 -27.173 10.04 -55.97 6.592 -83.945 -4.357 -35.385 -17.3 -70.741 -29.492 -104.065 -37.155 -101.554 -100.909 -198.126 -202.131 -244.588 -40.167 -18.442 -82.157 -26.839 -125.653 -32.897 -20.407 -2.84 -40.799 -4.598 -61.327 -5.498 -7.135 -.312 -14.673 -.919 -22.088 -.969zm-52.641 421.507c-10.102 .082 -20.142 2.657 -28.867 7.967 -12.828 7.813 -19.97 21.456 -23.993 35.459 -7.986 27.806 -4.304 59.519 1.281 87.445 1.785 8.931 3.618 17.882 6.123 26.649 .905 3.163 1.317 7.773 3.374 10.403 3.59 4.6 12.371 5.934 17.745 5.03 16.125 -2.71 12.14 -29.262 11.591 -40.552 -1.287 -26.445 -9.08 -52.112 -1.531 -78.416 3.197 -11.13 9.346 -23.657 20.588 -28.492 10.147 -4.369 20.412 .961 24.431 10.872 6.506 16.049 4.855 34.6 8.935 51.299 1.387 5.676 2.938 11.298 5.498 16.589 .742 1.529 1.756 4.692 3.905 4.499 5.225 -.478 12.64 -9.2 16.558 -12.435 12.652 -10.456 25.671 -21.629 40.239 -29.367 6.854 -3.64 18.118 -9.534 25.118 -3.343 1.785 1.58 3.221 3.438 4.499 5.436 8.229 12.889 .07 22.953 -5.28 35.209 -6.925 15.864 -14.022 31.561 -24.056 45.737 -8.627 12.191 -20.413 22.892 -27.305 36.209 -4.437 8.575 -6.959 17.972 -5.124 27.648 1.488 7.825 7.546 12.55 15.527 10.716 5.974 -1.374 10.027 -6.521 13.434 -11.247 6.07 -8.429 11.712 -17.155 17.745 -25.618 11.673 -16.366 25.455 -31.674 35.271 -49.267 11.832 -21.21 17.54 -45.197 17.526 -69.356 -.008 -19.742 -7.182 -49.94 -30.18 -54.079 -4.328 -.775 -9.26 -.344 -13.559 .406 -5.342 .93 -10.709 2.667 -15.59 5.03 -13.075 6.325 -24.4 15.783 -34.115 26.524 -6.052 6.683 -11.474 15.061 -18.651 20.557 -.004 -14.574 -2.719 -30.456 -11.185 -42.676 -11.147 -16.084 -30.669 -24.993 -49.955 -24.837zm-115.437 236.34c-1.113 .04 -2.252 .143 -3.437 .313 -19.704 2.835 -25.449 18.659 -21.807 36.49 4.668 22.831 22.634 40.24 40.427 53.954 45.587 35.138 104.458 54.124 161.861 51.611 22.401 -.981 46.83 -4.679 67.387 -14.184 11.023 -5.094 22.541 -23.449 7.529 -31.304 -2.057 -1.077 -4.738 -1.717 -7.029 -2.093 -6.556 -1.073 -13.906 1.715 -20.119 3.499 -10.956 3.146 -21.899 6.344 -33.179 8.154 -33.697 5.412 -70.136 -2.279 -98.036 -22.244 -22.566 -16.144 -40.795 -37.431 -58.015 -58.952 -9.882 -12.341 -18.889 -25.84 -35.584 -25.243zm-20.713 111.25c-2.983 .031 -5.966 .344 -8.342 .656 -5.019 .662 -10.76 .47 -15.059 3.624 -8.965 6.581 .906 19.837 5.623 25.837 13.678 17.38 31.669 31.802 49.642 44.519 50.108 35.443 106.88 55.893 167.922 60.077 17.55 1.203 35.44 -.046 52.798 -2.937 6.347 -1.06 14.222 -1.541 20.088 -4.28 16.598 -7.763 11.815 -39.109 -2.999 -46.081 -6.469 -3.041 -16.866 .963 -23.649 1.905 -16.043 2.237 -32.133 2.455 -48.267 2.062 -42.285 -1.035 -87.309 -14.063 -124.153 -34.615 -14.484 -8.085 -27.803 -17.921 -40.239 -28.867 -7.562 -6.656 -15.311 -17.537 -25.118 -20.9 -2.283 -.784 -5.265 -1.031 -8.248 -1zm3.093 94.599c-.458 .001 -.912 .011 -1.375 .063 -7.147 .8 -12.544 4.538 -17.245 9.841 -3.239 3.653 -6.293 6.951 -8.154 11.56 -10.256 25.37 17.076 49.314 35.959 61.296 21.014 13.329 43.966 23.199 67.356 31.522 52.755 18.776 114.637 30.813 169.422 14.027 16.285 -4.985 32.367 -14.11 44.207 -26.431 6.669 -6.941 11.265 -17.456 -.969 -21.9 -7.248 -2.631 -16.045 4.07 -22.619 6.717 -15.519 6.258 -31.609 11.013 -48.267 13.027 -21.94 2.66 -41.712 -2.175 -62.857 -7.467 -18.062 -4.516 -36.304 -9.017 -53.766 -15.527 -14.898 -5.554 -29.702 -12.145 -42.738 -21.369 -3.896 -2.756 -8.555 -5.221 -11.747 -8.811 -10.436 -11.742 -18.302 -25.479 -29.492 -36.646 -4.533 -4.525 -10.845 -9.925 -17.714 -9.903z"/></svg>