<svg xmlns="http://www.w3.org/2000/svg" width="994.95" height="1000" version="1"><path d="M438.782 715.968l-36.475 -99.147s-59.271 66.104 -148.153 66.104c-78.648 0 -134.487 -68.383 -134.487 -177.795 0 -140.18 70.653 -190.326 140.184 -190.326 100.286 0 132.194 64.96 159.553 148.161l36.475 113.97c36.462 110.543 104.845 199.438 302.008 199.438 141.333 0 237.061 -43.304 237.061 -157.269 0 -92.314 -52.433 -140.184 -150.449 -162.98l-72.937 -15.954c-50.141 -11.396 -64.955 -31.912 -64.955 -66.104 0 -38.75 30.764 -61.545 80.918 -61.545 54.704 0 84.332 20.517 88.895 69.522l113.966 -13.679c-9.117 -102.57 -79.774 -144.738 -196.023 -144.738 -102.566 0 -202.861 38.75 -202.861 162.976 0 77.499 37.61 126.51 132.194 149.301l77.508 18.229c58.122 13.679 77.491 37.61 77.491 70.666 0 42.16 -41.025 59.258 -118.524 59.258 -115.11 0 -162.967 -60.402 -190.325 -143.603l-37.61 -113.961c-47.858 -148.161 -124.226 -202.865 -275.806 -202.865 -167.53 0 -256.429 105.989 -256.429 286.058 0 173.236 88.9 266.685 248.461 266.685 128.767 0 190.321 -60.402 190.321 -60.402z"/></svg>