<?xml version="1.0" encoding="UTF-8" standalone="no"?>
<svg
   xmlns:dc="http://purl.org/dc/elements/1.1/"
   xmlns:cc="http://creativecommons.org/ns#"
   xmlns:rdf="http://www.w3.org/1999/02/22-rdf-syntax-ns#"
   xmlns:svg="http://www.w3.org/2000/svg"
   xmlns="http://www.w3.org/2000/svg"
   xmlns:sodipodi="http://sodipodi.sourceforge.net/DTD/sodipodi-0.dtd"
   xmlns:inkscape="http://www.inkscape.org/namespaces/inkscape"
   width="1000px"
   height="1000px"
   viewBox="0 0 1000 1000"
   version="1.1"
   id="svg2"
   inkscape:version="0.48.3.1 r9886"
   sodipodi:docname="mastercard.svg">
  <metadata
     id="metadata15">
    <rdf:RDF>
      <cc:Work
         rdf:about="">
        <dc:format>image/svg+xml</dc:format>
        <dc:type
           rdf:resource="http://purl.org/dc/dcmitype/StillImage" />
      </cc:Work>
    </rdf:RDF>
  </metadata>
  <sodipodi:namedview
     pagecolor="#ffffff"
     bordercolor="#666666"
     borderopacity="1"
     objecttolerance="10"
     gridtolerance="10"
     guidetolerance="10"
     inkscape:pageopacity="0"
     inkscape:pageshadow="2"
     inkscape:window-width="1192"
     inkscape:window-height="820"
     id="namedview13"
     showgrid="false"
     inkscape:zoom="0.236"
     inkscape:cx="500"
     inkscape:cy="500"
     inkscape:window-x="65"
     inkscape:window-y="24"
     inkscape:window-maximized="0"
     inkscape:current-layer="svg2" />
  <title
     id="title4">mastercard</title>
  <description
     id="description6">Created with Sketch (http://www.bohemiancoding.com/sketch)</description>
  <defs
     id="defs8" />
  <path

     d="M 46.53125 195 C 20.840831 195 4.7369516e-15 215.8296 0 241.53125 L 0 776.46875 C 0 802.1661 20.843556 823 46.53125 823 L 953.46875 823 C 979.15917 823 1000 802.17039 1000 776.46875 L 1000 241.53125 C 1000 215.8339 979.15644 195 953.46875 195 L 46.53125 195 z M 327.90625 270.59375 C 384.98741 270.59375 437.41083 290.45257 478.5625 323.625 C 443.93995 354.60383 418.1159 395.30426 405.375 441.4375 L 425.34375 441.4375 C 437.10423 403.38049 458.46667 369.49634 486.625 342.625 C 514.78333 369.49635 536.14577 403.38049 547.90625 441.4375 L 568.1875 441.4375 C 555.27004 395.54862 529.40997 355.08997 494.8125 324.3125 C 536.04375 290.71952 588.67328 270.59375 646 270.59375 C 778.29147 270.59375 885.53125 377.84518 885.53125 510.15625 C 885.53125 642.46732 778.29147 749.71875 646 749.71875 C 587.7198 749.71875 534.27988 728.91727 492.75 694.3125 C 529.90019 661.99242 557.28756 618.66527 569.8125 569.375 L 550.28125 569.375 C 539.15968 610.74483 516.77582 647.53971 486.625 676.3125 C 456.47416 647.53972 434.12158 610.74484 423 569.375 L 404.40625 569.375 C 417.0038 617.95148 444.03427 660.67184 480.625 692.6875 C 439.17053 726.86369 385.94066 747.40625 327.90625 747.40625 C 195.61478 747.40625 88.375 640.66878 88.375 509 C 88.375 377.33122 195.61478 270.59375 327.90625 270.59375 z M 628.03125 439 C 599.24964 439 571.25 464.16184 571.25 511.40625 C 571.25 542.73389 586.37353 563.40625 616.125 563.40625 C 624.53671 563.40925 637.9375 559.96875 637.9375 559.96875 L 642.375 532.59375 C 642.375 532.59375 630.14585 538.78125 621.75 538.78125 C 604.06508 538.78125 596.96875 525.17994 596.96875 510.5625 C 596.96875 480.90961 612.18532 464.59375 629.125 464.59375 C 641.82844 464.59375 652.03125 471.78125 652.03125 471.78125 L 656.09375 445.15625 C 656.09375 445.15625 640.99103 439 628.03125 439 z M 870 441.3125 L 844.96875 441.375 L 839.59375 474.3125 C 839.59375 474.3125 830.18319 461.53125 815.46875 461.53125 C 792.58846 461.53125 773.53125 488.71098 773.53125 519.96875 C 773.53125 540.146 783.67426 559.9375 804.46875 559.9375 C 819.42671 559.9375 827.71875 549.65625 827.71875 549.65625 L 826.625 558.4375 L 850.9375 558.4375 L 870 441.3125 z M 153.0625 441.65625 L 133.125 559.0625 L 157.15625 559.0625 L 172.34375 470.53125 L 174.59375 559.0625 L 191.78125 559.0625 L 223.84375 470.53125 L 209.625 559.0625 L 235.15625 559.0625 L 254.84375 441.65625 L 215.34375 441.65625 L 190.75 513.6875 L 189.46875 441.65625 L 153.0625 441.65625 z M 404.125 449.28125 C 403.58247 449.82589 389.59375 530.48793 389.59375 540.3125 C 389.59375 554.8582 397.74735 561.35474 409.21875 561.25 C 417.4394 561.18054 423.80532 559.11495 426.75 558.25 C 427.05843 558.16686 427.65625 558 427.65625 558 L 430.75 537 C 429.06764 537 426.58942 537.71875 424.40625 537.71875 C 415.84052 537.71875 414.89237 533.16172 415.4375 529.78125 L 422.34375 486.9375 L 435.375 486.9375 L 438.53125 463.71875 L 426.25 463.71875 L 428.75 449.28125 L 404.125 449.28125 z M 694.59375 461.09375 C 677.82079 461.09375 664.96875 466.625 664.96875 466.625 L 661.40625 488.1875 C 661.40625 488.1875 672.02072 483.78125 688.0625 483.78125 C 697.17108 483.78125 703.84375 484.82269 703.84375 492.40625 C 703.84375 497.01216 703.03125 498.71875 703.03125 498.71875 C 703.03125 498.71875 695.82918 498.09375 692.5 498.09375 C 671.34777 498.09375 649.125 507.36482 649.125 535.25 C 649.125 557.2224 663.71402 562.25 672.75 562.25 C 690.00781 562.25 697.44964 550.78453 697.84375 550.75 L 697.03125 560.3125 L 718.5625 560.3125 L 728.1875 491.3125 C 728.1905 462.03546 703.25377 461.09375 694.59375 461.09375 z M 290.6875 461.21875 C 273.85284 461.21875 260.9375 466.75 260.9375 466.75 L 257.375 488.3125 C 257.375 488.3125 268.02421 483.90625 284.125 483.90625 C 293.26709 483.90625 299.96875 484.95191 299.96875 492.53125 C 299.96875 497.13461 299.15625 498.84375 299.15625 498.84375 C 299.15625 498.84375 291.93258 498.21875 288.59375 498.21875 C 267.36111 498.21875 245.0625 507.47405 245.0625 535.34375 C 245.0625 557.30394 259.68078 562.34375 268.75 562.34375 C 286.0713 562.34375 293.53934 550.87826 293.9375 550.84375 L 293.125 560.40625 L 314.75 560.40625 L 324.40625 491.4375 C 324.40625 462.17672 299.37938 461.21875 290.6875 461.21875 z M 367.0625 461.21875 C 348.98476 461.21875 330.625 468.51645 330.625 493.4375 C 330.625 521.6763 361.21875 518.82295 361.21875 530.71875 C 361.21875 538.65887 352.6809 539.3125 346.09375 539.3125 C 334.69382 539.3125 324.44252 535.37426 324.40625 535.5625 L 321.125 557.125 C 321.71559 557.30801 328.06283 560.15625 348.5625 560.15625 C 354.0669 560.15625 385.53125 561.55353 385.53125 528.78125 C 385.53125 498.14237 356.40625 504.21514 356.40625 491.90625 C 356.40625 485.77795 361.13498 483.84375 369.8125 483.84375 C 373.25761 483.84375 386.53125 484.9375 386.53125 484.9375 L 389.59375 463.15625 C 389.59375 463.15925 381.02943 461.21875 367.0625 461.21875 z M 480.0625 461.21875 C 454.94147 461.22375 436.34375 488.23627 436.34375 518.75 C 436.34375 553.96851 459.64628 562.34375 479.5 562.34375 C 497.82569 562.34375 505.90625 558.25 505.90625 558.25 L 510.28125 534.21875 C 510.28125 534.21875 496.33965 540.34375 483.75 540.34375 C 456.92352 540.34375 461.625 520.375 461.625 520.375 L 512.40625 520.375 C 512.40625 520.375 515.6875 504.23661 515.6875 497.65625 C 515.6875 481.23574 507.49278 461.21875 480.0625 461.21875 z M 571.03125 462.25 C 559.71467 462.25 551.3125 477.46875 551.3125 477.46875 L 553.5625 463.5 L 530.0625 463.5 L 514.28125 559.9375 L 540.25 559.9375 C 547.6051 518.75591 548.94792 485.3167 566.5 491.4375 C 569.57222 475.49862 572.55279 469.33956 575.90625 462.59375 C 575.90625 462.59375 574.33114 462.25 571.03125 462.25 z M 781.4375 462.25 C 770.12092 462.25 761.71875 477.46875 761.71875 477.46875 L 763.96875 463.5 L 740.46875 463.5 L 724.6875 559.9375 L 750.625 559.9375 C 757.98279 518.75591 759.35952 485.3167 776.90625 491.4375 C 779.98382 475.49862 782.96172 469.33956 786.3125 462.59375 C 786.3125 462.59375 784.73739 462.25 781.4375 462.25 z M 479.9375 482.96875 C 494.20426 482.96875 491.59375 499.07315 491.59375 500.375 L 463.5 500.375 C 463.5 498.71273 466.15846 482.96875 479.9375 482.96875 z M 819.40625 484.84375 C 828.48716 484.84075 833.15625 490.97533 833.15625 505.40625 C 833.15625 518.4997 826.55252 536 812.875 536 C 803.79676 536 799.53125 528.50336 799.53125 516.75 C 799.53125 497.53155 808.32251 484.84375 819.40625 484.84375 z M 694.625 517.65625 C 698.32936 517.66067 699.09476 518.02064 699.71875 518.1875 C 699.62947 518.17261 699.61163 518.19046 699.96875 518.25 C 700.43796 522.54519 697.37387 542.6875 682.5625 542.6875 C 674.92482 542.6875 672.96875 536.61463 672.96875 533.03125 C 672.96875 526.0431 676.60737 517.65625 694.625 517.65625 z M 290.71875 517.75 C 294.92631 517.755 295.38464 518.22473 296.09375 518.34375 C 296.56474 522.63656 293.48753 542.75 278.625 542.75 C 270.95824 542.75 268.96875 536.70639 268.96875 533.125 C 268.96875 526.14073 272.62991 517.75 290.71875 517.75 z "
     id="path3025" />
</svg>
