<svg width="1000" height="1000" xmlns="http://www.w3.org/2000/svg" xmlns:sketch="http://www.bohemiancoding.com/sketch/ns"><title>mastercard</title><path d="M569.804 569.361c-12.525 49.29 -39.89 92.631 -77.04 124.951 41.53 34.605 94.949 55.422 153.229 55.422 132.291 0 239.535 -107.259 239.535 -239.57 0 -132.311 -107.243 -239.57 -239.535 -239.57 -57.327 0 -109.95 20.141 -151.181 53.734 34.597 30.777 60.457 71.22 73.375 117.108h-20.271c-11.76 -38.057 -33.129 -71.924 -61.287 -98.795 -28.158 26.871 -49.527 60.738 -61.287 98.795h-19.951c12.741 -46.133 38.546 -86.819 73.168 -117.798 -41.152 -33.172 -93.57 -53.045 -150.651 -53.045 -132.291 0 -239.535 106.739 -239.535 238.407 0 131.669 107.243 238.407 239.535 238.407 58.034 0 111.248 -20.541 152.703 -54.718 -36.591 -32.016 -63.618 -74.752 -76.215 -123.329h18.595c11.122 41.37 33.488 78.163 63.639 106.936 30.151 -28.773 52.517 -65.566 63.639 -106.936h19.537zm-569.804 -327.832v534.942c0 25.697 20.829 46.529 46.517 46.529h906.967c25.69 0 46.517 -20.828 46.517 -46.529v-534.942c0 -25.697 -20.829 -46.529 -46.517 -46.529h-906.967c-25.69 0 -46.517 20.828 -46.517 46.529zm157.163 317.541l15.187 -88.525 2.229 88.525h17.189l32.064 -88.525 -14.203 88.525h25.54l19.669 -117.414h-39.495l-24.596 72.041 -1.28 -72.041h-36.406l-19.952 117.414h24.054zm133.52 -97.845c-16.835 0 -29.74 5.519 -29.74 5.519l-3.563 21.575s10.651 -4.415 26.752 -4.415c9.142 0 15.83 1.049 15.83 8.628 0 4.603 -.82 6.302 -.82 6.302s-7.211 -.616 -10.55 -.616c-21.233 0 -43.537 9.244 -43.537 37.114 0 21.96 14.633 26.999 23.702 26.999 17.321 0 24.787 -11.466 25.186 -11.5l-.809 9.57h21.618l9.644 -68.973c0 -29.261 -25.022 -30.203 -33.714 -30.203zm5.41 57.122c.471 4.293 -2.604 24.415 -17.466 24.415 -7.667 0 -9.661 -6.054 -9.661 -9.635 0 -6.984 3.671 -15.37 21.76 -15.37 4.208 .005 4.658 .471 5.367 .59 0 0 -.709 -.119 0 0zm52.463 41.801c5.504 0 36.971 1.412 36.971 -31.36 0 -30.639 -29.128 -24.586 -29.128 -36.895 0 -6.128 4.748 -8.058 13.426 -8.058 3.445 0 16.7 1.106 16.7 1.106l3.082 -21.778c0 .003 -8.579 -1.937 -22.546 -1.937 -18.078 0 -36.427 7.284 -36.427 32.205 0 28.239 30.597 25.405 30.597 37.301 0 7.94 -8.548 8.586 -15.135 8.586 -11.4 0 -21.665 -3.948 -21.702 -3.76l-3.259 21.559c.591 .183 6.921 3.033 27.421 3.033 0 0 -20.5 0 0 0zm79.104 -2.142l3.08 -20.998c-1.682 0 -4.158 .723 -6.341 .723 -8.566 0 -9.51 -4.572 -8.965 -7.952l6.92 -42.844h13.018l3.143 -23.226h-12.275l2.499 -14.444h-24.607c-.543 .545 -14.526 81.233 -14.526 91.058 0 14.546 8.135 21.024 19.607 20.919 8.983 -.076 15.979 -2.571 18.446 -3.236 0 0 -2.467 .665 0 0zm8.682 -39.262c0 35.219 23.304 43.587 43.158 43.587 18.326 0 26.39 -4.087 26.39 -4.087l4.401 -24.036s-13.94 6.126 -26.53 6.126c-26.826 0 -22.129 -19.952 -22.129 -19.952h50.772s3.278 -16.148 3.278 -22.729c0 -16.421 -8.194 -36.428 -35.624 -36.428 -25.121 .005 -43.717 27.006 -43.717 57.519 0 0 0 -30.514 0 0zm43.603 -35.776c14.267 0 11.635 16.093 11.635 17.395h-28.067c0 -1.662 2.653 -17.395 16.432 -17.395 0 0 -13.779 0 0 0zm60.29 76.962c7.355 -41.182 8.718 -74.621 26.271 -68.5 3.072 -15.939 6.037 -22.105 9.391 -28.85 0 0 -1.572 -.324 -4.872 -.324 -11.317 0 -19.7 15.222 -19.7 15.222l2.253 -13.979h-23.528l-15.763 96.432h25.949zm97.692 .048l4.461 -27.384s-12.233 6.18 -20.629 6.18c-17.685 0 -24.778 -13.606 -24.778 -28.223 0 -29.653 15.217 -45.966 32.156 -45.966 12.703 0 22.899 7.186 22.899 7.186l4.07 -26.607s-15.119 -6.164 -28.079 -6.164c-28.782 0 -56.781 25.156 -56.781 72.4 0 31.328 15.119 52.018 44.87 52.018 8.412 .003 21.81 -3.44 21.81 -3.44zm56.662 -98.886c-16.773 0 -29.631 5.522 -29.631 5.522l-3.547 21.587s10.612 -4.417 26.654 -4.417c9.109 0 15.767 1.049 15.767 8.633 0 4.606 -.812 6.306 -.812 6.306s-7.185 -.616 -10.514 -.616c-21.152 0 -43.375 9.249 -43.375 37.134 0 21.972 14.577 27.014 23.613 27.014 17.258 0 24.697 -11.472 25.091 -11.507l-.801 9.576h21.539l9.606 -69.012c.003 -29.277 -24.93 -30.22 -33.59 -30.22zm5.392 57.154c.469 4.295 -2.596 24.429 -17.408 24.429 -7.638 0 -9.619 -6.057 -9.619 -9.641 0 -6.988 3.657 -15.378 21.675 -15.378 4.192 .005 4.637 .471 5.352 .59 0 0 -.714 -.119 0 0zm50.657 41.683c7.358 -41.182 8.721 -74.621 26.268 -68.5 3.078 -15.939 6.045 -22.105 9.396 -28.85 0 0 -1.572 -.324 -4.872 -.324 -11.317 0 -19.7 15.222 -19.7 15.222l2.253 -13.979h-23.528l-15.763 96.432h25.946zm94.329 -118.565l-5.387 32.96s-9.399 -12.803 -24.114 -12.803c-22.88 0 -41.952 27.204 -41.952 58.462 0 20.177 10.172 39.947 30.967 39.947 14.958 0 23.251 -10.284 23.251 -10.284l-1.098 8.783h24.288l19.077 -117.104 -25.032 .039zm-11.827 64.044c0 13.093 -6.597 30.583 -20.274 30.583 -9.078 0 -13.333 -7.489 -13.333 -19.242 0 -19.218 8.784 -31.899 19.868 -31.899 9.081 -.003 13.739 6.128 13.739 20.559 0 0 0 -14.431 0 0z" sketch:type="MSShapeGroup" fill="#1D1D1D"/></svg>