<svg xmlns="http://www.w3.org/2000/svg" width="1000" height="1000"><title>Layer 1</title><path d="M140.719 0c-77.95 0 -140.719 62.769 -140.719 140.719v718.563c0 77.95 62.769 140.719 140.719 140.719h718.563c77.95 0 140.719 -62.769 140.719 -140.719v-718.563c0 -77.95 -62.769 -140.719 -140.719 -140.719h-718.563zm381.688 102.188c113.484 0 205.75 92.304 205.75 205.781 0 113.468 -92.266 205.719 -205.75 205.719 -113.487 0 -205.813 -92.251 -205.813 -205.719 0 -113.477 92.325 -205.781 205.813 -205.781zm-2.188 120.563c-45.968 1.17 -83.031 38.984 -83.031 85.219 0 46.949 38.24 85.156 85.219 85.156 46.97 0 85.156 -38.207 85.156 -85.156 0 -46.968 -38.187 -85.219 -85.156 -85.219 -.734 0 -1.457 -.019 -2.188 0zm-168.188 297.938c10.9 .037 21.897 3.036 31.813 9.281 84.228 52.962 192.808 52.997 277.063 0 28.21 -17.765 65.391 -9.237 83.156 18.969 17.745 28.159 9.221 65.389 -18.969 83.125 -37.188 23.363 -77.579 39.921 -119.469 49.469l115.063 115.063c23.555 23.506 23.555 61.709 0 85.25 -23.567 23.55 -61.694 23.55 -85.219 0l-113.125 -113.063 -113 113.063c-11.767 11.772 -27.207 17.656 -42.625 17.656 -15.434 0 -30.822 -5.9 -42.625 -17.656 -23.551 -23.556 -23.544 -61.694 0 -85.25l115 -115.063c-41.878 -9.548 -82.286 -26.122 -119.5 -49.469 -28.134 -17.736 -36.594 -54.926 -18.844 -83.125 11.062 -17.628 29.75 -27.586 49.094 -28.219 .725 -.024 1.461 -.034 2.188 -.031z"/></svg>