<svg xmlns="http://www.w3.org/2000/svg" width="579.274" height="1000"><path d="M289.656 0c-142.336 0 -258.125 115.771 -258.125 258.094 0 142.312 115.789 258.031 258.125 258.031 142.331 0 258.063 -115.719 258.063 -258.031 0 -142.323 -115.731 -258.094 -258.063 -258.094zm0 151.219c58.909 0 106.813 47.967 106.813 106.875 0 58.883 -47.903 106.813 -106.813 106.813 -58.921 0 -106.875 -47.929 -106.875 -106.813 0 -58.908 47.954 -106.875 106.875 -106.875zm-212.812 373.687c-25.538 -.397 -50.651 12.191 -65.219 35.406 -22.263 35.367 -11.598 82.036 23.688 104.281 46.674 29.282 97.321 50.057 149.844 62.031l-144.25 144.313c-29.53 29.544 -29.505 77.393 .031 106.938 14.804 14.745 34.112 22.125 53.469 22.125 19.337 0 38.71 -7.391 53.469 -22.156l141.719 -141.781 141.844 141.781c29.505 29.536 77.349 29.536 106.906 0 29.543 -29.525 29.543 -77.425 0 -106.906l-144.313 -144.281c52.538 -11.975 103.202 -32.761 149.844 -62.063 35.356 -22.245 46.037 -68.965 23.781 -104.281 -22.281 -35.375 -68.931 -46.031 -104.313 -23.75 -105.672 66.469 -241.83 66.425 -347.469 0 -12.16 -7.659 -25.654 -11.448 -39.031 -11.656z"/></svg>