<svg xmlns="http://www.w3.org/2000/svg" width="922.943" height="995.383" version="1"><title>facebook web</title><path d="M471.906 0c-55.299 -.138 -105.734 11.429 -156.031 22.281l374.875 341.25 -5.156 -299.875c-82.072 -48.299 -151.016 -63.5 -213.688 -63.656zm-233.563 55.875c-261.428 182.693 -241.634 365.401 -235.281 548.094l413.656 -380.031 -178.375 -168.063zm517.031 54.313l2.594 555.844 142.188 -5.188c65.494 -260.744 -18.692 -419.915 -144.781 -550.656zm-566.156 411.063l-168.063 162.875c65.797 149.79 118.304 193.268 170.625 235.25l-2.563 -398.125zm87.875 204.219l-2.563 243.031c360.949 89.352 497.413 -57.599 599.781 -240.438l-597.219 -2.594z"/></svg>