<svg xmlns="http://www.w3.org/2000/svg" width="1000" height="1000"><path d="M192.906 0c-106.873 0 -192.906 86.033 -192.906 192.906l0 614.188c0 106.873 86.033 192.906 192.906 192.906l614.188 0c106.873 0 192.906 -86.033 192.906 -192.906l0 -614.188c0 -106.873 -86.033 -192.906 -192.906 -192.906l-614.188 0zm242.031 141.406l99.125 0l0 176.188l165.438 0l0 109.438l-165.438 0l0 178.75c0 40.402 2.146 66.359 6.438 77.844 4.267 11.464 12.248 20.616 23.875 27.469 15.423 9.244 33.039 13.875 52.906 13.875 35.278 0 70.392 -11.489 105.313 -34.438l0 109.938c-29.797 14.028 -56.746 23.917 -80.875 29.563 -24.156 5.645 -50.276 8.469 -78.344 8.469 -31.852 0 -60.043 -4.057 -84.531 -12.094 -24.487 -8.059 -45.358 -19.539 -62.656 -34.406 -17.299 -14.912 -29.297 -30.745 -35.969 -47.531 -6.68 -16.765 -10 -41.089 -10 -72.938l0 -244.5l-77.063 0l0 -98.656c27.378 -8.899 50.87 -21.624 70.375 -38.25 19.535 -16.601 35.192 -36.551 47 -59.844 11.825 -23.272 19.963 -52.921 24.406 -88.875z"/></svg>