<svg xmlns="http://www.w3.org/2000/svg" width="1000" height="1000"><path d="M192.906 0c-106.873 0 -192.906 86.033 -192.906 192.906l0 614.188c0 106.873 86.033 192.906 192.906 192.906l614.188 0c106.873 0 192.906 -86.033 192.906 -192.906l0 -614.188c0 -106.873 -86.033 -192.906 -192.906 -192.906l-614.188 0zm516.719 196.969c3.044 -.015 6.112 .025 9.219 .125 73.759 2.138 108.495 49.688 104.219 142.688 -3.207 69.483 -51.837 164.644 -145.906 285.438 -97.276 126.138 -179.593 189.188 -246.938 189.188 -41.69 0 -76.982 -38.472 -105.844 -115.438l-57.719 -211.656c-21.379 -76.966 -44.351 -115.438 -68.938 -115.438 -5.345 0 -24.056 11.208 -56.125 33.656l-33.688 -43.281c35.276 -31 70.043 -62 104.25 -93 47.034 -40.621 82.295 -62.018 105.813 -64.156 55.586 -5.345 89.797 32.602 102.625 113.844 13.897 87.655 23.53 142.183 28.875 163.563 16.034 72.69 33.665 109.031 52.906 109.031 14.966 0 37.413 -23.528 67.344 -70.563 29.931 -47.034 45.956 -82.82 48.094 -107.406 4.276 -40.621 -11.749 -60.938 -48.094 -60.938 -17.103 0 -34.734 3.736 -52.906 11.219 34.173 -110.805 98.447 -166.422 192.813 -166.875z"/></svg>