<svg width="1158.764" height="1000" xmlns="http://www.w3.org/2000/svg"><title>Layer 1</title><path d="M1158.195 231.332q-7.791 168.795 -236.313 462.239 -236.313 306.428 -399.915 306.428 -101.277 0 -171.392 -186.973l-93.487 -342.784q-51.937 -186.973 -111.665 -186.973 -12.984 0 -90.89 54.534l-54.534 -70.115q85.696 -75.309 168.795 -150.617 114.261 -98.68 171.392 -103.874 135.036 -12.984 166.198 184.376 33.759 212.942 46.743 264.879 38.953 176.586 85.696 176.586 36.356 0 109.068 -114.261 72.712 -114.261 77.906 -173.989 10.387 -98.68 -77.906 -98.68 -41.55 0 -85.696 18.178 85.696 -277.863 327.203 -270.072 179.183 5.194 168.795 231.12z"/></svg>