<?xml version="1.0" encoding="UTF-8" standalone="no"?>
<svg
   xmlns:dc="http://purl.org/dc/elements/1.1/"
   xmlns:cc="http://creativecommons.org/ns#"
   xmlns:rdf="http://www.w3.org/1999/02/22-rdf-syntax-ns#"
   xmlns:svg="http://www.w3.org/2000/svg"
   xmlns="http://www.w3.org/2000/svg"
   xmlns:sodipodi="http://sodipodi.sourceforge.net/DTD/sodipodi-0.dtd"
   xmlns:inkscape="http://www.inkscape.org/namespaces/inkscape"
   width="1000px"
   height="1000px"
   viewBox="0 0 1000 1000"
   version="1.1"
   id="svg2"
   inkscape:version="0.48.3.1 r9886"
   sodipodi:docname="visa.svg">
  <metadata
     id="metadata15">
    <rdf:RDF>
      <cc:Work
         rdf:about="">
        <dc:format>image/svg+xml</dc:format>
        <dc:type
           rdf:resource="http://purl.org/dc/dcmitype/StillImage" />
      </cc:Work>
    </rdf:RDF>
  </metadata>
  <sodipodi:namedview
     pagecolor="#ffffff"
     bordercolor="#666666"
     borderopacity="1"
     objecttolerance="10"
     gridtolerance="10"
     guidetolerance="10"
     inkscape:pageopacity="0"
     inkscape:pageshadow="2"
     inkscape:window-width="1065"
     inkscape:window-height="767"
     id="namedview13"
     showgrid="false"
     inkscape:zoom="0.236"
     inkscape:cx="236.37141"
     inkscape:cy="500"
     inkscape:window-x="65"
     inkscape:window-y="24"
     inkscape:window-maximized="0"
     inkscape:current-layer="svg2" />
  <title
     id="title4">visa</title>
  <description
     id="description6">Created with Sketch (http://www.bohemiancoding.com/sketch)</description>
  <defs
     id="defs8" />
  <path

     d="M 40 186 C 17.912684 186 -4.7369516e-15 203.90848 0 226 L 0 774 C 0 796.09127 17.92228 814 40 814 L 960 814 C 982.08731 814 1000 796.09152 1000 774 L 1000 226 C 1000 203.90873 982.07772 186 960 186 L 40 186 z M 597.25 373.15625 C 621.58845 373.15625 641.09319 378.53249 653.53125 383.53125 L 645.03125 437 L 639.40625 434.15625 C 627.81881 429.15748 612.93516 424.34593 592.40625 424.6875 C 567.83014 424.6875 556.46875 435.65033 556.46875 445.90625 C 556.32639 457.46417 569.74442 465.08576 591.6875 476.5 C 627.90398 494.10912 644.64273 515.46201 644.40625 543.53125 C 643.91918 594.74782 601.08299 627.84375 535.09375 627.84375 C 506.94106 627.53495 479.81791 621.57436 465.15625 614.6875 L 473.96875 559.4375 L 482.0625 563.375 C 502.67966 572.58731 516.02954 576.3125 541.15625 576.3125 C 559.1992 576.3125 578.56463 568.75779 578.71875 552.21875 C 578.8364 541.41959 570.6236 533.71859 546.1875 521.625 C 522.37495 509.8213 490.80682 490.0477 491.15625 454.59375 C 491.5292 406.6328 535.21972 373.15625 597.25 373.15625 z M 88.4375 381 L 189.78125 381 C 203.42806 381.51609 214.44647 385.90999 218.25 400.71875 L 240.09375 513.46875 C 240.09675 513.47985 240.08975 513.52015 240.09375 513.53125 L 246.65625 547.3125 L 308.1875 381 L 374.75 381 L 275.8125 624.4375 L 209.3125 624.5 L 156.375 428.0625 C 187.87314 444.74935 214.68916 464.05585 230.21875 490.625 C 226.21515 482.21826 220.93843 472.72805 214.1875 463.375 C 206.32571 452.48293 189.34704 438.42018 182.25 432.4375 C 157.51988 411.59042 123.9347 394.75305 87.65625 385.84375 L 88.4375 381 z M 401.21875 381.28125 L 466.3125 381.28125 L 425.59375 624.34375 L 360.5 624.34375 L 401.21875 381.28125 z M 768.875 381.28125 L 818.1875 381.28125 L 869.8125 624.34375 L 810.625 624.34375 C 810.625 624.34375 804.75302 596.42041 802.84375 587.90625 C 793.54127 587.90625 728.47652 587.8125 721.15625 587.8125 C 718.67909 594.39225 707.71875 624.34375 707.71875 624.34375 L 640.75 624.34375 L 735.46875 401.46875 C 742.17452 385.63065 753.6056 381.28125 768.875 381.28125 z M 773.71875 446.65625 C 770.51634 455.69708 764.93819 470.2971 765.3125 469.65625 C 765.3125 469.65625 745.27511 523.09508 740.03125 536.96875 L 792.6875 536.9375 C 790.14934 524.8843 778 467.40625 778 467.40625 L 773.71875 446.65625 z "
     id="path3005" />
</svg>
