<svg width="580.641" height="1000" xmlns="http://www.w3.org/2000/svg"><title>Layer 1</title><path d="M456.102 544.012h-67.962c-106.741 0 -210.255 -63.998 -210.255 -224.006 0 -166.693 97.036 -234.679 195.696 -234.679h82.52v458.685zm106.741 -544.012h-184.409c-181.127 0 -334.794 113.334 -334.794 333.342 0 132.002 74.429 229.329 207.016 277.33l-247.421 368.007c-8.081 12.009 0 21.321 12.901 21.321h114.833c9.706 0 16.183 -2.662 19.411 -9.312l224.814 -361.357h80.906v361.357c0 3.988 4.853 9.312 11.276 9.312h100.318c9.706 0 12.945 -3.997 12.945 -10.638v-976.018c0 -9.356 -6.478 -13.344 -17.797 -13.344"/></svg>