<svg xmlns="http://www.w3.org/2000/svg" width="1000" height="1000"><path d="M177.188 0c-98.156 0 -177.188 79.032 -177.188 177.188l0 645.625c0 98.156 79.032 177.188 177.188 177.188l475.188 0l347.625 -499.875 -347.625 -500.125l-475.188 0zm266.094 182.563l112.906 0c6.932 0 10.906 2.535 10.906 8.5l0 622.25c0 4.234 -1.995 6.781 -7.938 6.781l-61.406 0c-3.934 0 -6.906 -3.396 -6.906 -5.938l0 -230.375l-49.563 0l-137.656 230.375c-1.976 4.239 -5.932 5.938 -11.875 5.938l-70.313 0c-7.9 0 -12.854 -5.937 -7.906 -13.594l151.5 -234.625c-81.187 -30.602 -126.75 -92.656 -126.75 -176.813 0 -140.264 94.091 -212.5 205 -212.5zm-2.969 54.375c-60.412 0 -119.844 43.352 -119.844 149.625 0 102.011 63.389 142.813 128.75 142.813l41.625 0l0 -292.438l-50.531 0z"/></svg>