<svg xmlns="http://www.w3.org/2000/svg" width="1000" height="1000"><path d="M449.69 139.688c-15.29 .025 -30.615 4.098 -43.781 13.188 -28.992 20.037 -45.122 81.793 -64.594 125.75 -21.444 48.358 -40.259 97.095 -61.156 132.594 -56.519 -64.128 -95.077 -206.254 -163.156 -258.344 -21.959 -16.783 -70.099 -16.305 -91.781 0 -58.645 44.149 .194 122.203 23.781 163.156 51.773 89.789 109.164 185.937 152.969 268.531 -28.476 75.092 -172.29 287.292 20.406 275.313 46.636 -30.14 66.384 -92.854 91.75 -149.594 51.861 -116.102 95.923 -216.406 149.563 -336.469 22.294 -49.908 76 -123.645 64.594 -180.156 -6.391 -31.499 -42.38 -54.028 -78.594 -53.969zm466.219 46.063c-27.866 .279 -55.968 13.293 -68.125 38.5 -20.112 22.945 -41.65 44.45 -64.594 64.563 -11.023 13.893 -23.501 26.333 -37.375 37.375 -16.133 16.783 -29.222 36.525 -51 47.625l0 -132.563c-.497 -72.107 -135.42 -72.107 -135.938 0l0 377.313c5.893 26.925 18.13 47.511 47.563 50.938l40.813 0c27.977 -4.861 43.889 -21.793 47.563 -50.938l0 -81.594c0 -28.284 -5.294 -76.032 13.594 -47.594 27.691 27.098 66.712 56.252 102 88.344 33.872 30.887 66.285 80.739 101.938 88.375 73.005 15.653 105.208 -54.421 78.188 -105.344 -28.534 -53.832 -110.717 -88.282 -146.156 -135.969 23.883 -54.654 153.715 -88.23 142.75 -183.531 -4.322 -37.644 -37.587 -55.837 -71.219 -55.5z"/></svg>