<svg xmlns="http://www.w3.org/2000/svg" width="1000" height="1000"><title>amex</title><path d="M47 186c-26 0-47 21-47 47v535c0 26 21 47 47 47h907c26 0 47-21 47-47v-535c0-26-21-47-47-47h-907zm-9 132h73l9 19v-19h85l19 42 18-42h271c12 0 23 2 32 10v-10h74v10c13-7 29-10 47-10h108l10 19v-19h80l11 19v-19h78v164h-78l-15-25v25h-98l-11-26h-24l-11 26h-51c-20 0-35-5-45-10v10h-121v-37c0-5-1-6-4-6h-5v43h-234v-20l-8 20h-49l-8-20v20h-94l-11-26h-24l-11 26h-48v-86l34-78zm-34 141h30l11-26h58l11 26h57v-92l41 92h25l40-92v92h29v-118h-47l-34 80-37-80h-46v111l-48-111h-42l-50 118zm322-118v118h93v-24h-65v-23h64v-24h-64v-21h65v-25h-93zm113 0v118h28v-43h30c10 0 16 1 20 5 5 6 4 16 4 23v15h28v-23c0-11-1-16-5-22-2-3-8-8-14-10 7-3 20-13 20-31 0-13-5-21-14-26s-20-6-34-6h-64zm128 0v118h29v-118h-29zm99 0c-19 0-33 4-42 14-12 13-15 29-15 46 0 21 5 35 15 45s27 13 41 13h33l11-26h58l11 26h57v-88l53 88h40v-118h-29v82l-49-82h-43v111l-47-111h-42l-39 92h-13c-7 0-15-1-19-6-5-6-8-15-8-28 0-12 3-22 8-27 6-5 11-7 22-7h27v-25h-27zm-593 19l19 47h-38l19-47zm664 0l19 47h-39l19-47zm-271 5h35c5 0 10 0 13 2 4 2 6 5 6 10s-2 9-6 11-8 2-14 2h-34v-26zm-266 154h151l22 25 23-25h101c12 0 31 1 39 10v-10h90c8 0 27 2 38 10v-10h137v10c7-7 21-10 33-10h76v10c8-6 19-10 35-10h52v23h-56c-29 0-40 18-40 35 0 37 33 35 59 36 5 0 8 1 10 3s3 4 3 8c0 3-1 6-3 8s-6 3-11 3h-54v25h54c18 0 31-5 38-15v31c-11 5-26 8-41 8h-72v-11c-8 7-24 11-38 11h-228v-38c0-5 0-5-5-5h-4v43h-75v-44c-13 5-27 6-39 6h-9v39h-91l-22-25-24 25h-148v-164zm25 24v118h111l36-39 34 39h54v-39h35c24 0 49-7 49-39 0-33-25-39-47-39h-89l-36 39-34-39h-112zm331 0v118h28v-43h30c10 0 16 1 21 5 5 5 5 16 5 23v15h28v-23c0-10-1-16-5-21-2-3-7-8-14-10 7-3 20-13 20-31 0-13-6-21-14-26-9-5-19-6-34-6h-64zm128 0v118h93v-24h-65v-23h64v-24h-64v-21h65v-24h-93zm146 0c-29 0-40 18-40 35 0 37 33 36 59 36 5 0 8 1 10 3s3 4 3 8c0 3-1 6-3 8s-6 3-11 3h-54v25h54c28 0 44-12 44-37 0-12-3-19-8-25-6-6-17-9-32-9h-15c-5 0-8 0-11-1-4-1-6-4-6-9 0-4 1-7 4-8 3-2 6-2 11-2h51v-25h-56zm-399 13v94l-43-48 43-46zm-180 12h70l31 34-32 35h-69v-23h61v-24h-61v-21zm207 0h37c10 0 17 4 17 15 0 10-7 16-17 16h-36v-30zm125 0h35c5 0 10 0 13 2 4 2 6 5 6 10s-2 9-6 11-8 2-14 2h-34v-26zm360 1h51v34c-1-1-1-2-3-3-6-6-16-9-32-10h-15c-5 0-8 0-11-1-4-1-6-4-6-9 0-4 1-7 4-9s6-2 11-2z"/></svg>