<svg xmlns="http://www.w3.org/2000/svg" width="1000" height="1000"><title>amex</title><path d="M46.531 186c-25.69 0 -46.531 20.814 -46.531 46.5v535c0 25.689 20.844 46.5 46.531 46.5h906.938c25.69 0 46.531 -20.814 46.531 -46.5v-535c0 -25.689 -20.844 -46.5 -46.531 -46.5h-906.938zm-9.313 131.938h72.875l9.406 19.313v-19.313h85.438l18.688 42.25 18.219 -42.25h271.313c12.332 0 23.423 2.281 31.563 9.531v-9.531h74.25v9.531c12.791 -7.034 28.612 -9.531 46.625 -9.531h107.625l9.969 19.313v-19.313h79.688l10.875 19.313v-19.313h77.625v163.688h-78.438l-14.844 -24.781v24.781h-97.875l-10.656 -26.094h-24.094l-10.875 26.094h-50.813c-19.935 0 -35.072 -4.73 -44.813 -9.969v9.969h-120.75v-37.156c0 -5.243 -.93 -5.547 -4.094 -5.656h-4.531l.125 42.813h-233.5v-20.25l-8.375 20.313h-48.781l-8.375 -20v19.938h-93.938l-10.75 -26.094h-24.094l-10.781 26.094h-47.75v-85.875l33.844 -77.813zm-33.844 141.094h30.344l10.844 -26.25h58.125l10.719 26.25h56.813v-92.188l40.594 92.188h24.531l40.469 -92.094 .125 92.094h28.625v-117.594h-46.5l-33.563 79.781 -36.563 -79.781h-45.563v111.313l-47.5 -111.313h-41.5l-50 117.594zm322.156 -117.594v117.594h93.125v-24.344h-65.25v-23.469h63.688v-24.094h-63.688v-21.188h65.25v-24.5h-93.125zm113.25 0v117.594h28v-42.781h30.031c10.075 0 16.317 .896 20.406 5.031 5.092 5.657 4.406 15.831 4.406 22.906l.125 14.844h28.219v-23.125c0 -10.501 -.673 -15.714 -4.625 -21.563 -2.49 -3.426 -7.72 -7.566 -13.844 -9.906 7.261 -2.908 19.719 -12.597 19.719 -31.344 0 -13.115 -5.334 -20.779 -14.188 -26.031 -9.048 -5.252 -19.573 -5.625 -33.875 -5.625h-64.375zm128.375 0v117.594h28.5v-117.594h-28.5zm99.438 0c-19.258 0 -33.403 4.335 -42.438 13.719 -12.011 12.597 -15.063 28.531 -15.063 45.969 0 21.382 5.116 34.892 14.938 44.875 9.74 9.983 26.916 13.031 40.5 13.031h32.719l10.563 -26.25h58.031l10.875 26.25h56.906v-88.25l52.969 88.25h39.625v-117.594h-28.625v81.906l-49.125 -81.906h-42.563v111.219l-47.313 -111.219h-41.875l-39.375 92.469h-12.563c-7.356 0 -15.167 -1.409 -19.469 -6.063 -5.194 -5.933 -7.688 -15.028 -7.688 -27.625 0 -12.324 3.267 -21.674 8.031 -26.625 5.547 -5.44 11.302 -6.969 21.5 -6.969h26.5v-25.188h-27.063zm-593.219 19.313l18.938 47.031h-37.75l18.813 -47.031zm664.031 0l19.344 47.031h-38.594l19.25 -47.031zm-270.938 5.031h34.531c4.885 0 9.971 .23 13.281 2.125 3.636 1.708 5.875 5.355 5.875 10.375 0 5.123 -2.145 9.226 -5.781 11.125 -3.852 2.337 -8.386 2.438 -13.844 2.438h-34.063v-26.063zm-265.938 153.719h150.563l21.594 25.031 23.094 -25.031h100.781c11.653 0 30.778 1.207 39.375 9.563v-9.563h90.063c8.463 0 26.79 1.695 37.656 9.563v-9.563h136.531v9.563c6.789 -6.537 21.148 -9.563 33.375 -9.563h76.469v9.563c8.026 -5.83 19.337 -9.563 34.938 -9.563h51.719v23.344h-55.656c-29.311 0 -40.063 17.89 -40.063 34.906 0 37.124 32.71 35.417 58.938 36.313 4.864 0 7.817 .804 9.844 2.594 2.055 1.627 3.406 4.364 3.406 7.781 0 3.202 -1.336 5.841 -3.281 7.656 -2.245 2.2 -5.983 2.906 -11.313 2.906h-53.719v25.156h53.938c17.898 0 31.121 -5.073 37.906 -15.031v30.5c-11.191 5.427 -25.908 7.563 -40.969 7.563h-72.375v-10.5c-8.385 6.753 -23.514 10.5 -38 10.5h-228.188v-37.844c0 -4.638 -.469 -4.844 -5.094 -4.844h-3.594v42.688h-75.125v-44.188c-12.573 5.455 -26.824 5.937 -38.906 5.75h-8.969v38.5l-91.063 -.063 -22.375 -25.469 -23.781 25.469h-147.719v-163.688zm25.156 23.5v117.594h110.719l35.781 -38.938 34.406 38.938h54.344v-39.438h34.875c24.433 0 48.688 -6.744 48.688 -39.406 0 -32.563 -24.942 -38.75 -47.125 -38.75h-89.313l-35.563 38.563 -34.375 -38.563h-112.438zm331.406 0v117.594h28.031v-42.938h29.844c10.186 0 16.42 1.007 20.5 5.219 5.19 5.467 4.5 15.926 4.5 23v14.719h28.031v-23.313c-.113 -10.364 -.682 -15.728 -4.625 -21.469 -2.382 -3.425 -7.441 -7.567 -13.656 -9.875 7.35 -2.936 19.777 -12.514 19.781 -31.281 0 -13.413 -5.531 -20.736 -14.344 -26.094 -9.165 -4.921 -19.489 -5.563 -33.625 -5.563h-64.438zm128.344 0v117.594h93.125v-24.406l-65.344 -.094v-23.406h63.75v-24h-63.75v-21.375h65.344v-24.313h-93.125zm146.438 0c-29.264 0 -39.906 17.945 -39.906 35 0 37.209 32.708 35.509 58.813 36.406 4.861 0 7.803 .831 9.938 2.625 1.916 1.631 3.406 4.325 3.406 7.75 0 3.209 -1.393 5.869 -3.313 7.688 -2.353 2.205 -6.081 2.906 -11.375 2.906h-54.156v25.219h54.375c28.151 0 43.844 -11.83 43.844 -37.125 0 -12.102 -2.909 -19.244 -8.344 -24.906 -6.323 -6.446 -16.722 -9.065 -31.875 -9.438l-15.031 -.406c-4.755 0 -7.93 -.312 -10.875 -1.344 -3.512 -1.305 -6.094 -4.314 -6.094 -8.75 0 -3.73 1.13 -6.565 4.188 -8.469 2.807 -1.932 6.112 -2.125 11.188 -2.125h51.188v-25.031h-55.969zm-398.969 12.594v94.063l-42.781 -47.781 42.781 -46.281zm-179.531 11.781h70.094l30.594 34.313 -31.938 34.531h-68.75v-23.406h61.375v-24.031h-61.375v-21.406zm207.219 0h36.563c10.119 0 17.125 4.149 17.125 14.531 0 10.268 -6.699 15.688 -17.469 15.688h-36.219v-30.219zm125 0h34.531c4.99 0 9.983 .105 13.375 2.094 3.632 1.877 5.781 5.446 5.781 10.406 0 4.96 -2.149 8.954 -5.781 11.125 -3.749 2.199 -8.39 2.406 -13.844 2.406h-34.063v-26.031zm360.188 .813h50.906v33.594c-.779 -1.011 -1.463 -2.005 -2.594 -2.906 -6.216 -6.469 -16.415 -9.119 -31.688 -9.5l-15.125 -.406c-4.651 0 -7.835 -.308 -10.781 -1.344 -3.619 -1.31 -6.094 -4.327 -6.094 -8.781 0 -3.745 1.148 -6.588 4.094 -8.5 2.844 -1.94 6.2 -2.156 11.281 -2.156z"/></svg>