<?xml version="1.0" encoding="UTF-8" standalone="no"?>
<!-- Created with Inkscape (http://www.inkscape.org/) -->

<svg
   xmlns:dc="http://purl.org/dc/elements/1.1/"
   xmlns:cc="http://creativecommons.org/ns#"
   xmlns:rdf="http://www.w3.org/1999/02/22-rdf-syntax-ns#"
   xmlns:svg="http://www.w3.org/2000/svg"
   xmlns="http://www.w3.org/2000/svg"
   xmlns:sodipodi="http://sodipodi.sourceforge.net/DTD/sodipodi-0.dtd"
   xmlns:inkscape="http://www.inkscape.org/namespaces/inkscape"
   width="987.97894"
   height="997.0191"
   id="svg2"
   sodipodi:version="0.32"
   inkscape:version="0.49+devel r"
   sodipodi:docname="blogger-rect.svg"
   version="1.0"
   inkscape:output_extension="org.inkscape.output.svg.inkscape">
  <defs
     id="defs4" />
  <sodipodi:namedview
     id="base"
     pagecolor="#ffffff"
     bordercolor="#666666"
     borderopacity="1.0"
     inkscape:pageopacity="0.0"
     inkscape:pageshadow="2"
     inkscape:zoom="0.08"
     inkscape:cx="-3045.2232"
     inkscape:cy="1907.2307"
     inkscape:document-units="px"
     inkscape:current-layer="layer1"
     inkscape:window-width="1366"
     inkscape:window-height="768"
     inkscape:window-x="0"
     inkscape:window-y="26"
     showgrid="false"
     inkscape:window-maximized="0"
     fit-margin-top="0"
     fit-margin-left="0"
     fit-margin-right="0"
     fit-margin-bottom="0" />
  <metadata
     id="metadata7">
    <rdf:RDF>
      <cc:Work
         rdf:about="">
        <dc:format>image/svg+xml</dc:format>
        <dc:type
           rdf:resource="http://purl.org/dc/dcmitype/StillImage" />
        <dc:title></dc:title>
        <dc:creator>
          <cc:Agent>
            <dc:title />
          </cc:Agent>
        </dc:creator>
        <dc:subject>
          <rdf:Bag />
        </dc:subject>
        <cc:license
           rdf:resource="http://creativecommons.org/licenses/publicdomain/" />
        <dc:description />
        <dc:contributor>
          <cc:Agent>
            <dc:title />
          </cc:Agent>
        </dc:contributor>
      </cc:Work>
      <cc:License
         rdf:about="http://creativecommons.org/licenses/publicdomain/">
        <cc:permits
           rdf:resource="http://creativecommons.org/ns#Reproduction" />
        <cc:permits
           rdf:resource="http://creativecommons.org/ns#Distribution" />
        <cc:permits
           rdf:resource="http://creativecommons.org/ns#DerivativeWorks" />
      </cc:License>
    </rdf:RDF>
  </metadata>
  <g
     inkscape:label="Layer 1"
     inkscape:groupmode="layer"
     id="layer1"
     transform="translate(-374.21785,422.78273)">
    <path
       inkscape:connector-curvature="0"
       style="fill:#000000;fill-opacity:1;fill-rule:evenodd;stroke:none"
       d="m 922.9954,-422.78262 -299.96695,1.28823 c -126.94279,17.46383 -235.70667,96.13464 -245.31279,230.36504 -3.03702,12.32151 -1.53837,24.842 -1.96782,36.29017 -1.3839,58.6583 -1.04424,121.75903 -0.1486,182.150013 0.23916,95.298677 -2.57357,172.101727 -0.77993,242.952647 1.15001,208.19362 124.0402,305.48934 347.23248,301.43636 55.29516,-1.00409 118.5202,-1.38002 191.02985,0.51512 72.11496,0.48724 127.71366,5.24596 177.25496,-1.80343 220.021,-31.30746 262.926,-178.876 271.8602,-298.3447 l 0,-136.80572 c -6.4211,-138.9774205 -107.2129,-177.265936 -193.369,-180.088903 9.2597,-34.741422 11.4912,-81.945987 3.3787,-145.565497 -10.4403,-123.61974 -98.17,-220.29383 -249.21137,-232.38944 l 2.7e-4,1.1e-4 z m -250.84503,186.6998 244.05043,0 c 134.9229,17.97034 128.5686,163.431749 0,184.298877 l -244.05043,0 c -134.92285,-17.970334 -128.56865,-163.431747 0,-184.298877 z m -55.39171,402.57127 448.31664,1.55643 c 135.5706,17.48381 135.9443,182.51347 4.7104,202.70798 L 621.46905,369.19644 C 482.44067,352.10327 484.40004,186.85607 616.75866,166.48845 z"
       id="rect3859"
       sodipodi:nodetypes="ccccccscscccccccccccccccc" />
  </g>
</svg>
