<svg xmlns="http://www.w3.org/2000/svg" width="1000" height="1000" version="1"><path d="M196 0c-108 0-196 88-196 196v608c0 108 88 196 196 196h608c108 0 196-88 196-196v-608c0-108-88-196-196-196h-608zm338 187c94 8 149 68 155 146 5 40 4 70-2 91 54 2 116 26 120 113v86c-6 75-32 168-169 187-31 4-65 1-110 1-45-1-84-1-119 0-139 3-215-59-216-189-1-44 1-93 1-153-1-38-1-78 0-114 0-7-1-15 1-23 6-84 74-134 153-145l187-1zm-156 117c-80 13-84 104 0 116h152c80-13 84-104 0-116h-152zm-35 253c-82 13-84 117 3 127l279 1c82-13 81-116-3-127l-279-1z"/></svg>