<?xml version="1.0" encoding="utf-8"?>
<!-- Generator: Adobe Illustrator 16.0.0, SVG Export Plug-In . SVG Version: 6.00 Build 0)  -->
<!DOCTYPE svg PUBLIC "-//W3C//DTD SVG 1.1//EN" "http://www.w3.org/Graphics/SVG/1.1/DTD/svg11.dtd">
<svg version="1.1" id="Layer_1" xmlns="http://www.w3.org/2000/svg" xmlns:xlink="http://www.w3.org/1999/xlink" x="0px" y="0px"
	 width="1000px" height="1000px" viewBox="0 0 1000 1000" enable-background="new 0 0 1000 1000" xml:space="preserve">
<g>
	<title>Layer 1</title>
	<g id="layer1">
		<path d="M192.912,0h614.175C913.961,0,1000,86.039,1000,192.912v614.176C1000,913.962,913.961,1000,807.087,1000H192.912
			C86.039,1000,0,913.962,0,807.088V192.912C0,86.039,86.039,0,192.912,0L192.912,0z M499.596,356.346
			c-52.991,0-101.955,16.854-142.172,45.277V201.833c0-28.624-23.202-51.833-51.833-51.833c-28.632,0-51.833,23.209-51.833,51.833
			v381.794c-0.509,6.463,0.062,43.904,1.774,54.532C272.562,757.872,375.196,850,499.596,850
			c136.326,0,246.826-110.501,246.826-246.826C746.422,466.848,635.922,356.346,499.596,356.346z M499.596,745.345
			c-78.521,0-142.172-63.651-142.172-142.172c0-78.522,63.65-142.172,142.172-142.172s142.172,63.65,142.172,142.172
			C641.768,681.694,578.117,745.345,499.596,745.345z"/>
	</g>
</g>
</svg>
