<svg xmlns="http://www.w3.org/2000/svg" width="1000" height="1000"><path d="M192.912 0l614.175 0c106.874 0 192.913 86.039 192.913 192.912l0 614.176c0 106.874 -86.039 192.912 -192.913 192.912l-614.175 0c-106.873 0 -192.912 -86.038 -192.912 -192.912l0 -614.176c0 -106.873 86.039 -192.912 192.912 -192.912zm306.684 356.346c-52.991 0 -101.955 16.854 -142.172 45.277l0 -199.79c0 -28.624 -23.202 -51.833 -51.833 -51.833 -28.632 0 -51.833 23.209 -51.833 51.833l0 381.794c-.509 6.463 .062 43.904 1.774 54.532 17.03 119.713 119.664 211.841 244.064 211.841 136.326 0 246.826 -110.501 246.826 -246.826 0 -136.326 -110.5 -246.828 -246.826 -246.828zm0 388.999c-78.521 0 -142.172 -63.651 -142.172 -142.172 0 -78.522 63.65 -142.172 142.172 -142.172s142.172 63.65 142.172 142.172c0 78.521 -63.651 142.172 -142.172 142.172z"/></svg>