<?xml version="1.0" encoding="utf-8"?>
<!-- Generator: Adobe Illustrator 16.0.0, SVG Export Plug-In . SVG Version: 6.00 Build 0)  -->
<!DOCTYPE svg PUBLIC "-//W3C//DTD SVG 1.1//EN" "http://www.w3.org/Graphics/SVG/1.1/DTD/svg11.dtd">
<svg version="1.1" id="Layer_1" xmlns="http://www.w3.org/2000/svg" xmlns:xlink="http://www.w3.org/1999/xlink" x="0px" y="0px"
	 width="704.063px" height="1000px" viewBox="-44.278 0 704.063 1000" enable-background="new -44.278 0 704.063 1000"
	 xml:space="preserve">
<path fill-rule="evenodd" clip-rule="evenodd" d="M307.177,294.781c-75.701,0-145.649,24.077-203.103,64.682V74.048
	C104.073,33.156,70.928,0,30.026,0s-74.048,33.156-74.048,74.048v545.421c-0.727,9.233,0.088,62.72,2.534,77.904
	C-17.158,868.388,129.462,1000,307.177,1000c194.75,0,352.609-157.858,352.609-352.609
	C659.785,452.64,501.927,294.781,307.177,294.781z M307.177,850.494c-112.174,0-203.103-90.93-203.103-203.104
	s90.929-203.103,203.103-203.103c112.173,0,203.103,90.929,203.103,203.103S419.35,850.494,307.177,850.494z"/>
</svg>
