<svg xmlns="http://www.w3.org/2000/svg" width="988" height="1000"><path d="M987.672 343.936c-.09 -.624 -.246 -1.221 -.35 -1.845 -.21 -1.196 -.43 -2.392 -.742 -3.561 -.183 -.702 -.442 -1.377 -.662 -2.052 -.339 -1.04 -.675 -2.079 -1.091 -3.092 -.289 -.702 -.625 -1.404 -.948 -2.079 -.445 -.961 -.911 -1.898 -1.443 -2.806 -.39 -.677 -.805 -1.327 -1.208 -1.976 -.571 -.885 -1.157 -1.743 -1.796 -2.575 -.466 -.622 -.958 -1.246 -1.454 -1.845 -.675 -.778 -1.377 -1.559 -2.119 -2.287 -.556 -.57 -1.104 -1.143 -1.689 -1.663 -.778 -.7 -1.584 -1.377 -2.402 -2.026 -.635 -.494 -1.261 -.988 -1.923 -1.456 -.249 -.156 -.465 -.364 -.701 -.521l-451.569 -301.044c-14.264 -9.511 -32.835 -9.511 -47.102 0l-451.567 301.044c-.233 .156 -.454 .364 -.7 .521 -.664 .467 -1.288 .961 -1.911 1.456 -.832 .648 -1.639 1.326 -2.403 2.026 -.598 .521 -1.143 1.093 -1.704 1.663 -.738 .729 -1.44 1.509 -2.104 2.287 -.506 .599 -1 1.223 -1.469 1.845 -.624 .832 -1.223 1.69 -1.78 2.575 -.429 .649 -.832 1.299 -1.221 1.976 -.521 .908 -.988 1.845 -1.444 2.806 -.324 .675 -.662 1.377 -.948 2.079 -.416 1.013 -.753 2.052 -1.091 3.092 -.221 .675 -.468 1.351 -.664 2.052 -.311 1.169 -.519 2.365 -.74 3.561 -.103 .624 -.26 1.221 -.338 1.845 -.248 1.818 -.389 3.664 -.389 5.536l0 301.045c0 1.87 .142 3.716 .389 5.562 .078 .599 .235 1.221 .338 1.816 .221 1.197 .429 2.392 .74 3.562 .196 .702 .443 1.377 .664 2.053 .337 1.038 .675 2.079 1.091 3.117 .286 .705 .624 1.38 .948 2.056 .456 .958 .923 1.893 1.444 2.831 .389 .651 .792 1.297 1.221 1.949 .557 .885 1.156 1.743 1.78 2.575 .469 .648 .963 1.247 1.469 1.843 .664 .778 1.366 1.56 2.104 2.288 .561 .569 1.106 1.142 1.704 1.66 .765 .705 1.571 1.381 2.403 2.029 .624 .496 1.248 .988 1.911 1.454 .246 .156 .467 .366 .7 .519l451.567 301.047c7.132 4.754 15.346 7.146 23.558 7.146 8.198 0 16.409 -2.393 23.544 -7.146l451.568 -301.047c.236 -.152 .452 -.362 .701 -.519 .662 -.466 1.288 -.958 1.923 -1.454 .818 -.648 1.624 -1.324 2.402 -2.029 .585 -.519 1.134 -1.091 1.689 -1.66 .742 -.729 1.444 -1.51 2.119 -2.288 .496 -.596 .988 -1.194 1.454 -1.843 .639 -.832 1.225 -1.69 1.796 -2.575 .403 -.652 .818 -1.298 1.208 -1.949 .532 -.938 .998 -1.873 1.443 -2.831 .323 -.676 .659 -1.351 .948 -2.056 .416 -1.038 .752 -2.079 1.091 -3.117 .22 -.676 .479 -1.351 .662 -2.053 .312 -1.171 .532 -2.365 .742 -3.562 .104 -.596 .26 -1.218 .35 -1.816 .232 -1.847 .379 -3.692 .379 -5.562l0 -301.046c.001 -1.871 -.145 -3.717 -.378 -5.535zm-451.188 -216.168l332.657 221.755 -148.588 99.403 -184.069 -123.13l0 -198.028zm-84.917 0l0 198.028l-184.06 123.13 -148.599 -99.403 332.659 -221.755zm-366.651 301.175l106.226 71.05 -106.226 71.054l0 -142.104zm366.651 443.278l-332.659 -221.757 148.599 -99.377 184.06 123.105l0 198.029zm42.464 -271.783l-150.171 -100.445 150.171 -100.443 150.159 100.443 -150.159 100.445zm42.453 271.783l0 -198.029l184.069 -123.105 148.588 99.377 -332.657 221.757zm366.648 -301.174l-106.213 -71.054 106.213 -71.05l0 142.104z"/></svg>