<svg xmlns="http://www.w3.org/2000/svg" width="988" height="1000"><path d="M988 344c0-1 0-1 0-2s0-2-1-4c0-1 0-1-1-2 0-1-1-2-1-3s-1-1-1-2-1-2-1-3-1-1-1-2c-1-1-1-2-2-3 0-1-1-1-1-2-1-1-1-2-2-2-1-1-1-1-2-2s-2-1-2-2c-1 0-1-1-2-1 0 0 0 0-1-1l-452-301c-14-10-33-10-47 0l-452 301s0 0-1 1c-1 0-1 1-2 1-1 1-2 1-2 2-1 1-1 1-2 2s-1 2-2 2c-1 1-1 1-1 2-1 1-1 2-2 3 0 1-1 1-1 2-1 1-1 2-1 3s-1 1-1 2-1 2-1 3 0 1-1 2c0 1-1 2-1 4 0 1 0 1 0 2 0 2 0 4 0 6v301c0 2 0 4 0 6 0 1 0 1 0 2s0 2 1 4c0 1 0 1 1 2 0 1 1 2 1 3s1 1 1 2 1 2 1 3 1 1 1 2c1 1 1 2 2 3 0 1 1 1 1 2 1 1 1 2 2 2 1 1 1 1 2 2s2 1 2 2c1 0 1 1 2 1 0 0 0 0 1 1l452 301c7 5 15 7 24 7 8 0 16-2 24-7l452-301s0 0 1-1c1 0 1-1 2-1 1-1 2-1 2-2 1-1 1-1 2-2s1-2 2-2c0-1 1-1 1-2 1-1 1-2 2-3 0-1 1-1 1-2 1-1 1-2 1-3s1-1 1-2 1-2 1-3 0-1 1-2c0-1 1-2 1-4 0-1 0-1 0-2 0-2 0-4 0-6v-301c0-2 0-4 0-6zm-451-216l333 222-149 99-184-123v-198zm-85 0v198l-184 123-149-99 333-222zm-367 301l106 71-106 71v-142zm367 443l-333-222 149-99 184 123v198zm42-272l-150-100 150-100 150 100-150 100zm42 272v-198l184-123 149 99-333 222zm367-301l-106-71 106-71v142z"/></svg>