<svg width="1000" height="1000" xmlns="http://www.w3.org/2000/svg" xmlns:sketch="http://www.bohemiancoding.com/sketch/ns"><title>discover</title><path d="M45.935 186c-25.69 0 -46.517 20.828 -46.517 46.513v534.974c0 25.689 20.829 46.513 46.517 46.513h906.967c25.69 0 46.517 -20.828 46.517 -46.513v-534.974c0 -25.689 -20.829 -46.513 -46.517 -46.513h-906.967zm178.483 614.044s716.683 -.027 724.09 0c7.408 .027 19.794 -4.308 27.766 -13.545 7.973 -9.237 10.543 -20.339 10.597 -27.348 .623 -80.096 .333 -232.448 .333 -232.448s-270.895 188.484 -762.787 273.341zm-128.514 -431.459h-41.253v141.881h41.036c21.821 0 37.579 -5.07 51.412 -16.379 16.432 -13.397 26.157 -33.585 26.157 -54.464 0 -41.873 -31.773 -71.039 -77.352 -71.039zm90.142 0h26.744v141.881h-26.744v-141.881zm96.075 54.937c-16.741 -6.196 -21.658 -10.285 -21.658 -18.012 0 -9.009 8.757 -15.856 20.785 -15.856 8.354 0 15.221 3.432 22.492 11.584l14.592 -19.117c-11.989 -10.495 -26.343 -15.862 -42.018 -15.862 -25.305 0 -44.604 17.581 -44.604 40.992 0 19.709 8.984 29.795 35.183 39.229 10.917 3.852 16.476 6.422 19.282 8.147 5.575 3.642 8.365 8.793 8.365 14.801 0 11.59 -9.216 20.178 -21.658 20.178 -13.304 0 -24.023 -6.654 -30.443 -19.079l-18.023 17.36c12.851 18.869 28.288 27.231 49.51 27.231 28.99 0 49.327 -19.278 49.327 -46.972 0 -22.726 -9.404 -33.017 -41.134 -44.624zm49.273 17.271c0 41.865 33.007 74.325 75.485 74.325 12.012 0 22.294 -2.35 34.98 -8.298v-32.703c-11.155 11.115 -21.034 15.6 -33.682 15.6 -28.096 0 -48.036 -20.288 -48.036 -49.134 0 -27.343 20.576 -48.914 46.738 -48.914 13.31 0 23.377 4.727 34.98 16.024v-32.686c-12.249 -6.185 -22.316 -8.749 -34.317 -8.749 -42.262 0 -76.148 33.121 -76.148 74.534zm332.429 23.755l-38.064 -95.963h-30.411l60.568 146.533h14.982l61.66 -146.533h-30.179l-38.555 95.963zm80.362 45.918h79.07v-24.02h-51.209v-38.299h49.321v-24.031h-49.321v-31.491h51.209v-24.042h-79.07v141.881zm191.018 -99.992c0 -26.563 -18.479 -41.889 -50.725 -41.889h-41.455v141.881h27.927v-56.996h3.644l38.697 56.996h34.383l-45.121 -59.77c21.06 -4.243 32.65 -18.5 32.65 -40.223zm-407.297 110.459c43.669 0 79.07 -35.406 79.07 -79.081 0 -43.675 -35.401 -79.081 -79.07 -79.081 -43.669 0 -79.07 35.406 -79.07 79.081 0 43.675 35.401 79.081 79.07 79.081zm-399.11 -45.682c-8.839 7.876 -20.325 11.311 -38.504 11.311h-7.551v-94.074h7.551c18.179 0 29.214 3.204 38.504 11.504 9.736 8.547 15.588 21.787 15.588 35.412 0 13.658 -5.852 27.305 -15.588 35.846 0 0 9.736 -8.541 0 0zm750.431 -41.123h-8.089v-43.181h8.528c17.243 0 26.616 7.259 26.616 21.134 0 14.331 -9.373 22.048 -27.055 22.048z" sketch:type="MSShapeGroup" fill="#262626"/></svg>