<svg xmlns="http://www.w3.org/2000/svg" width="1000" height="1000"><title>discover</title><path d="M45.938 186c-25.69 0 -46.531 20.814 -46.531 46.5v535c0 25.689 20.844 46.5 46.531 46.5h906.969c25.69 0 46.5 -20.814 46.5 -46.5v-535c0 -25.689 -20.812 -46.5 -46.5 -46.5h-906.969zm479.938 176.781c.678 -.017 1.349 0 2.031 0 43.669 0 79.063 35.387 79.063 79.063 0 43.675 -35.393 79.094 -79.063 79.094 -43.669 0 -79.063 -35.418 -79.063 -79.094 0 -42.993 34.305 -77.98 77.031 -79.063zm-249.563 3.469c15.675 0 30.042 5.38 42.031 15.875l-14.594 19.125c-7.271 -8.152 -14.146 -11.594 -22.5 -11.594 -12.028 0 -20.781 6.835 -20.781 15.844 0 7.726 4.915 11.836 21.656 18.031 31.73 11.606 41.125 21.899 41.125 44.625 0 27.695 -20.323 46.969 -49.313 46.969 -21.222 0 -36.68 -8.381 -49.531 -27.25l18.031 -17.344c6.42 12.424 17.133 19.063 30.438 19.063 12.442 0 21.656 -8.567 21.656 -20.156 0 -6.008 -2.769 -11.17 -8.344 -14.813 -2.807 -1.724 -8.364 -4.304 -19.281 -8.156 -26.2 -9.434 -35.188 -19.51 -35.188 -39.219 0 -23.412 19.289 -41 44.594 -41zm131.219 0c12.001 0 22.094 2.565 34.344 8.75v32.688c-11.603 -11.297 -21.69 -16.031 -35 -16.031 -26.162 0 -46.719 21.595 -46.719 48.938 0 28.845 19.936 49.125 48.031 49.125 12.647 0 22.532 -4.478 33.688 -15.594v32.688c-12.686 5.948 -22.988 8.313 -35 8.313 -42.478 0 -75.469 -32.479 -75.469 -74.344 0 -41.413 33.863 -74.531 76.125 -74.531zm-352.875 2.344h41.25c45.578 0 77.344 29.159 77.344 71.031 0 20.879 -9.724 41.072 -26.156 54.469 -13.833 11.308 -29.586 16.375 -51.406 16.375h-41.031v-141.875zm131.375 0h26.75v141.875h-26.75v-141.875zm409.313 0h30.406l38.063 95.969 38.563 -95.969h30.188l-61.656 146.531h-15l-60.563 -146.531zm148.844 0h79.063v24.031h-51.219v31.5h49.344v24.031h-49.344v38.281h51.219v24.031h-79.063v-141.875zm98.844 0h41.438c32.246 0 50.75 15.312 50.75 41.875 0 21.723 -11.596 35.976 -32.656 40.219l45.125 59.781h-34.406l-38.688 -57h-3.656v57h-27.906v-141.875zm28.094 22.344v43.188h8.094c17.682 0 27.063 -7.7 27.063 -22.031 0 -13.874 -9.382 -21.156 -26.625 -21.156h-8.531zm-788.375 1.563v94.063h7.531c18.179 0 29.692 -3.436 38.531 -11.313 9.736 -8.541 15.563 -22.186 15.563 -35.844 0 -13.625 -5.826 -26.86 -15.563 -35.406 -9.29 -8.299 -20.352 -11.5 -38.531 -11.5h-7.531zm904.469 134.188s.279 152.373 -.344 232.469c-.055 7.01 -2.621 18.107 -10.594 27.344 -7.973 9.237 -20.374 13.558 -27.781 13.531 -7.408 -.027 -724.094 0 -724.094 0 491.892 -84.857 762.813 -273.344 762.813 -273.344z"/></svg>