<svg xmlns="http://www.w3.org/2000/svg" width="1000" height="1000"><title>discover</title><path d="M46 186c-26 0-47 21-47 47v535c0 26 21 47 47 47h907c26 0 47-21 47-47v-535c0-26-21-47-47-47h-907zm480 177c1 0 1 0 2 0 44 0 79 35 79 79s-35 79-79 79-79-35-79-79c0-43 34-78 77-79zm-250 3c16 0 30 5 42 16l-15 19c-7-8-14-12-23-12-12 0-21 7-21 16 0 8 5 12 22 18 32 12 41 22 41 45 0 28-20 47-49 47-21 0-37-8-50-27l18-17c6 12 17 19 30 19 12 0 22-9 22-20 0-6-3-11-8-15-3-2-8-4-19-8-26-9-35-20-35-39 0-23 19-41 45-41zm131 0c12 0 22 3 34 9v33c-12-11-22-16-35-16-26 0-47 22-47 49 0 29 20 49 48 49 13 0 23-4 34-16v33c-13 6-23 8-35 8-42 0-75-32-75-74 0-41 34-75 76-75zm-353 2h41c46 0 77 29 77 71 0 21-10 41-26 54-14 11-30 16-51 16h-41v-142zm131 0h27v142h-27v-142zm409 0h30l38 96 39-96h30l-62 147h-15l-61-147zm149 0h79v24h-51v32h49v24h-49v38h51v24h-79v-142zm99 0h41c32 0 51 15 51 42 0 22-12 36-33 40l45 60h-34l-39-57h-4v57h-28v-142zm28 22v43h8c18 0 27-8 27-22s-9-21-27-21h-9zm-788 2v94h8c18 0 30-3 39-11 10-9 16-22 16-36s-6-27-16-35c-9-8-20-12-39-12h-8zm904 134s0 152 0 232c0 7-3 18-11 27s-20 14-28 14c-7 0-724 0-724 0 492-85 763-273 763-273z"/></svg>