<svg width="933.34369" height="2000"
 viewBox="0 0 933.34369 2000"
 xmlns="http://www.w3.org/2000/svg">
 <metadata id="metadata8">image/svg+xml</metadata>
 <g>
  <title>Layer 1</title>
  <path d="m201.735565,387.337585c0,50.400604 0,275.358704 0,275.358704h-201.735565v336.714783h201.735565v1000.588928h414.426788v-1000.566711h278.069763c0,0 26.044739,-161.446228 38.667114,-337.981506c-36.200378,0 -315.181274,0 -315.181274,0c0,0 0,-195.891113 0,-230.224792c0,-34.400299 45.178284,-80.689789 89.845459,-80.689789c44.578247,0 138.645935,0 225.780273,0c0,-45.84491 0,-204.246719 0,-350.537209c-116.334595,0 -248.647217,0 -306.981201,0c-434.871475,-0.021993 -424.626923,337.026009 -424.626923,387.337593z" id="Facebook"/>
 </g>
</svg>
