<svg width="1000" height="1000"
 viewBox="0 0 1000 1000"
 xmlns="http://www.w3.org/2000/svg">
 <metadata id="metadata3060">image/svg+xml</metadata>
 <g>
  <title>Layer 1</title>
  <g id="layer1">
   <path fill="#000000" d="m182.57957,0l634.8409,0c101.14905,0 182.57953,81.43048 182.57953,182.57956l0,634.84091c0,101.14905 -81.43048,182.57953 -182.57953,182.57953l-634.8409,0c-101.14908,0 -182.57956,-81.43048 -182.57956,-182.57953l0,-634.84091c0,-101.14908 81.43048,-182.57956 182.57956,-182.57956z" id="rect3063"/>
   <path fill="#ffffff" fill-rule="nonzero" d="m526.66534,999.99969l0,-390.94159l-103.37292,0l0,-140.75745l103.37292,0c0,0 0,-57.68024 0,-120.22552c0,-94.47455 61.06256,-181.23264 201.76453,-181.23264c56.96777,0 99.09351,5.46132 99.09351,5.46132l-3.31934,131.44359c0,0 -42.96124,-0.41745 -89.84192,-0.41745c-50.73932,0 -58.86823,23.3826 -58.86823,62.19208c0,30.67902 0,-65.39746 0,102.77893l152.74347,0l-6.64624,140.75745l-146.09723,0l0,390.94159l-148.82855,0" id="path18"/>
  </g>
 </g>
</svg>
