<svg width="486.03677" height="1000"
 viewBox="0 0 486.03677 1000"
 xmlns="http://www.w3.org/2000/svg">
 <metadata id="metadata3014">image/svg+xml</metadata>
 <g>
  <title>Layer 1</title>
  <g id="layer1">
   <path fill="#000000" fill-rule="nonzero" d="m124.07373,1000l0,-469.22906l-124.07373,0l0,-168.94467l124.07373,0c0,0 0,-69.2309 0,-144.30106c0,-113.39348 73.29059,-217.52521 242.1687,-217.52521c68.37573,0 118.93732,6.55495 118.93732,6.55495l-3.98401,157.76567c0,0 -51.56445,-0.50179 -107.83313,-0.50179c-60.90002,0 -70.65677,28.06506 -70.65677,74.64627c0,36.82262 0,-78.49355 0,123.36079l183.3309,0l-7.97717,168.94467l-175.35373,0l0,469.22906l-178.63211,0" id="path18"/>
  </g>
 </g>
</svg>
