<svg xmlns="http://www.w3.org/2000/svg" width="957.348" height="1000" version="1"><path d="M717 0c-47 0-98 8-150 36-58-21-120-39-206-32-194 18-268 116-279 255-41 5-79 15-82 123-3 122 36 142 76 156l3 358c6 42-2 89 94 100l144 3c53 7 89-27 109-103 7 62 34 96 85 97h167c38-10 79-13 85-82l3-373 44 3c36-5 72-11 97-70v-112c-7-46-20-40-32-50 34-8 70-11 82-94l-3-91c1-57-31-90-110-111-37-5-80-14-127-13zm-333 87c23 0 55 3 121 25l2 108c-35-12-65-26-89-23-75-4-82 35-87 75v77l193 2c5-102-23-232 146-254 74-10 141 0 192 22l-2 114c-26-21-62-28-100-33-104-15-80 79-85 147h139v102h-139l2 461-154-4v-457l-199 4v453h-154l4-453h-75l-2-114 81 4-2-31c4-74-3-203 157-223 20 1 32-1 50-1z"/></svg>