<svg xmlns="http://www.w3.org/2000/svg" width="957" height="1000" version="1"><path d="M716.912 0c-47.213 .083 -98.225 8.416 -150.064 36.045 -58.326 -20.952 -119.915 -38.638 -205.54 -32.291 -193.658 18.033 -267.577 115.888 -278.946 255.447 -40.837 4.652 -79.428 15.421 -82.229 123.312 -2.68 122.192 35.56 142.107 76.346 155.634l2.942 358.202c5.763 42.297 -2.143 89.433 93.963 99.845l143.87 2.942c52.66 6.862 89.196 -26.6 108.637 -102.786 6.832 61.932 34.051 95.866 85.17 96.903l167.367 0c37.832 -10.083 79.332 -13.433 85.138 -82.229l2.942 -372.877 44.025 2.91c35.955 -5.207 71.771 -11.146 96.903 -70.464l0 -111.579c-7.266 -45.549 -19.589 -40.149 -32.291 -49.907 34.192 -7.566 69.505 -11.149 82.198 -93.963l-2.91 -91.021c1.195 -57.109 -30.624 -89.554 -110.358 -110.703 -36.535 -5.334 -79.948 -13.507 -127.16 -13.423zm-333.327 87.391c23.019 -.257 54.745 3.486 121.278 24.812l2.066 107.98c-34.62 -12.135 -64.936 -26.136 -89.269 -22.842 -75.301 -3.536 -82.365 34.895 -87.204 74.719l0 76.847l193.088 2.066c4.647 -101.809 -22.732 -231.625 145.934 -254.071 73.63 -9.793 141.276 -.385 192.493 21.527l-2.066 114.207c-26.481 -21.181 -62.23 -28.468 -99.657 -33.23 -104.108 -14.637 -80.128 78.591 -85.138 147.405l139.114 0l0 101.753l-139.114 0l2.066 460.926 -153.632 -4.161l0 -456.764l-199.315 4.13l0 452.634l-153.632 0l4.13 -452.634l-74.75 0l-2.066 -114.175 80.977 4.161 -2.066 -31.164c3.628 -74.406 -2.875 -202.671 156.573 -222.656 19.648 1.352 32.285 -1.271 50.188 -1.471z"/></svg>