<svg xmlns="http://www.w3.org/2000/svg" width="1000" height="1000" version="1"><path d="M196 0c-108 0-196 88-196 196v608c0 108 88 196 196 196h608c108 0 196-88 196-196v-608c0-108-88-196-196-196h-608zm478 138c35 0 66 6 93 10 58 15 82 39 81 81l2 67c-9 61-35 63-60 69 9 7 18 3 24 37v82c-18 43-45 48-71 52l-32-2-2 273c-4 50-35 53-62 60h-122c-37-1-57-26-62-71-14 56-41 80-80 75l-105-2c-70-8-65-42-69-73l-2-262c-30-10-58-24-56-114 2-79 30-87 60-90 8-102 62-174 204-187 63-5 108 8 150 24 38-20 75-26 110-26zm-244 64c-13 0-22 2-37 1-117 15-112 108-115 163l2 23-59-3 2 84h55l-3 331h112v-331l146-3v334l112 3-2-337h102v-74h-102c4-50-14-119 62-108 27 3 54 9 73 24l2-84c-37-16-87-23-141-16-123 16-103 111-107 186l-141-2v-56c4-29 9-57 64-55 18-2 40 8 65 17l-2-79c-49-16-72-18-89-18z"/></svg>