<svg xmlns="http://www.w3.org/2000/svg" width="1228" height="1000"><path d="M1079.14 -.985c-33.192 -.491 -110.295 10.777 -239.027 96.936 -70.161 -17.535 -144.812 -26.188 -219.591 -26.188 -82.278 0 -165.425 10.448 -242.965 31.719 -184.823 -126.087 -266.402 -100.248 -266.402 -100.248 -53.258 133.183 -20.347 231.788 -10.344 256.277 -62.597 67.558 -100.811 153.827 -100.811 259.559 0 79.822 9.085 151.416 31.281 213.653 1.231 4.803 .832 3.732 2.906 7.844 4.89 12.884 10.327 25.39 16.438 37.468 2.094 4.346 4 7.563 4 7.563 62.395 116.307 185.396 191.438 404.244 215.028l330.995 .375c233.392 -23.144 345.386 -98.499 396.994 -215.591l3.281 -7.625c4.89 -11.828 9.153 -24.135 20.813 -65.562 11.659 -41.427 16.875 -113.172 16.875 -193.185 0 -114.755 -43.1 -206.577 -113.092 -276.434 12.231 -39.48 28.57 -127.158 -16.313 -239.402 0 0 -6.293 -1.995 -19.281 -2.188zm-260.84 421.118c53.893 -.117 100.057 9.136 134.717 45.499l0 .031c43.369 45.541 68.749 100.525 68.749 159.778 0 276.658 -177.932 284.183 -397.4 284.183 -219.506 0 -397.4 -38.336 -397.4 -284.183 0 -58.861 25.009 -113.516 67.843 -158.872 71.451 -75.59 192.365 -35.562 329.558 -35.562 70.423 -.011 136.564 -10.75 193.935 -10.875zm-408.807 81.468c-45.666 0 -82.687 61.741 -82.687 137.936 0 76.206 37.019 137.967 82.687 137.967 45.666 0 82.687 -61.761 82.687 -137.967 0 -76.184 -37.019 -137.881 -82.687 -137.936zm443.649 0c-45.666 0 -82.687 61.741 -82.687 137.936 0 76.206 37.019 137.967 82.687 137.967 45.666 0 82.687 -61.761 82.687 -137.967 0 -76.184 -37.019 -137.881 -82.687 -137.936z"/></svg>