<svg width="924.464" height="1000" xmlns="http://www.w3.org/2000/svg"><path d="M527 0c-21 0-39 8-54 24s-22 35-22 58c0 22 7 41 22 57s33 24 54 24c20 0 38-8 53-24s22-35 22-57c0-23-7-42-22-58s-33-24-53-24zm164 156c2 12 3 29 3 49v43h-54v106c15-2 28-3 37-3l16 1v2h-1v196c0 61 8 106 23 134 20 38 57 57 110 57 38 0 70-7 97-22v-109c-18 12-39 19-61 19-32 0-48-24-48-73v-203h47c9 0 18 0 28 1s17 1 20 1v-106h-95v-45c0-17 1-33 3-47h-127zm-501 86c-50 0-92 16-128 49-37 35-56 79-56 131 0 35 10 68 31 98 18 28 39 47 62 55v2c-23 10-35 36-35 77 0 31 12 55 37 70v2c-68 23-102 64-102 126 0 53 23 92 68 117 36 20 81 30 137 30 135 0 202-56 202-169 0-71-52-114-156-130-24-4-42-12-55-26-9-9-14-19-14-28 0-27 15-43 44-47 44-7 81-27 109-62s42-75 42-122c0-15-3-30-9-47 19-4 34-8 44-12v-113c-46 17-86 26-121 26-31-17-64-26-99-26zm274 5c1 13 2 37 2 71v340c0 35-1 60-2 74h124c-1-17-2-44-2-81v-336c0-32 1-55 2-69h-124zm-270 95c22 0 39 8 51 25 10 15 15 34 15 55 0 51-22 77-67 77-46 0-69-25-69-75 0-54 23-81 69-81zm8 445c61 0 92 19 92 56 0 39-28 59-84 59-64 0-96-19-96-57 0-39 30-58 89-58z"/></svg>