<svg xmlns="http://www.w3.org/2000/svg" width="1227.825" height="1000"><path d="M1079-1c-33 0-110 11-239 97-70-18-145-26-220-26-82 0-165 10-243 32-185-126-266-100-266-100-53 133-20 232-10 256-63 68-101 154-101 260 0 80 9 151 31 214 1 5 1 4 3 8 5 13 10 25 16 37 2 4 4 8 4 8 62 116 185 191 404 215h331c233-23 345-98 397-216l3-8c5-12 9-24 21-66 12-41 17-113 17-193 0-115-43-207-113-276 12-39 29-127-16-239 0 0-6-2-19-2zm-261 421c54 0 100 9 135 45 43 46 69 101 69 160 0 277-178 284-397 284-220 0-397-38-397-284 0-59 25-114 68-159 71-76 192-36 330-36 70 0 137-11 194-11zm-409 81c-46 0-83 62-83 138s37 138 83 138 83-62 83-138-37-138-83-138zm444 0c-46 0-83 62-83 138s37 138 83 138 83-62 83-138-37-138-83-138z"/></svg>