<?xml version="1.0" encoding="UTF-8" standalone="no"?>
<svg
   xmlns:dc="http://purl.org/dc/elements/1.1/"
   xmlns:cc="http://creativecommons.org/ns#"
   xmlns:rdf="http://www.w3.org/1999/02/22-rdf-syntax-ns#"
   xmlns:svg="http://www.w3.org/2000/svg"
   xmlns="http://www.w3.org/2000/svg"
   xmlns:sodipodi="http://sodipodi.sourceforge.net/DTD/sodipodi-0.dtd"
   xmlns:inkscape="http://www.inkscape.org/namespaces/inkscape"
   viewBox="-0.2 -1 1227.8456 1000"
   id="svg2"
   version="1.1"
   inkscape:version="0.48.3.1 r9886"
   width="100%"
   height="100%"
   sodipodi:docname="github.svg">
  <metadata
     id="metadata24">
    <rdf:RDF>
      <cc:Work
         rdf:about="">
        <dc:format>image/svg+xml</dc:format>
        <dc:type
           rdf:resource="http://purl.org/dc/dcmitype/StillImage" />
      </cc:Work>
    </rdf:RDF>
  </metadata>
  <defs
     id="defs22" />
  <sodipodi:namedview
     pagecolor="#ffffff"
     bordercolor="#666666"
     borderopacity="1"
     objecttolerance="10"
     gridtolerance="10"
     guidetolerance="10"
     inkscape:pageopacity="0"
     inkscape:pageshadow="2"
     inkscape:window-width="1366"
     inkscape:window-height="744"
     id="namedview20"
     showgrid="false"
     fit-margin-top="0"
     fit-margin-left="0"
     fit-margin-right="0"
     fit-margin-bottom="0"
     inkscape:zoom="0.261"
     inkscape:cx="613.92279"
     inkscape:cy="500"
     inkscape:window-x="0"
     inkscape:window-y="24"
     inkscape:window-maximized="1"
     inkscape:current-layer="svg2" />
  <path
     id="path3043"
     style="fill:#000000"
     d="m 491.98784,639.52678 c 0,76.20667 -37.02251,137.97144 -82.6899,137.97144 -45.6674,0 -82.68993,-61.76477 -82.68993,-137.97144 0,-76.19579 37.02253,-137.93877 82.68993,-137.93877 45.66739,0.0545 82.6899,61.75387 82.6899,137.93877 z m 443.65959,0 c 0,76.20667 -37.02248,137.97144 -82.6899,137.97144 -45.66737,0 -82.68991,-61.76477 -82.68991,-137.97144 0,-76.19579 37.02254,-137.93877 82.68991,-137.93877 45.66742,0.0545 82.6899,61.75387 82.6899,137.93877 z m 17.19575,-173.86929 c 43.36991,45.54212 68.74072,100.53792 68.74072,159.79224 0,276.66171 -177.93369,284.1604 -397.40493,284.1604 -219.50885,0 -397.42373,-38.31028 -397.42373,-284.1604 0,-58.86223 25.0137,-113.51495 67.84802,-158.87192 71.45161,-75.59132 192.37621,-35.56566 329.57101,-35.56566 136.57931,-0.0218 257.09046,-40.45587 328.64542,34.61811 z M 789.6778,999 c 233.3959,-23.14409 345.3969,-98.50669 397.0055,-215.59944 l 3.2783,-7.62938 c 4.8902,-11.828 9.1596,-24.12976 20.8188,-65.55767 11.6592,-41.42792 16.8652,-113.18004 16.8652,-193.19324 0,-114.75656 -43.1133,-206.55964 -113.1065,-276.41666 12.231,-39.4811 28.568,-127.1618 -16.3152,-239.4079042 0,0 -79.1855,-25.1426498 -258.29348,94.7328402 -70.16198,-17.53506 -144.83298,-26.19367 -219.61289,-26.19367 -82.2786,0 -165.41761,10.47747 -242.95848,31.748254 C 192.53308,-24.605874 110.94064,1.2229258 110.94064,1.2229258 57.682,134.40764 90.61196,233.02324 100.61565,257.51241 38.0177,325.07136 -0.2,411.31441 -0.2,517.04749 c 0,79.82261 9.08882,151.43314 31.28536,213.67167 1.23084,4.8027 0.82321,3.72506 2.8971,7.83632 4.89021,12.88445 10.34132,25.38226 16.45136,37.46075 2.09444,4.34646 3.99168,7.58582 3.99168,7.58582 62.39646,116.30858 185.4141,191.42612 404.2646,215.01675" />
</svg>
