<svg width="1000.6579px" height="1000px"
 viewBox="0 0 1000.6579 1000"
 xmlns="http://www.w3.org/2000/svg">
 <metadata id="metadata8">image/svg+xml</metadata>
 <g>
  <title>Layer 1</title>
  <g id="g10">
   <path fill="#000000" fill-rule="nonzero" d="m907.89471,0l-815.78949,0c-50.86842,0 -92.10526,26.31577 -92.10526,92.10526l0,828.94742c0,50.86841 41.23684,78.94733 92.10526,78.94733l815.78949,0c50.86853,0 92.10529,-28.07892 92.10529,-78.94733l0,-828.94742c0,-65.78949 -41.23676,-92.10526 -92.10529,-92.10526" id="path14"/>
   <path fill="#ffffff" fill-rule="nonzero" d="m736.8421,78.9473l0,184.21051l-184.21051,0l0,77.32895l184.21051,0l0,185.82892l78.94733,0l0,-185.82892l184.86835,0l0,-77.32895l-184.86835,0l0,-184.21051l-78.94733,0" id="path16"/>
   <path fill="#ffffff" fill-rule="nonzero" d="m233.06577,526.3158c-124.93423,0 -176.22368,-144.43423 -176.22368,-242.05264c0,-37.98683 3.8026,-77.28951 28.49998,-107.92107c23.28949,-29.15787 63.92105,-48.10524 101.72371,-48.10524c120.49998,0 181.3553,163.26315 181.3553,268.24997c0,21.01318 -10.6842,62.11847 -37.94739,93.34213c-23.89474,27.24997 -61.11844,36.48685 -97.40793,36.48685zm185.35532,185l-52.36847,-40.73688c-15.94736,-13.14471 -37.72369,-30.63159 -37.72369,-62.67108c0,-32.11841 21.77634,-52.57892 40.65787,-71.48682c61.01318,-48.03943 117.85532,-99.1579 117.85532,-207.01312c0,-98.46056 -53.19742,-153.75002 -88.85529,-184.67111c11.96051,0 89.01318,0 89.01318,0l81.55261,-65.78949l-307.01318,0c-76.17104,1.40793 -167.01313,12.8553 -249.81579,81.39473c-3.88157,3.32901 -8.09208,7.21062 -11.72367,10.7106l0,355.26317c39.81579,33.10522 93.93421,58.22363 159.84207,58.22363c14.56581,0 30.48688,-1.49994 46.50002,-2.93414c-7.24998,17.51312 -14.52629,32.11841 -14.52629,56.90784c0,45.14478 23.21053,72.80267 43.57892,99.07898c-55.52628,3.76312 -169.60526,-5.6842 -235.39471,46.94733l0,83.88165c29.97368,-40.75006 77.86842,-58.96057 98.85525,-66.63159c60.98685,-20.43427 139.44736,-23.36841 152.57896,-23.36841c14.44736,0 21.72366,0 33.30264,1.49994c110.44739,78.76318 189.59216,119.27637 190.4079,193.76318c0.1579,14.4342 -3.92108,18.92108 -6.0921,26.3158l85.03943,0c8.76324,-20.47369 11.69739,-44.6842 11.69739,-71.63159c0,-100.61841 -83.49994,-163.0921 -147.36835,-217.05261" id="path32"/>
  </g>
 </g>
</svg>
