<svg xmlns="http://www.w3.org/2000/svg" width="1000.658" height="1000"><path d="M92 0c-51 0-92 26-92 92v79c4-4 8-7 12-11 83-69 174-80 250-81h307l-82 66h-89c36 31 89 86 89 185 0 108-57 159-118 207-19 19-41 39-41 72 0 32 22 50 38 63l52 41c64 54 147 116 147 217 0 27-3 51-12 72h354c51 0 92-28 92-79v-581h-184v186h-79v-186h-184v-77h184v-184h79v184h184v-171c0-66-41-92-92-92h-816zm908 263v77h1v-77h-1zm-813-135c-38 0-78 19-102 48-25 31-29 70-29 108 0 98 51 242 176 242 36 0 74-9 97-36 27-31 38-72 38-93 0-105-61-268-181-268zm-187 398v258c66-53 180-43 235-47-20-26-44-54-44-99 0-25 7-39 15-57-16 1-32 3-47 3-66 0-120-25-160-58zm251 252c-13 0-92 3-153 23-21 8-69 26-99 67v53c0 51 41 79 92 79h377c2-7 6-12 6-26-1-74-80-115-190-194-12-2-19-2-33-2z"/></svg>