<svg xmlns="http://www.w3.org/2000/svg" width="981" height="1000"><path d="M354.545 27.284c-31.01 -7.051 -56.394 -4.231 -83.173 9.872 -29.614 18.333 -46.537 46.537 -53.588 86.008 -7.051 40.881 0 80.367 21.153 119.838l9.871 14.088 -33.845 -11.282c-42.292 -9.871 -81.777 -4.231 -121.248 16.922 -40.881 21.153 -66.265 50.753 -83.187 91.649 -15.512 39.485 -14.088 77.547 5.641 112.787 8.461 15.512 21.153 28.19 32.42 36.651 16.922 16.923 38.075 26.794 63.445 31.01l9.871 2.82 -21.153 18.333c-19.743 16.922 -31.01 38.061 -38.061 59.214 -7.051 25.384 -4.231 50.753 9.871 74.726 7.051 11.267 14.088 21.139 25.369 28.189 11.282 9.871 25.384 16.923 42.292 18.318 31.024 7.051 63.445 7.051 98.685 -4.245l-25.384 42.292 -7.051 18.347c-14.088 45.112 -9.871 84.597 11.282 125.465 9.871 15.511 21.153 29.628 32.435 42.291 16.922 15.512 38.061 25.383 63.445 32.435 42.292 11.267 84.598 9.871 125.479 -11.267 39.486 -21.168 64.855 -54.998 77.547 -97.303l1.41 -8.462c26.779 29.629 52.163 49.357 80.367 56.408 28.19 8.461 56.394 7.051 81.777 -9.871 23.973 -14.102 40.881 -38.075 49.343 -67.675 7.051 -31.025 7.051 -62.035 0 -97.275 14.088 9.871 28.19 16.894 45.112 21.139 45.112 14.102 84.583 12.678 124.069 -8.461 38.075 -21.139 63.445 -54.998 76.136 -98.7 11.282 -42.292 8.461 -83.159 -12.692 -122.644l-7.051 -11.282c-11.282 -16.922 -22.549 -33.845 -39.471 -45.112 -14.087 -9.871 -31.01 -16.922 -46.522 -23.973 43.716 -21.153 74.726 -50.753 88.828 -88.828 9.871 -31.024 7.051 -56.393 -7.051 -81.777l0 -2.82c-16.908 -28.204 -39.471 -46.537 -74.712 -56.393 -21.153 -4.231 -45.126 -4.231 -66.265 -2.82l-46.522 9.871 15.512 -35.24c14.102 -45.112 9.871 -88.828 -14.102 -129.709l-4.231 -7.051c-21.153 -35.255 -52.163 -56.393 -94.455 -67.675 -43.702 -11.281 -84.583 -7.051 -124.069 14.102 -39.471 21.139 -67.675 53.573 -80.353 95.879l0 2.82l-1.41 9.872 -5.641 -9.872 -14.102 -25.384c-22.578 -35.197 -50.781 -56.35 -86.022 -66.222zm359.529 84.597c7.051 14.088 11.281 31.01 11.281 49.343l-4.231 31.01c-5.641 15.512 -12.692 29.614 -21.153 42.292l-126.889 155.108c-12.692 -9.872 -26.794 -16.923 -40.896 -23.974l-14.088 -159.309 -1.41 -56.393 1.41 -14.088c7.051 -28.189 26.779 -49.342 52.163 -63.445 25.369 -14.088 53.573 -16.922 80.353 -7.051 29.614 7.037 50.767 22.549 63.459 46.508zm-437.075 28.204c1.41 -25.384 11.282 -42.292 28.19 -52.163 8.461 -7.051 21.153 -7.051 32.42 -1.41 25.384 7.051 46.522 25.384 63.445 60.624 7.051 14.102 14.102 28.189 16.922 45.112l28.19 166.375 -21.153 7.051 -125.479 -136.761 -7.051 -14.088c-11.253 -25.398 -18.304 -49.357 -15.483 -74.741zm-76.136 164.95l38.075 15.512 124.069 90.238c-11.282 14.088 -18.318 28.189 -22.549 42.292l-203.026 25.384 -14.102 -2.82c-25.384 -4.231 -42.292 -15.512 -53.573 -36.651 -11.282 -21.153 -11.282 -42.292 -2.82 -63.445 9.871 -26.794 28.19 -47.947 54.983 -59.214 25.369 -14.116 50.738 -18.347 78.942 -11.296zm133.94 229.805l9.871 28.204 4.231 9.871c-21.153 18.318 -36.665 35.241 -53.573 50.753l-42.306 35.255 -11.282 7.051c-26.794 12.678 -49.343 16.923 -73.316 14.088 -21.153 -1.41 -38.075 -8.461 -45.126 -21.139l-4.231 -15.512 2.82 -12.677c7.051 -21.167 25.384 -42.292 57.818 -57.818 16.908 -7.051 31.01 -14.102 42.292 -16.922l112.801 -21.153zm439.881 -228.395c25.384 -11.281 49.343 -14.102 74.726 -11.281 23.973 2.82 40.896 14.088 49.342 31.01l5.641 18.318 -2.82 14.102c-9.871 25.384 -31.024 45.112 -66.265 60.624 -14.087 7.051 -29.6 9.872 -46.522 12.677l-173.411 21.153 -2.82 -9.871 -2.82 -4.216 5.641 -7.051 142.401 -118.428 16.908 -7.037zm-359.514 133.94c16.908 -15.512 39.471 -25.369 66.265 -25.369 25.384 0 49.343 9.871 64.855 25.369 19.743 19.743 28.204 40.896 28.204 66.265s-8.461 49.343 -28.204 66.265c-18.333 18.319 -39.471 28.19 -64.855 28.19 -26.794 0 -49.357 -9.871 -66.265 -28.19 -18.333 -16.922 -28.19 -40.896 -28.19 -66.265s9.857 -46.522 28.19 -66.265zm32.42 204.436c2.82 47.947 7.051 98.699 14.102 153.683l0 56.408l-1.41 14.102c-9.871 25.355 -26.794 46.508 -52.163 57.789 -25.369 14.102 -52.163 16.923 -77.547 9.872 -28.19 -7.022 -49.343 -23.945 -60.624 -46.508 -7.051 -14.102 -12.692 -31.025 -12.692 -47.947l7.051 -32.405c2.82 -14.102 9.871 -28.219 21.153 -39.485l118.428 -141.006c14.102 7.036 28.19 14.088 43.702 15.498zm108.571 -18.332l59.214 60.624 36.651 45.112 7.051 14.102c12.692 23.974 19.743 46.537 16.922 73.331 -2.82 25.383 -11.282 43.701 -28.19 50.752 -9.871 7.051 -21.153 7.051 -32.42 5.627 -26.794 -7.022 -47.947 -28.19 -63.445 -62.035l-16.922 -46.508 -21.153 -122.673 23.973 -8.461 18.318 -9.871zm63.445 -87.418l159.324 -14.088 56.394 -1.411 14.102 1.411c21.153 7.051 40.896 19.743 52.163 40.881 14.088 15.512 21.139 36.651 21.139 60.624l-4.216 28.189c-7.051 28.219 -23.973 49.357 -47.947 60.624 -25.384 14.102 -50.753 16.922 -78.957 7.051 -16.922 -4.216 -28.19 -11.267 -38.075 -22.535l-148.042 -122.673 9.871 -21.139 4.245 -16.937z" fill="#020202"/></svg>