<svg xmlns="http://www.w3.org/2000/svg" width="981.393" height="1000"><path d="M355 27c-31-7-56-4-83 10-30 18-47 47-54 86-7 41 0 80 21 120l10 14-34-11c-42-10-82-4-121 17-41 21-66 51-83 92-16 39-14 78 6 113 8 16 21 28 32 37 17 17 38 27 63 31l10 3-21 18c-20 17-31 38-38 59-7 25-4 51 10 75 7 11 14 21 25 28 11 10 25 17 42 18 31 7 63 7 99-4l-25 42-7 18c-14 45-10 85 11 125 10 16 21 30 32 42 17 16 38 25 63 32 42 11 85 10 125-11 39-21 65-55 78-97l1-8c27 30 52 49 80 56 28 8 56 7 82-10 24-14 41-38 49-68 7-31 7-62 0-97 14 10 28 17 45 21 45 14 85 13 124-8 38-21 63-55 76-99 11-42 8-83-13-123l-7-11c-11-17-23-34-39-45-14-10-31-17-47-24 44-21 75-51 89-89 10-31 7-56-7-82v-3c-17-28-39-47-75-56-21-4-45-4-66-3l-47 10 16-35c14-45 10-89-14-130l-4-7c-21-35-52-56-94-68-44-11-85-7-124 14s-68 54-80 96v3l-1 10-6-10-14-25c-23-35-51-56-86-66zm360 85c7 14 11 31 11 49l-4 31c-6 16-13 30-21 42l-127 155c-13-10-27-17-41-24l-14-159-1-56 1-14c7-28 27-49 52-63s54-17 80-7c30 7 51 23 63 47zm-437 28c1-25 11-42 28-52 8-7 21-7 32-1 25 7 47 25 63 61 7 14 14 28 17 45l28 166-21 7-125-137-7-14c-11-25-18-49-15-75zm-76 165l38 16 124 90c-11 14-18 28-23 42l-203 25-14-3c-25-4-42-16-54-37-11-21-11-42-3-63 10-27 28-48 55-59 25-14 51-18 79-11zm134 230l10 28 4 10c-21 18-37 35-54 51l-42 35-11 7c-27 13-49 17-73 14-21-1-38-8-45-21l-4-16 3-13c7-21 25-42 58-58 17-7 31-14 42-17l113-21zm440-228c25-11 49-14 75-11 24 3 41 14 49 31l6 18-3 14c-10 25-31 45-66 61-14 7-30 10-47 13l-173 21-3-10-3-4 6-7 142-118 17-7zm-360 134c17-16 39-25 66-25 25 0 49 10 65 25 20 20 28 41 28 66s-8 49-28 66c-18 18-39 28-65 28-27 0-49-10-66-28-18-17-28-41-28-66s10-47 28-66zm32 204c3 48 7 99 14 154v56l-1 14c-10 25-27 47-52 58-25 14-52 17-78 10-28-7-49-24-61-47-7-14-13-31-13-48l7-32c3-14 10-28 21-39l118-141c14 7 28 14 44 15zm109-18l59 61 37 45 7 14c13 24 20 47 17 73-3 25-11 44-28 51-10 7-21 7-32 6-27-7-48-28-63-62l-17-47-21-123 24-8 18-10zm63-87l159-14 56-1 14 1c21 7 41 20 52 41 14 16 21 37 21 61l-4 28c-7 28-24 49-48 61-25 14-51 17-79 7-17-4-28-11-38-23l-148-123 10-21 4-17z" fill="#020202"/></svg>