<?xml version="1.0" encoding="utf-8"?>
<!-- Generator: Adobe Illustrator 16.1.0, SVG Export Plug-In . SVG Version: 6.00 Build 0)  -->
<!DOCTYPE svg PUBLIC "-//W3C//DTD SVG 1.1//EN" "http://www.w3.org/Graphics/SVG/1.1/DTD/svg11.dtd">
<svg version="1.1" id="Layer_1" xmlns="http://www.w3.org/2000/svg" xmlns:xlink="http://www.w3.org/1999/xlink" x="0px" y="0px"
	 width="1133.86px" height="1133.86px" viewBox="0 0 1133.86 1133.86" enable-background="new 0 0 1133.86 1133.86"
	 xml:space="preserve">
<g>
	<path d="M660.967,579.146c0-49.282-40.104-89.384-89.396-89.384c-49.286,0-89.389,40.102-89.389,89.384
		c0,49.295,40.103,89.389,89.389,89.389C620.863,668.535,660.967,628.441,660.967,579.146z"/>
	<path d="M793.777,113.85H340.08c-124.999,0-226.694,101.696-226.694,226.694v63.163h333.58
		c35.199-25.073,78.188-39.885,124.605-39.885c46.416,0,89.412,14.812,124.612,39.885h169.151h155.137v-63.163
		C1020.471,215.545,918.775,113.85,793.777,113.85z M885.585,329.454c0,13.853-11.331,25.188-25.188,25.188h-77.827
		c-13.856,0-25.188-11.336-25.188-25.188v-77.832c0-13.852,11.332-25.188,25.188-25.188h77.827
		c13.857,0,25.188,11.335,25.188,25.188V329.454z"/>
	<path d="M786.906,579.146c0,118.742-96.604,215.328-215.336,215.328c-118.735,0-215.33-96.586-215.33-215.328
		c0-32.69,7.363-63.691,20.457-91.479H113.386v310.284c0,125.007,101.695,226.694,226.694,226.694h453.698
		c124.998,0,226.693-101.688,226.693-226.694V487.667H766.449C779.543,515.455,786.906,546.457,786.906,579.146z"/>
</g>
</svg>
