<svg width="1000" height="1000" xmlns="http://www.w3.org/2000/svg"><title>Layer 1</title><path d="M604 511c0-54-44-98-98-98s-98 44-98 98 44 98 98 98 98-44 98-98zm146-510h-500c-138 0-250 112-250 249v69h367c39-27 86-44 137-44s98 16 137 44h357v-69c0-137-112-249-250-249zm101 236c0 15-12 28-28 28h-86c-15 0-28-12-28-28v-85c0-15 12-28 28-28h86c15 0 28 12 28 28v85zm-109 274c0 130-106 236-237 236s-237-106-237-236c0-36 8-70 23-100h-290v340c0 137 112 249 250 249h500c138 0 250-112 250-249v-340h-280c14 30 23 64 23 100z"/></svg>