<?xml version="1.0" encoding="utf-8"?>
<!-- Generator: Adobe Illustrator 16.1.0, SVG Export Plug-In . SVG Version: 6.00 Build 0)  -->
<!DOCTYPE svg PUBLIC "-//W3C//DTD SVG 1.1//EN" "http://www.w3.org/Graphics/SVG/1.1/DTD/svg11.dtd">
<svg version="1.1" id="Layer_1" xmlns="http://www.w3.org/2000/svg" xmlns:xlink="http://www.w3.org/1999/xlink" x="0px" y="0px"
	 width="1133.86px" height="1133.86px" viewBox="0 0 1133.86 1133.86" enable-background="new 0 0 1133.86 1133.86"
	 xml:space="preserve">
<g>
	<path d="M793.779,113.851h-453.7c-124.998,0-226.694,101.696-226.694,226.694v457.417c0,124.99,101.696,226.694,226.694,226.694
		h453.7c124.997,0,226.693-101.704,226.693-226.694V340.544C1020.473,215.546,918.776,113.851,793.779,113.851z M936.512,797.961
		c0,78.697-64.028,142.734-142.732,142.734h-453.7c-78.705,0-142.733-64.037-142.733-142.734V502.533h179.351
		c-13.094,27.788-20.457,58.789-20.457,91.48c0,118.74,96.596,215.329,215.33,215.329c118.733,0,215.33-96.589,215.33-215.329
		c0-32.691-7.363-63.693-20.459-91.48h170.07V797.961z M482.181,594.014c0-49.283,40.099-89.385,89.389-89.385
		c49.293,0,89.389,40.103,89.389,89.385c0,49.293-40.096,89.388-89.389,89.388C522.28,683.401,482.181,643.307,482.181,594.014z
		 M936.512,418.573H696.183c-35.208-25.073-78.196-39.886-124.612-39.886c-46.417,0-89.41,14.812-124.609,39.886H197.346v-78.028
		c0-78.705,64.028-142.733,142.733-142.733h453.7c78.704,0,142.732,64.028,142.732,142.733V418.573z"/>
	<path d="M845.533,248.733h-77.828c-13.857,0-25.188,11.335-25.188,25.188v77.832c0,13.852,11.33,25.188,25.188,25.188h77.828
		c13.856,0,25.188-11.336,25.188-25.188v-77.832C870.721,260.068,859.39,248.733,845.533,248.733z"/>
</g>
</svg>
