<svg width="1000" height="1000" xmlns="http://www.w3.org/2000/svg"><title>Layer 1</title><path d="M749 1h-499c-137 0-249 111-249 248v501c0 137 112 248 249 248h499c137 0 249-111 249-248v-501c0-137-112-248-249-248zm157 749c0 86-70 156-157 156h-499c-87 0-157-70-157-156v-324h197c-14 30-22 64-22 100 0 130 106 236 237 236s237-106 237-236c0-36-8-70-22-100h187v324zm-499-223c0-54 44-98 98-98s98 44 98 98-44 98-98 98-98-44-98-98zm499-192h-264c-39-27-86-44-137-44s-98 16-137 44h-274v-85c0-86 70-156 157-156h499c87 0 157 70 157 156v85zm-100-186h-86c-15 0-28 12-28 28v85c0 15 12 28 28 28h86c15 0 28-12 28-28v-85c0-15-12-28-28-28z"/></svg>