<svg width="1000" height="1000" xmlns="http://www.w3.org/2000/svg">
 <g>
  <title>Layer 1</title>
  <g>
   <path d="m749.35901,1.09507h-498.71577c-137.39991,0 -249.18607,111.41012 -249.18607,248.34753v501.10977c0,136.92865 111.78616,248.35126 249.18607,248.35126h498.71577c137.39954,0 249.18298,-111.42261 249.18298,-248.35126v-501.1109c0,-136.93739 -111.78345,-248.34642 -249.18298,-248.34642l0,0.00002zm156.89502,749.45614c0,86.21393 -70.38031,156.36798 -156.89392,156.36798h-498.71573c-86.51366,0 -156.89455,-70.15405 -156.89455,-156.36798v-323.64764h197.14632c-14.39316,30.44287 -22.48755,64.4043 -22.48755,100.21826c0,130.08264 106.18048,235.89697 236.69589,235.89697c130.51312,0 236.6947,-105.81433 236.6947,-235.89697c0,-35.81396 -8.09436,-69.77649 -22.48975,-100.21826h186.94458v323.64764l0,0zm-499.40945,-223.42834c0,-53.99023 44.07733,-97.92303 98.25876,-97.92303c54.18365,0 98.25757,43.9339 98.25757,97.92303c0,54.00128 -44.07391,97.92627 -98.25757,97.92627c-54.18143,-0.0011 -98.25876,-43.92499 -98.25876,-97.92627zm499.40945,-192.19946h-264.17389c-38.70111,-27.46762 -85.95441,-43.6954 -136.97565,-43.6954c-51.02246,0 -98.28125,16.22668 -136.97333,43.6954h-274.38248v-85.4808c0,-86.22276 70.38091,-156.36667 156.89455,-156.36667h498.71577c86.51355,0 156.89374,70.14391 156.89374,156.36667v85.4808l0.00128,0z"/>
   <path d="m806.24829,148.86093h-85.55005c-15.23187,0 -27.68713,12.41771 -27.68713,27.59395v85.26643c0,15.1752 12.45422,27.59399 27.68713,27.59399h85.55005c15.23077,0 27.68713,-12.41879 27.68713,-27.59399v-85.26643c0,-15.17624 -12.45526,-27.59395 -27.68713,-27.59395z"/>
  </g>
 </g>
</svg>
