<svg xmlns="http://www.w3.org/2000/svg" height="1000" width="667.188" version="1"><path d="M225 0c-4 0-9 0-13 1-18 2-37 2-55 5-35 5-68 16-101 29-12 5-24 10-35 16-4 2-11 4-14 7-2 2-2 6-2 8-1 7-1 13-2 20-2 25-4 51-1 76 1 8 4 23 14 24 15 2 27-17 35-27 18-24 38-47 67-58 34-13 73-16 109-18 101-7 212 12 286 86 11 11 21 22 29 34 33 48 51 103 59 161 4 27 7 54 1 81-11 47-39 87-71 122-22 24-47 45-73 65-14 11-31 20-44 32-16 14-29 31-39 49-27 49-34 108-26 163 2 11 3 23 6 34 1 3 1 9 3 12 4 5 15 8 21 8s11-5 12-10c3-10 1-21 0-31-3-20-6-41-5-61 2-38 16-73 43-101s63-44 94-68c61-47 116-111 138-187 8-27 10-56 7-84-4-35-17-71-29-104-37-102-101-198-202-245-40-18-82-27-126-33-20-3-41-5-61-5-7 0-15-1-22-1zm-53 422c-10 0-20 3-29 8-13 8-20 21-24 35-8 28-4 60 1 87 2 9 4 18 6 27 1 3 1 8 3 10 4 5 12 6 18 5 16-3 12-29 12-41-1-26-9-52-2-78 3-11 9-24 21-28 10-4 20 1 24 11 7 16 5 35 9 51 1 6 3 11 5 17 1 2 2 5 4 4 5 0 13-9 17-12 13-10 26-22 40-29 7-4 18-10 25-3 2 2 3 3 4 5 8 13 0 23-5 35-7 16-14 32-24 46-9 12-20 23-27 36-4 9-7 18-5 28 1 8 8 13 16 11 6-1 10-7 13-11 6-8 12-17 18-26 12-16 25-32 35-49 12-21 18-45 18-69 0-20-7-50-30-54-4-1-9 0-14 0-5 1-11 3-16 5-13 6-24 16-34 27-6 7-11 15-19 21 0-15-3-30-11-43-11-16-31-25-50-25zm-115 236c-1 0-2 0-3 0-20 3-25 19-22 36 5 23 23 40 40 54 46 35 104 54 162 52 22-1 47-5 67-14 11-5 23-23 8-31-2-1-5-2-7-2-7-1-14 2-20 3-11 3-22 6-33 8-34 5-70-2-98-22-23-16-41-37-58-59-10-12-19-26-36-25zm-21 111c-3 0-6 0-8 1-5 1-11 0-15 4-9 7 1 20 6 26 14 17 32 32 50 45 50 35 107 56 168 60 18 1 35 0 53-3 6-1 14-2 20-4 17-8 12-39-3-46-6-3-17 1-24 2-16 2-32 2-48 2-42-1-87-14-124-35-14-8-28-18-40-29-8-7-15-18-25-21-2-1-5-1-8-1zm3 95s-1 0-1 0c-7 1-13 5-17 10-3 4-6 7-8 12-10 25 17 49 36 61 21 13 44 23 67 32 53 19 115 31 169 14 16-5 32-14 44-26 7-7 11-17-1-22-7-3-16 4-23 7-16 6-32 11-48 13-22 3-42-2-63-7-18-5-36-9-54-16-15-6-30-12-43-21-4-3-9-5-12-9-10-12-18-25-29-37-5-5-11-10-18-10z"/></svg>