<?xml version="1.0" encoding="UTF-8" standalone="no"?>
<!-- Created with Inkscape (http://www.inkscape.org/) -->

<svg
   xmlns:dc="http://purl.org/dc/elements/1.1/"
   xmlns:cc="http://creativecommons.org/ns#"
   xmlns:rdf="http://www.w3.org/1999/02/22-rdf-syntax-ns#"
   xmlns:svg="http://www.w3.org/2000/svg"
   xmlns="http://www.w3.org/2000/svg"
   xmlns:sodipodi="http://sodipodi.sourceforge.net/DTD/sodipodi-0.dtd"
   xmlns:inkscape="http://www.inkscape.org/namespaces/inkscape"
   width="999.08215"
   height="619.36432"
   id="svg2"
   sodipodi:version="0.32"
   inkscape:version="0.49+devel r"
   sodipodi:docname="Lastfm.svg"
   version="1.0"
   inkscape:output_extension="org.inkscape.output.svg.inkscape">
  <defs
     id="defs4" />
  <sodipodi:namedview
     id="base"
     pagecolor="#ffffff"
     bordercolor="#666666"
     borderopacity="1.0"
     inkscape:pageopacity="0.0"
     inkscape:pageshadow="2"
     inkscape:zoom="0.28794204"
     inkscape:cx="1608.7107"
     inkscape:cy="809.81709"
     inkscape:document-units="px"
     inkscape:current-layer="layer1"
     inkscape:window-width="1366"
     inkscape:window-height="768"
     inkscape:window-x="0"
     inkscape:window-y="0"
     showgrid="false"
     inkscape:window-maximized="0"
     fit-margin-top="0"
     fit-margin-left="0"
     fit-margin-right="0"
     fit-margin-bottom="0" />
  <metadata
     id="metadata7">
    <rdf:RDF>
      <cc:Work
         rdf:about="">
        <dc:format>image/svg+xml</dc:format>
        <dc:type
           rdf:resource="http://purl.org/dc/dcmitype/StillImage" />
        <dc:title></dc:title>
        <dc:creator>
          <cc:Agent>
            <dc:title />
          </cc:Agent>
        </dc:creator>
        <dc:subject>
          <rdf:Bag />
        </dc:subject>
        <cc:license
           rdf:resource="http://creativecommons.org/licenses/publicdomain/" />
        <dc:description />
        <dc:contributor>
          <cc:Agent>
            <dc:title />
          </cc:Agent>
        </dc:contributor>
      </cc:Work>
      <cc:License
         rdf:about="http://creativecommons.org/licenses/publicdomain/">
        <cc:permits
           rdf:resource="http://creativecommons.org/ns#Reproduction" />
        <cc:permits
           rdf:resource="http://creativecommons.org/ns#Distribution" />
        <cc:permits
           rdf:resource="http://creativecommons.org/ns#DerivativeWorks" />
      </cc:License>
    </rdf:RDF>
  </metadata>
  <g
     inkscape:label="Layer 1"
     inkscape:groupmode="layer"
     id="layer1"
     transform="translate(-374.33666,45.474759)">
    <g
       id="g76"
       transform="matrix(5.0639664,0,0,5.0639664,-1681.0007,-1998.5833)">
      <path
         sodipodi:nodetypes="cccccccccccc"
         id="path26100"
         d="m 499.87835,485.40493 c -8.2629,9.60152 -19.95678,13.48473 -33.92857,13.57143 -34.31711,1.15534 -50.27142,-29.51483 -51.07143,-52.85714 0.23421,-22.76547 19.14858,-50.79762 50,-51.42858 22.05846,0.63597 37.72221,7.33677 50.35714,40.35715 5.28078,13.81626 8.89926,24.51172 14.64286,36.78571 9.76191,20.20361 22.02381,26.66539 33.57143,27.14286 12.35432,0.0658 31.21727,-7.92258 30.71428,-29.64286 -0.64462,-17.09347 -18.79462,-23.46728 -28.92857,-26.42857 -12.00931,-3.04122 -23.0559,-7.16626 -26.07143,-25.35715 -0.99836,-9.20703 6.48725,-22.70043 22.14286,-22.85714 6.73828,0.23233 11.91867,0.074 17.14286,5"
         style="fill:none;stroke:#000000;stroke-width:18;stroke-linecap:butt;stroke-linejoin:miter;stroke-miterlimit:4;stroke-opacity:1;stroke-dasharray:none"
         inkscape:connector-curvature="0" />
      <path
         sodipodi:nodetypes="ccccc"
         id="path26102"
         d="m 583.75373,392.39028 c 2.93584,2.39626 4.1771,4.94536 8.33376,10.48034 l -14.26841,10.85914 c -1.57111,-2.78358 -2.6957,-5.2524 -5.93464,-7.70242 l 11.86929,-13.63706 z"
         style="fill:#000000;fill-opacity:1;stroke:#000000"
         inkscape:connector-curvature="0" />
      <path
         sodipodi:nodetypes="ccccc"
         id="path26104"
         d="m 505.8605,492.19064 c 2.32011,-2.80539 4.25644,-5.70672 5.62499,-8.75 l -9.28571,-16.69643 c -2.58175,4.93905 -6.05652,9.34228 -9.82143,13.57143 l 13.48215,11.875 z"
         style="fill:#000000;fill-opacity:1;stroke:#000000"
         inkscape:connector-curvature="0" />
    </g>
  </g>
</svg>
