<?xml version="1.0" encoding="UTF-8" standalone="no"?>
<!-- Created with Inkscape (http://www.inkscape.org/) -->

<svg
   xmlns:dc="http://purl.org/dc/elements/1.1/"
   xmlns:cc="http://creativecommons.org/ns#"
   xmlns:rdf="http://www.w3.org/1999/02/22-rdf-syntax-ns#"
   xmlns:svg="http://www.w3.org/2000/svg"
   xmlns="http://www.w3.org/2000/svg"
   xmlns:sodipodi="http://sodipodi.sourceforge.net/DTD/sodipodi-0.dtd"
   xmlns:inkscape="http://www.inkscape.org/namespaces/inkscape"
   width="1000.0709"
   height="1000.0709"
   id="svg2"
   sodipodi:version="0.32"
   inkscape:version="0.49+devel r"
   sodipodi:docname="lastfm-rect.svg"
   version="1.0"
   inkscape:output_extension="org.inkscape.output.svg.inkscape">
  <defs
     id="defs4" />
  <sodipodi:namedview
     id="base"
     pagecolor="#ffffff"
     bordercolor="#666666"
     borderopacity="1.0"
     inkscape:pageopacity="0.0"
     inkscape:pageshadow="2"
     inkscape:zoom="0.378125"
     inkscape:cx="-247.85002"
     inkscape:cy="216.42243"
     inkscape:document-units="px"
     inkscape:current-layer="layer1"
     inkscape:window-width="1366"
     inkscape:window-height="768"
     inkscape:window-x="0"
     inkscape:window-y="26"
     showgrid="false"
     inkscape:window-maximized="0"
     fit-margin-top="0"
     fit-margin-left="0"
     fit-margin-right="0"
     fit-margin-bottom="0" />
  <metadata
     id="metadata7">
    <rdf:RDF>
      <cc:Work
         rdf:about="">
        <dc:format>image/svg+xml</dc:format>
        <dc:type
           rdf:resource="http://purl.org/dc/dcmitype/StillImage" />
        <dc:title />
        <dc:creator>
          <cc:Agent>
            <dc:title />
          </cc:Agent>
        </dc:creator>
        <dc:subject>
          <rdf:Bag />
        </dc:subject>
        <cc:license
           rdf:resource="http://creativecommons.org/licenses/publicdomain/" />
        <dc:description />
        <dc:contributor>
          <cc:Agent>
            <dc:title />
          </cc:Agent>
        </dc:contributor>
      </cc:Work>
      <cc:License
         rdf:about="http://creativecommons.org/licenses/publicdomain/">
        <cc:permits
           rdf:resource="http://creativecommons.org/ns#Reproduction" />
        <cc:permits
           rdf:resource="http://creativecommons.org/ns#Distribution" />
        <cc:permits
           rdf:resource="http://creativecommons.org/ns#DerivativeWorks" />
      </cc:License>
    </rdf:RDF>
  </metadata>
  <g
     inkscape:label="Layer 1"
     inkscape:groupmode="layer"
     id="layer1"
     transform="translate(-373.48434,425.52392)">
    <path
       style="fill:#000000;stroke:#000000;stroke-width:0"
       inkscape:connector-curvature="0"
       id="path3140"
       d="m 569.54136,-425.33731 c -107.72952,0 -195.88633,88.1569 -195.88633,195.8863 l 0,607.89652 c 0,107.7294 88.15681,195.88617 195.88633,195.88617 l 607.89634,0 c 107.7297,0 195.8861,-88.15677 195.8861,-195.88617 l 0,-607.89652 c 0,-107.7294 -88.1564,-195.8863 -195.8861,-195.8863 l -607.89634,0 z" />
    <path
       inkscape:connector-curvature="0"
       style="fill:#ffffff;fill-opacity:1"
       id="path5"
       d="m 821.10691,267.37384 -32.57258,-88.5395 c 0,0 -52.92952,59.03154 -132.30242,59.03154 -70.23343,0 -120.0983,-61.06683 -120.0983,-158.772947 0,-125.182692 63.09434,-169.963201 125.1866,-169.963201 89.55709,0 118.05135,58.009964 142.48277,132.310135 l 32.57258,101.776713 c 32.56096,98.716 93.62771,178.10053 269.69684,178.10053 126.212,0 211.6986,-38.67072 211.6986,-140.44355 0,-82.437474 -46.8237,-125.186587 -134.3532,-145.543493 l -65.1337,-14.247108 c -44.7766,-10.176503 -58.0059,-28.4981081 -58.0059,-59.031518 0,-34.604008 27.4727,-54.960931 72.2609,-54.960931 48.8512,0 75.3099,18.321622 79.3846,62.08448 l 101.7727,-12.215698 c -8.1412,-91.596342 -71.2394,-129.253312 -175.0514,-129.253312 -91.5923,0 -181.15737,34.60401 -181.15737,145.539615 0,69.20802 33.58633,112.974789 118.05137,133.327795 l 69.2158,16.27849 c 51.904,12.21571 69.2002,33.58636 69.2002,63.10602 0,37.64917 -36.6354,52.91783 -105.8435,52.91783 -102.7943,0 -145.53174,-53.93939 -169.96306,-128.23955 L 904.56203,8.8672614 C 861.82465,-123.44289 793.62648,-172.29402 658.26334,-172.29402 c -149.60628,0 -228.99471,94.649299 -228.99471,255.453655 0,154.702315 79.38843,238.153585 221.87897,238.153585 114.99058,0 169.95931,-53.93938 169.95931,-53.93938 l 0,0 z" />
  </g>
</svg>
