<svg xmlns="http://www.w3.org/2000/svg" width="994.95" height="1000" version="1"><path d="M439 716l-36-99s-59 66-148 66c-79 0-134-68-134-178 0-140 71-190 140-190 100 0 132 65 160 148l36 114c36 111 105 199 302 199 141 0 237-43 237-157 0-92-52-140-150-163l-73-16c-50-11-65-32-65-66 0-39 31-62 81-62 55 0 84 21 89 70l114-14c-9-103-80-145-196-145-103 0-203 39-203 163 0 77 38 127 132 149l78 18c58 14 77 38 77 71 0 42-41 59-119 59-115 0-163-60-190-144l-38-114c-48-148-124-203-276-203-168 0-256 106-256 286 0 173 89 267 248 267 129 0 190-60 190-60z"/></svg>