<svg xmlns="http://www.w3.org/2000/svg" width="1000" height="1000" version="1"><path d="M196 0c-108 0-196 88-196 196v608c0 108 88 196 196 196h608c108 0 196-88 196-196v-608c0-108-88-196-196-196h-608zm89 253c135 0 204 49 246 181l34 102c24 74 67 128 170 128 69 0 106-15 106-53 0-30-17-51-69-63l-69-16c-84-20-118-64-118-133 0-111 90-146 181-146 104 0 167 38 175 129l-102 12c-4-44-31-62-79-62-45 0-72 20-72 55 0 31 13 49 58 59l65 14c88 20 134 63 134 146 0 102-85 140-212 140-176 0-237-79-270-178l-33-102c-24-74-53-132-142-132-62 0-125 45-125 170 0 98 50 159 120 159 79 0 132-59 132-59l33 89s-55 54-170 54c-142 0-222-83-222-238 0-161 79-255 229-255z"/></svg>