<svg xmlns="http://www.w3.org/2000/svg" height="1000" width="1046"><path d="M237.487 1000l0 -674.699l-224.256 0l0 674.699l224.256 0zm-112.099 -766.873c78.202 0 126.879 -51.809 126.879 -116.553 -1.457 -66.204 -48.674 -116.575 -125.395 -116.575 -76.709 0 -126.872 50.372 -126.872 116.575 0 64.747 48.665 116.553 123.924 116.553l1.457 0zm236.224 766.873l224.256 0l0 -376.785c0 -20.165 1.457 -40.309 7.379 -54.724 16.212 -40.289 53.111 -82.017 115.06 -82.017 81.149 0 113.613 61.872 113.613 152.572l0 360.949l224.242 0l0 -386.866c0 -207.241 -110.636 -303.668 -258.183 -303.668 -120.977 0 -174.094 67.622 -203.603 113.679l1.497 0l0 -97.853l-224.256 0c2.943 63.31 0 674.699 0 674.699z"/></svg>