<?xml version="1.0" encoding="UTF-8" standalone="no"?>
<svg
   xmlns:dc="http://purl.org/dc/elements/1.1/"
   xmlns:cc="http://creativecommons.org/ns#"
   xmlns:rdf="http://www.w3.org/1999/02/22-rdf-syntax-ns#"
   xmlns:svg="http://www.w3.org/2000/svg"
   xmlns="http://www.w3.org/2000/svg"
   xmlns:sodipodi="http://sodipodi.sourceforge.net/DTD/sodipodi-0.dtd"
   xmlns:inkscape="http://www.inkscape.org/namespaces/inkscape"
   height="1000.3127"
   width="1000.3127"
   version="1.0"
   id="svg85"
   inkscape:version="0.49+devel r"
   sodipodi:docname="linkedin-rect.svg">
  <metadata
     id="metadata104">
    <rdf:RDF>
      <cc:Work
         rdf:about="">
        <dc:format>image/svg+xml</dc:format>
        <dc:type
           rdf:resource="http://purl.org/dc/dcmitype/StillImage" />
        <dc:title></dc:title>
      </cc:Work>
    </rdf:RDF>
  </metadata>
  <sodipodi:namedview
     pagecolor="#ffffff"
     bordercolor="#666666"
     borderopacity="1"
     objecttolerance="10"
     gridtolerance="10"
     guidetolerance="10"
     inkscape:pageopacity="0"
     inkscape:pageshadow="2"
     inkscape:window-width="1366"
     inkscape:window-height="768"
     id="namedview102"
     showgrid="false"
     inkscape:zoom="0.49361493"
     inkscape:cx="139.91869"
     inkscape:cy="668.03087"
     inkscape:window-x="0"
     inkscape:window-y="0"
     inkscape:window-maximized="0"
     inkscape:current-layer="svg85"
     fit-margin-top="0"
     fit-margin-left="0"
     fit-margin-right="0"
     fit-margin-bottom="0" />
  <defs
     id="defs87">
    <linearGradient
       id="linearGradient3003"
       y2="425.39999"
       gradientUnits="userSpaceOnUse"
       x2="-395.85001"
       gradientTransform="matrix(-0.50335197,0,0,0.50335205,-148.17928,-158.80197)"
       y1="274.70999"
       x1="-344.14999">
      <stop
         stop-color="#FFF"
         offset="0"
         id="stop90" />
      <stop
         stop-color="#FFF"
         stop-opacity="0"
         offset="1"
         id="stop92" />
    </linearGradient>
  </defs>
  <g
     id="g314">
    <path
       d="M 196.12714,0.26031223 C 88.375644,0.26031223 0.20081326,88.43515 0.20081326,196.18664 l 0,608.02057 c 0,107.75143 88.17483074,195.92629 195.92632674,195.92629 l 608.02058,0 c 107.75163,0 195.92628,-88.17486 195.92628,-195.92629 l 0,-608.02057 C 1000.074,88.43515 911.89935,0.26031223 804.14772,0.26031223 l -608.02058,0 z"
       id="path3140"
       inkscape:connector-curvature="0"
       style="fill:#000000;stroke:#000000;stroke-width:0" />
    <path
       id="path98"
       d="m 319.91008,838.65038 0,-454.3491 -151.01643,0 0,454.3491 151.01643,0 z M 244.42186,322.23097 c 52.66178,0 85.44167,-34.88906 85.44167,-78.48775 -0.98145,-44.58255 -32.77789,-78.50275 -84.44183,-78.50275 -51.65694,0 -85.43666,33.9207 -85.43666,78.50275 0,43.60119 32.77138,78.48775 83.45197,78.48775 l 0.9815,0 z"
       inkscape:connector-curvature="0"
       style="fill:#ffffff" />
    <path
       id="path100"
       d="m 403.49704,838.65038 151.01643,0 0,-253.7304 c 0,-13.57938 0.98145,-27.14477 4.96913,-36.85175 10.91729,-27.13127 35.76541,-55.23138 77.48291,-55.23138 54.64647,0 76.50806,41.66499 76.50806,102.74396 l 0,243.06707 151.00643,0 0,-260.51934 c 0,-139.55823 -74.50337,-204.49309 -173.86287,-204.49309 -81.46728,0 -117.2367,45.53739 -137.1086,76.55305 l 1.00834,0 0,-65.89472 -151.01643,0 c 1.98174,42.63335 0,454.3491 0,454.3491 z"
       inkscape:connector-curvature="0"
       style="fill:#ffffff" />
  </g>
</svg>
