<svg xmlns="http://www.w3.org/2000/svg" width="1000" height="1000"><title>mastercard</title><path d="M46.531 195c-25.69 0 -46.531 20.83 -46.531 46.531v534.938c0 25.697 20.844 46.531 46.531 46.531h906.938c25.69 0 46.531 -20.83 46.531 -46.531v-534.938c0 -25.697 -20.844 -46.531 -46.531 -46.531h-906.938zm281.375 75.594c57.081 0 109.505 19.859 150.656 53.031 -34.623 30.979 -60.447 71.679 -73.188 117.813h19.969c11.76 -38.057 33.123 -71.941 61.281 -98.813 28.158 26.871 49.521 60.755 61.281 98.813h20.281c-12.917 -45.889 -38.778 -86.348 -73.375 -117.125 41.231 -33.593 93.861 -53.719 151.188 -53.719 132.291 0 239.531 107.251 239.531 239.563 0 132.311 -107.24 239.563 -239.531 239.563 -58.28 0 -111.72 -20.801 -153.25 -55.406 37.15 -32.32 64.538 -75.647 77.063 -124.938h-19.531c-11.122 41.37 -33.505 78.165 -63.656 106.938 -30.151 -28.773 -52.503 -65.568 -63.625 -106.938h-18.594c12.598 48.576 39.628 91.297 76.219 123.313 -41.454 34.176 -94.684 54.719 -152.719 54.719 -132.291 0 -239.531 -106.737 -239.531 -238.406s107.24 -238.406 239.531 -238.406zm300.125 168.406c-28.782 0 -56.781 25.162 -56.781 72.406 0 31.328 15.124 52 44.875 52 8.412 .003 21.813 -3.438 21.813 -3.438l4.438 -27.375s-12.229 6.188 -20.625 6.188c-17.685 0 -24.781 -13.601 -24.781 -28.219 0 -29.653 15.217 -45.969 32.156 -45.969 12.703 0 22.906 7.188 22.906 7.188l4.063 -26.625s-15.103 -6.156 -28.063 -6.156zm241.969 2.313l-25.031 .063 -5.375 32.938s-9.411 -12.781 -24.125 -12.781c-22.88 0 -41.938 27.18 -41.938 58.438 0 20.177 10.143 39.969 30.938 39.969 14.958 0 23.25 -10.281 23.25 -10.281l-1.094 8.781h24.313l19.063 -117.125zm-716.938 .344l-19.938 117.406h24.031l15.188 -88.531 2.25 88.531h17.188l32.063 -88.531 -14.219 88.531h25.531l19.688 -117.406h-39.5l-24.594 72.031 -1.281 -72.031h-36.406zm251.063 7.625c-.543 .545 -14.531 81.207 -14.531 91.031 0 14.546 8.154 21.042 19.625 20.938 8.221 -.069 14.587 -2.135 17.531 -3 .308 -.083 .906 -.25 .906 -.25l3.094 -21c-1.682 0 -4.161 .719 -6.344 .719 -8.566 0 -9.514 -4.557 -8.969 -7.938l6.906 -42.844h13.031l3.156 -23.219h-12.281l2.5 -14.438h-24.625zm290.469 11.813c-16.773 0 -29.625 5.531 -29.625 5.531l-3.563 21.563s10.614 -4.406 26.656 -4.406c9.109 0 15.781 1.041 15.781 8.625 0 4.606 -.813 6.313 -.813 6.313s-7.202 -.625 -10.531 -.625c-21.152 0 -43.375 9.271 -43.375 37.156 0 21.972 14.589 27 23.625 27 17.258 0 24.7 -11.465 25.094 -11.5l-.813 9.563h21.531l9.625 -69c.003 -29.277 -24.934 -30.219 -33.594 -30.219zm-403.906 .125c-16.835 0 -29.75 5.531 -29.75 5.531l-3.563 21.563s10.649 -4.406 26.75 -4.406c9.142 0 15.844 1.046 15.844 8.625 0 4.603 -.813 6.313 -.813 6.313s-7.224 -.625 -10.563 -.625c-21.233 0 -43.531 9.255 -43.531 37.125 0 21.96 14.618 27 23.688 27 17.321 0 24.789 -11.465 25.188 -11.5l-.813 9.563h21.625l9.656 -68.969c0 -29.261 -25.027 -30.219 -33.719 -30.219zm76.375 0c-18.078 0 -36.438 7.298 -36.438 32.219 0 28.239 30.594 25.385 30.594 37.281 0 7.94 -8.538 8.594 -15.125 8.594 -11.4 0 -21.651 -3.938 -21.688 -3.75l-3.281 21.563c.591 .183 6.938 3.031 27.438 3.031 5.504 0 36.969 1.397 36.969 -31.375 0 -30.639 -29.125 -24.566 -29.125 -36.875 0 -6.128 4.729 -8.063 13.406 -8.063 3.445 0 16.719 1.094 16.719 1.094l3.063 -21.781c0 .003 -8.564 -1.938 -22.531 -1.938zm113 0c-25.121 .005 -43.719 27.018 -43.719 57.531 0 35.219 23.303 43.594 43.156 43.594 18.326 0 26.406 -4.094 26.406 -4.094l4.375 -24.031s-13.942 6.125 -26.531 6.125c-26.826 0 -22.125 -19.969 -22.125 -19.969h50.781s3.281 -16.138 3.281 -22.719c0 -16.421 -8.195 -36.438 -35.625 -36.438zm90.969 1.031c-11.317 0 -19.719 15.219 -19.719 15.219l2.25 -13.969h-23.5l-15.781 96.438h25.969c7.355 -41.182 8.698 -74.621 26.25 -68.5 3.072 -15.939 6.053 -22.098 9.406 -28.844 0 0 -1.575 -.344 -4.875 -.344zm210.406 0c-11.317 0 -19.719 15.219 -19.719 15.219l2.25 -13.969h-23.5l-15.781 96.438h25.938c7.358 -41.182 8.735 -74.621 26.281 -68.5 3.078 -15.939 6.055 -22.098 9.406 -28.844 0 0 -1.575 -.344 -4.875 -.344zm-301.5 20.719c14.267 0 11.656 16.104 11.656 17.406h-28.094c0 -1.662 2.658 -17.406 16.438 -17.406zm339.469 1.875c9.081 -.003 13.75 6.132 13.75 20.563 0 13.093 -6.604 30.594 -20.281 30.594 -9.078 0 -13.344 -7.497 -13.344 -19.25 0 -19.218 8.791 -31.906 19.875 -31.906zm-124.781 32.813c3.704 .004 4.47 .364 5.094 .531 -.089 -.015 -.107 .003 .25 .063 .469 4.295 -2.595 24.438 -17.406 24.438 -7.638 0 -9.594 -6.073 -9.594 -9.656 0 -6.988 3.639 -15.375 21.656 -15.375zm-403.906 .094c4.208 .005 4.666 .475 5.375 .594 .471 4.293 -2.606 24.406 -17.469 24.406 -7.667 0 -9.656 -6.044 -9.656 -9.625 0 -6.984 3.661 -15.375 21.75 -15.375z"/></svg>