<svg xmlns="http://www.w3.org/2000/svg" width="1000" height="1000"><title>mastercard</title><path d="M47 195c-26 0-47 21-47 47v535c0 26 21 47 47 47h907c26 0 47-21 47-47v-535c0-26-21-47-47-47h-907zm281 76c57 0 110 20 151 53-35 31-60 72-73 118h20c12-38 33-72 61-99 28 27 50 61 61 99h20c-13-46-39-86-73-117 41-34 94-54 151-54 132 0 240 107 240 240 0 132-107 240-240 240-58 0-112-21-153-55 37-32 65-76 77-125h-20c-11 41-34 78-64 107-30-29-53-66-64-107h-19c13 49 40 91 76 123-41 34-95 55-153 55-132 0-240-107-240-238 0-132 107-238 240-238zm300 168c-29 0-57 25-57 72 0 31 15 52 45 52 8 0 22-3 22-3l4-27s-12 6-21 6c-18 0-25-14-25-28 0-30 15-46 32-46 13 0 23 7 23 7l4-27s-15-6-28-6zm242 2h-25l-5 33s-9-13-24-13c-23 0-42 27-42 58 0 20 10 40 31 40 15 0 23-10 23-10l-1 9h24l19-117zm-717 0l-20 117h24l15-89 2 89h17l32-89-14 89h26l20-117h-40l-25 72-1-72h-36zm251 8c-1 1-15 81-15 91 0 15 8 21 20 21 8 0 15-2 18-3 0 0 1 0 1 0l3-21c-2 0-4 1-6 1-9 0-10-5-9-8l7-43h13l3-23h-12l3-14h-25zm290 12c-17 0-30 6-30 6l-4 22s11-4 27-4c9 0 16 1 16 9 0 5-1 6-1 6s-7-1-11-1c-21 0-43 9-43 37 0 22 15 27 24 27 17 0 25-11 25-12l-1 10h22l10-69c0-29-25-30-34-30zm-404 0c-17 0-30 6-30 6l-4 22s11-4 27-4c9 0 16 1 16 9 0 5-1 6-1 6s-7-1-11-1c-21 0-44 9-44 37 0 22 15 27 24 27 17 0 25-11 25-12l-1 10h22l10-69c0-29-25-30-34-30zm76 0c-18 0-36 7-36 32 0 28 31 25 31 37 0 8-9 9-15 9-11 0-22-4-22-4l-3 22c1 0 7 3 27 3 6 0 37 1 37-31 0-31-29-25-29-37 0-6 5-8 13-8 3 0 17 1 17 1l3-22s-9-2-23-2zm113 0c-25 0-44 27-44 58 0 35 23 44 43 44 18 0 26-4 26-4l4-24s-14 6-27 6c-27 0-22-20-22-20h51s3-16 3-23c0-16-8-36-36-36zm91 1c-11 0-20 15-20 15l2-14h-24l-16 96h26c7-41 9-75 26-69 3-16 6-22 9-29 0 0-2 0-5 0zm210 0c-11 0-20 15-20 15l2-14h-24l-16 96h26c7-41 9-75 26-69 3-16 6-22 9-29 0 0-2 0-5 0zm-302 21c14 0 12 16 12 17h-28c0-2 3-17 16-17zm339 2c9 0 14 6 14 21 0 13-7 31-20 31-9 0-13-7-13-19 0-19 9-32 20-32zm-125 33c4 0 4 0 5 1 0 4-3 24-17 24-8 0-10-6-10-10 0-7 4-15 22-15zm-404 0c4 0 5 0 5 1 0 4-3 24-17 24-8 0-10-6-10-10 0-7 4-15 22-15z"/></svg>