<svg xmlns="http://www.w3.org/2000/svg" width="1000" height="1000"><title>Layer 1</title><path d="M141 0c-78 0-141 63-141 141v719c0 78 63 141 141 141h719c78 0 141-63 141-141v-719c0-78-63-141-141-141h-719zm382 102c113 0 206 92 206 206 0 113-92 206-206 206-113 0-206-92-206-206 0-113 92-206 206-206zm-2 121c-46 1-83 39-83 85 0 47 38 85 85 85s85-38 85-85-38-85-85-85c-1 0-1 0-2 0zm-168 298c11 0 22 3 32 9 84 53 193 53 277 0 28-18 65-9 83 19s9 65-19 83c-37 23-78 40-119 49l115 115c24 24 24 62 0 85-24 24-62 24-85 0l-113-113-113 113c-12 12-27 18-43 18-15 0-31-6-43-18-24-24-24-62 0-85l115-115c-42-10-82-26-120-49-28-18-37-55-19-83 11-18 30-28 49-28 1 0 1 0 2 0z"/></svg>