<svg xmlns="http://www.w3.org/2000/svg" width="579.274" height="1000"><path d="M290 0c-142 0-258 116-258 258s116 258 258 258 258-116 258-258-116-258-258-258zm0 151c59 0 107 48 107 107s-48 107-107 107-107-48-107-107 48-107 107-107zm-213 374c-26 0-51 12-65 35-22 35-12 82 24 104 47 29 97 50 150 62l-144 144c-30 30-30 77 0 107 15 15 34 22 53 22s39-7 53-22l142-142 142 142c30 30 77 30 107 0s30-77 0-107l-144-144c53-12 103-33 150-62 35-22 46-69 24-104s-69-46-104-24c-106 66-242 66-347 0-12-8-26-11-39-12z"/></svg>