<svg width="999.978" height="1000" xmlns="http://www.w3.org/2000/svg"><title>Layer 1</title><path d="M958.234 572.394c3.733 -23.611 5.7 -47.766 5.7 -72.422 0 -256.241 -207.709 -463.95 -463.962 -463.95 -24.588 0 -48.81 2.022 -72.399 5.711 -42.733 -26.433 -93.166 -41.733 -147.209 -41.733 -154.843 0 -280.364 125.51 -280.364 280.364 0 54.032 15.311 104.421 41.733 147.242 -3.655 23.645 -5.667 47.722 -5.667 72.377 0 256.253 207.709 463.906 463.895 463.906 24.611 0 48.833 -1.9 72.422 -5.622 42.777 26.389 93.165 41.733 147.209 41.733 154.876 0 280.386 -125.543 280.386 -280.397 .011 -54.044 -15.289 -104.432 -41.744 -147.209zm-237.986 138.587c-19.633 28.255 -48.455 50.333 -86.133 66.21 -37.755 15.911 -82.366 23.833 -133.887 23.833 -61.755 0 -112.888 -10.799 -153.243 -32.621 -28.611 -15.622 -51.877 -36.589 -69.766 -62.733 -17.922 -26.155 -27.011 -51.766 -27.011 -76.744 0 -14.733 5.623 -27.555 16.556 -37.999 11.055 -10.522 25.288 -15.8 42.088 -15.8 13.767 0 25.589 4.144 35.211 12.355 9.555 8.211 17.566 20.145 24.122 35.9 7.855 18.255 16.389 33.511 25.466 45.677 9.022 12.022 21.722 22.067 38.166 29.922 16.267 7.878 37.911 11.811 65 11.811 37.066 0 67.032 -8.011 89.954 -23.833 23.044 -15.955 34.122 -35.377 34.122 -58.855 0 -18.711 -5.978 -33.588 -18.211 -45.177 -12.344 -11.733 -28.299 -20.678 -48.088 -26.911 -19.867 -6.3 -46.544 -12.989 -79.977 -20.033 -44.888 -9.789 -82.432 -21.2 -112.832 -34.289 -30.444 -13.155 -54.688 -31.121 -72.655 -53.821 -18.011 -22.922 -26.988 -51.411 -26.988 -85.155 0 -32.177 9.477 -60.955 28.455 -85.999 18.966 -25.111 46.41 -44.333 82.188 -57.721 35.655 -13.389 77.632 -20.078 125.721 -20.078 38.455 0 71.721 4.444 99.876 13.3 28.089 8.922 51.489 20.689 70.199 35.455 18.611 14.733 32.289 30.277 40.956 46.588 8.655 16.356 13.022 32.333 13.022 47.922 0 14.5 -5.622 27.644 -16.567 39.166 -10.955 11.545 -24.955 17.422 -41.31 17.367 -14.745 0 -26.311 -3.4 -34.333 -10.6 -7.811 -6.967 -16.011 -18.055 -24.889 -33.511 -11.211 -21.566 -24.644 -38.366 -40.277 -50.388 -15.211 -11.789 -40.311 -17.933 -75.233 -17.856 -32.311 0 -58.166 6.6 -77.677 19.511 -19.633 13.122 -29.022 28.345 -29.066 46.178 .033 11.177 3.244 20.599 9.711 28.655 6.566 8.133 15.7 15.177 27.444 21.122 11.744 6.033 23.689 10.7 35.7 14.055 12.144 3.445 32.299 8.422 60.31 15.011 35.133 7.578 67.01 16.033 95.643 25.255 28.578 9.267 52.967 20.445 73.122 33.756 20.311 13.277 36.188 30.199 47.522 50.644 11.399 20.477 17.088 45.488 17.088 74.91 .045 35.444 -9.833 67.31 -29.499 95.521z"/></svg>