<svg width="999.978" height="1000" xmlns="http://www.w3.org/2000/svg"><title>Layer 1</title><path d="M958 572c4-24 6-48 6-72 0-256-208-464-464-464-25 0-49 2-72 6-43-26-93-42-147-42-155 0-280 126-280 280 0 54 15 104 42 147-4 24-6 48-6 72 0 256 208 464 464 464 25 0 49-2 72-6 43 26 93 42 147 42 155 0 280-126 280-280 0-54-15-104-42-147zm-238 139c-20 28-48 50-86 66s-82 24-134 24c-62 0-113-11-153-33-29-16-52-37-70-63s-27-52-27-77c0-15 6-28 17-38 11-11 25-16 42-16 14 0 26 4 35 12 10 8 18 20 24 36 8 18 16 34 25 46s22 22 38 30 38 12 65 12c37 0 67-8 90-24s34-35 34-59c0-19-6-34-18-45-12-12-28-21-48-27s-47-13-80-20c-45-10-82-21-113-34-30-13-55-31-73-54s-27-51-27-85c0-32 9-61 28-86s46-44 82-58c36-13 78-20 126-20 38 0 72 4 100 13s51 21 70 35c19 15 32 30 41 47 9 16 13 32 13 48 0 15-6 28-17 39-11 12-25 17-41 17-15 0-26-3-34-11-8-7-16-18-25-34-11-22-25-38-40-50s-40-18-75-18c-32 0-58 7-78 20s-29 28-29 46c0 11 3 21 10 29s16 15 27 21c12 6 24 11 36 14s32 8 60 15c35 8 67 16 96 25s53 20 73 34c20 13 36 30 48 51 11 20 17 45 17 75 0 35-10 67-29 96z"/></svg>