<svg width="999.97778px" height="1000px"
 viewBox="0 0 1000 1000"
 xmlns="http://www.w3.org/2000/svg">
 <metadata id="metadata8">image/svg+xml</metadata>
 <g>
  <title>Layer 1</title>
  <path d="m958.23401,572.39398c3.73297,-23.61096 5.70001,-47.76599 5.70001,-72.422c0,-256.24098 -207.70905,-463.95018 -463.96204,-463.95018c-24.58798,0 -48.81,2.0222 -72.39899,5.711c-42.733,-26.433 -93.16599,-41.7328 -147.20898,-41.7328c-154.84301,0 -280.36401,125.51 -280.36401,280.36401c0,54.03198 15.3109,104.42099 41.7329,147.24197c-3.6555,23.64502 -5.6666,47.72202 -5.6666,72.37701c0,256.25302 207.70869,463.90598 463.8947,463.90598c24.61102,0 48.83301,-1.89996 72.422,-5.62195c42.77698,26.38898 93.16498,41.73297 147.20898,41.73297c154.87604,0 280.38605,-125.54303 280.38605,-280.39697c0.01099,-54.04401 -15.289,-104.43201 -41.74402,-147.20905l0,0zm-237.98602,138.58704c-19.633,28.255 -48.45496,50.33301 -86.133,66.20996c-37.755,15.91101 -82.36597,23.83301 -133.88699,23.83301c-61.755,0 -112.888,-10.79901 -153.24301,-32.62097c-28.61099,-15.62201 -51.87698,-36.58899 -69.76599,-62.73303c-17.922,-26.15497 -27.011,-51.76599 -27.011,-76.74396c0,-14.73303 5.623,-27.55505 16.55602,-37.99902c11.05499,-10.52197 25.28799,-15.79999 42.08798,-15.79999c13.767,0 25.58902,4.14398 35.211,12.35498c9.55502,8.211 17.56601,20.14502 24.12201,35.90002c7.85501,18.255 16.38901,33.51099 25.466,45.677c9.022,12.02197 21.72198,22.06696 38.16599,29.922c16.26703,7.87799 37.91101,11.81097 65,11.81097c37.06601,0 67.03201,-8.01099 89.95401,-23.83301c23.04401,-15.95496 34.12201,-35.37701 34.12201,-58.85498c0,-18.711 -5.97803,-33.58801 -18.211,-45.177c-12.34399,-11.73303 -28.29901,-20.67798 -48.08801,-26.91101c-19.867,-6.29999 -46.54401,-12.98901 -79.97699,-20.03302c-44.888,-9.789 -82.43201,-21.19995 -112.832,-34.28897c-30.444,-13.155 -54.68802,-31.121 -72.655,-53.82101c-18.01102,-22.922 -26.98801,-51.41098 -26.98801,-85.155c0,-32.177 9.47699,-60.95499 28.45499,-85.99899c18.966,-25.11099 46.41,-44.33299 82.18802,-57.72099c35.655,-13.38901 77.63199,-20.078 125.72101,-20.078c38.45499,0 71.72098,4.444 99.87601,13.3c28.08899,8.922 51.48895,20.689 70.19897,35.455c18.61102,14.73299 32.289,30.27699 40.95599,46.588c8.65503,16.35599 13.02203,32.33301 13.02203,47.922c0,14.5 -5.62201,27.64401 -16.56702,39.16602c-10.95502,11.54498 -24.95502,17.422 -41.31,17.36697c-14.745,0 -26.31104,-3.39999 -34.33301,-10.59998c-7.81097,-6.96701 -16.01099,-18.05502 -24.88898,-33.51102c-11.211,-21.56601 -24.64404,-38.366 -40.27704,-50.388c-15.211,-11.789 -40.31097,-17.93298 -75.23297,-17.85599c-32.311,0 -58.16602,6.60001 -77.677,19.51099c-19.633,13.12201 -29.022,28.345 -29.06601,46.17801c0.03299,11.177 3.24399,20.599 9.711,28.655c6.56601,8.133 15.70001,15.177 27.444,21.12201c11.74399,6.03299 23.689,10.69998 35.70001,14.05499c12.14398,3.44501 32.29898,8.422 60.31,15.01099c35.133,7.578 67.01001,16.03302 95.64301,25.255c28.578,9.267 52.96698,20.44501 73.12201,33.75601c20.31097,13.27701 36.18799,30.19897 47.52197,50.64398c11.39899,20.47699 17.08801,45.48804 17.08801,74.91003c0.04498,35.44397 -9.83301,67.31 -29.49902,95.521z" id="Skype"/>
 </g>
</svg>
