<svg xmlns="http://www.w3.org/2000/svg" width="998" height="1000"><path d="M499 0c-14 0-28 1-43 2-227 18-421 193-452 425-39 296 173 550 440 571 212 17 348-71 440-181 81-97 130-239 108-394-21-145-125-285-247-355-69-40-150-67-247-67zm2 96c50 0 102 9 156 29 137 74 246 183 247 371 1 215-151 391-367 409-235 20-490-174-440-475 31-185 198-335 404-334zm183 246c-66 1-132 42-128 123 61-40 171-47 255-15-3-72-65-108-127-107zm-374 1c-61 0-120 34-124 107 37-4 77-26 112-19-14 32-29 63-35 104-42-44-96 35-42 62-39 8-25 75 15 70 14-6 23-16 35-23 28 65 104-25 42-50 61-27-11-97-39-62 18-36 19-92 58-100 36-8 71 26 108 35 8-80-62-122-131-122zm-44 238c4 0 10 4 16 15-29 30-30-14-16-15z"/></svg>