<svg xmlns="http://www.w3.org/2000/svg" width="998" height="1000"><path d="M499.084 -.344c-13.894 .007 -28.131 .6 -42.719 1.781 -227.059 18.393 -421.144 192.616 -451.719 424.719 -39.01 296.18 172.832 550.084 440.156 571.406 211.837 16.895 347.632 -70.649 440.125 -181.469 80.796 -96.833 130.43 -238.563 108.094 -393.813 -20.793 -144.786 -124.917 -284.666 -247.125 -355.219 -68.961 -39.82 -149.555 -67.452 -246.813 -67.406zm2.344 96.125c50.071 .253 102.426 9.433 155.688 29.219 136.812 73.88 246.102 182.688 247.094 370.625 1.167 215.208 -151.264 391.086 -366.781 409.281 -235.429 19.89 -489.819 -174.012 -440.125 -474.906 30.505 -184.75 197.834 -335.261 404.125 -334.219zm183.219 246.094c-66.028 .501 -132.245 41.791 -127.906 122.875 60.795 -39.627 171.351 -47.17 254.813 -15.406 -3.02 -72.403 -64.88 -107.939 -126.906 -107.469zm-374.281 .813c-60.743 .366 -120.45 34.43 -124.25 106.656 36.786 -4.428 77.267 -25.621 111.938 -19.344 -14.141 32.182 -29.441 63.213 -34.75 104.25 -42.446 -43.943 -95.643 35.348 -42.469 61.781 -38.835 8.128 -24.873 74.565 15.438 69.5 13.635 -5.684 23.061 -15.556 34.781 -23.156 28.371 64.563 104.058 -24.754 42.469 -50.219 60.972 -27.315 -11.298 -97.126 -38.656 -61.75 18.194 -35.684 19.3 -91.529 57.938 -100.406 36.256 -8.326 70.788 25.741 108.125 34.75 8.449 -79.621 -61.72 -122.477 -130.563 -122.063zm-43.781 238.375c4.172 -.238 9.65 3.631 16 14.969 -29.327 30.254 -29.629 -14.191 -16 -14.969z"/></svg>