<svg width="616.05933" height="1000"
 viewBox="0 0 616.05933 1000"
 xmlns="http://www.w3.org/2000/svg">
 <metadata id="metadata7">image/svg+xml</metadata>
 <g>
  <title>Layer 1</title>
  <g id="layer1">
   <path fill="#000000" fill-rule="nonzero" d="m345.60287,0l0,252.75556l237.30045,0l0,156.98309l-237.30045,0l0,256.44165c0,57.96008 3.06097,95.17719 9.21762,111.65302c6.12192,16.44592 17.57114,29.5838 34.25128,39.41406c22.12613,13.26135 47.41287,19.90717 75.91409,19.90717c50.60843,0 100.97787,-16.47589 151.07346,-49.39771l0,157.71283c-42.74554,20.12415 -81.44098,34.2829 -116.05618,42.38153c-34.65323,8.09875 -72.1189,12.1488 -112.38428,12.1488c-45.69415,0 -86.10834,-5.78162 -121.23795,-17.31165c-35.12805,-11.56146 -65.0822,-28.03735 -89.89729,-49.36584c-24.81673,-21.39172 -42.01599,-44.11145 -51.58652,-68.1922c-9.58327,-24.05066 -14.37407,-58.94922 -14.37407,-104.63855l0,-350.75311l-110.52303,0l0,-141.51544c39.27627,-12.76605 72.95762,-31.04776 100.93976,-54.89902c28.02489,-23.81493 50.49287,-52.43967 67.43243,-85.85512c16.96339,-33.38547 28.62474,-75.89043 34.99832,-127.46907l142.23236,0" id="path16"/>
  </g>
 </g>
</svg>
