<svg width="1000" height="1000"
 viewBox="0 0 1000 1000"
 xmlns="http://www.w3.org/2000/svg">
 <metadata id="metadata7">image/svg+xml</metadata>
 <g>
  <title>Layer 1</title>
  <g id="layer1">
   <path fill="#000000" d="m192.91219,0l614.17558,0c106.87341,0 192.91223,86.03884 192.91223,192.91219l0,614.17564c0,106.87335 -86.03882,192.91217 -192.91217,192.91217l-614.17561,0c-106.87338,0 -192.91222,-86.03882 -192.91222,-192.91217l0,-614.17564c0,-106.87335 86.03883,-192.91219 192.91219,-192.91219z" id="rect3005"/>
   <path fill="#ffffff" fill-rule="nonzero" d="m534.07635,141.41502l0,176.18819l165.41486,0l0,109.4281l-165.41486,0l0,178.75763c0,40.40222 2.13373,66.34509 6.42535,77.82996c4.26733,11.46393 12.24829,20.62195 23.87549,27.4743c15.42346,9.24408 33.05005,13.87671 52.91742,13.87671c35.27759,0 70.38855,-11.48486 105.30865,-34.43365l0,109.93677c-29.79657,14.02789 -56.77002,23.89758 -80.89923,29.54291c-24.1557,5.64539 -50.27185,8.46857 -78.3396,8.46857c-31.85205,0 -60.02353,-4.03015 -84.51129,-12.06738c-24.48669,-8.0592 -45.36682,-19.54407 -62.66467,-34.41144c-17.29898,-14.91156 -29.28806,-30.74878 -35.95938,-47.53473c-6.68021,-16.76501 -10.01971,-41.09167 -10.01971,-72.94037l0,-244.49927l-77.04224,0l0,-98.64609c27.3783,-8.89883 50.85654,-21.64243 70.36203,-38.26843c19.53531,-16.60068 35.19705,-36.55408 47.0051,-59.84698c11.82465,-23.27197 19.95343,-52.90089 24.39624,-88.85478l99.14584,0" id="path16"/>
  </g>
 </g>
</svg>
