<svg width="749" height="1000" xmlns="http://www.w3.org/2000/svg"><path d="M748.68 875.015c0 34.315 -12.307 63.755 -36.922 88.227 -24.615 24.519 -54.117 36.758 -88.576 36.758l-248.105 0c-103.368 0 -191.702 -36.519 -265.055 -109.647 -73.373 -73.119 -110.022 -161.129 -110.022 -264.166l0 -501.08c0 -35.311 12.219 -64.969 36.649 -89.031 24.43 -24.027 54.273 -36.075 89.496 -36.075 34.199 0 63.584 12.273 87.981 36.791 24.471 24.492 36.724 53.878 36.724 88.228l0 181.436l353.233 0c32.069 0 59.545 11.366 82.466 34.116 22.893 22.71 34.315 49.967 34.315 81.797 0 31.769 -11.421 59.073 -34.233 81.802 -22.82 22.698 -50.239 34.083 -82.173 34.083l-353.608 0l0 87.817c0 34.438 12.021 63.687 36.184 87.817 24.136 24.063 53.441 36.109 87.918 36.109l248.182 0c34.438 0 64.008 12.287 88.623 36.793 24.615 24.518 36.922 53.925 36.922 88.226"/></svg>