<svg xmlns="http://www.w3.org/2000/svg" width="1231" height="1000"><path d="M1231.052 118.453q-51.422 76.487 -126.173 130.403 .738 14.46 .738 32.687 0 101.273 -29.53 202.791 -29.53 101.519 -90.215 194.343 -60.685 92.824 -144.574 164.468 -83.889 71.644 -201.677 114.25 -117.788 42.606 -252.474 42.606 -210.2 0 -387.147 -113.493 31.406 3.495 60.242 3.495 175.605 0 313.687 -108.177 -81.877 -1.501 -146.654 -50.409 -64.777 -48.907 -89.156 -124.988 24.097 4.59 47.566 4.59 33.782 0 66.482 -8.812 -87.378 -17.5 -144.975 -87.04 -57.595 -69.539 -57.595 -160.523l0 -3.126q53.633 29.696 114.416 31.592 -51.762 -34.508 -82.079 -89.999 -30.319 -55.491 -30.319 -120.102 0 -68.143 34.151 -126.908 95.022 116.607 230.278 186.392 135.258 69.786 290.212 77.514 -6.609 -27.543 -6.621 -57.485 0 -104.546 73.994 -178.534 73.995 -73.988 178.541 -73.988 109.456 0 184.392 79.711 85.618 -16.959 160.333 -61.349 -28.785 90.59 -110.933 139.768 75.502 -8.972 145.088 -39.677z"/></svg>