<svg width="1450.1597" height="999.99994" xmlns="http://www.w3.org/2000/svg">
 <metadata id="metadata3035">image/svg+xmlimage/svg+xmlimage/svg+xml</metadata>
 <title>Layer 1</title>
 <g>
  <title>Layer 1</title>
  <path id="path32" d="m1450.15967,461.23688c-51.03406,8.71957 -125.05078,-0.34482 -164.26953,-16.65973c81.49463,-6.7504 136.6731,-43.79199 157.93506,-94.07559c-29.37231,18.07953 -120.60339,37.7771 -170.92139,19.00903c-2.50623,-11.83319 -5.23291,-23.08643 -8.01453,-33.28497c-38.30994,-141.02669 -169.73706,-254.66618 -307.34656,-240.93279c11.09912,-4.50299 22.34918,-8.68795 33.72382,-12.4968c15.065,-5.42706 104.01019,-19.93991 90.01923,-51.29015c-11.84277,-27.65973 -120.49316,20.79644 -140.92877,27.16531c27.00366,-10.12421 71.6756,-27.58395 76.42706,-58.67126c-41.35376,5.67078 -81.96289,25.2554 -113.33246,53.7221c11.36029,-12.1939 19.93994,-27.05108 21.75763,-43.08145c-110.35797,70.59662 -174.83215,212.78265 -226.96783,350.82374c-40.94073,-39.7627 -77.32275,-71.0538 -109.849,-88.48181c-91.34024,-48.96715 -200.61087,-100.14987 -372.04114,-163.87628c-5.27469,56.7764 28.03706,132.33321 123.96341,182.49826c-20.76614,-2.80225 -58.77313,3.48538 -89.12364,10.70526c12.36598,65.11462 52.79665,118.70721 162.35594,144.59186c-50.05685,3.29669 -75.95889,14.76489 -99.39655,39.27808c22.80417,45.27094 78.50589,98.50281 178.52267,87.55658c-111.32196,48.04156 -45.4024,136.98071 45.19531,123.69897c-154.43842,159.76154 -398.0137,147.91602 -537.86841,14.4054c365.11499,498.05682 1158.88281,294.50928 1277.11768,-185.20422c88.71045,0.72052 140.73608,-30.70425 173.04199,-65.39944" fill-rule="nonzero" fill="#100f0d"/>
 </g>
</svg>
