<svg width="1497.3610999999999" height="2000"
 viewBox="0 0 1497.3610999999999 2000"
 xmlns="http://www.w3.org/2000/svg">
 <metadata id="metadata3035">image/svg+xml</metadata>
 <g>
  <title>Layer 1</title>
  <path fill="#100f0d" fill-rule="nonzero" d="m1497.361084,1750.030518c0,68.629883 -24.614746,127.509033 -73.844238,176.453369c-49.229614,49.038086 -108.234619,73.516113 -177.151001,73.516113l-496.210388,0c-206.735718,0 -383.404449,-73.038452 -530.111298,-219.294678c-146.745964,-146.238159 -220.044159,-322.256836 -220.044159,-528.331909l0,-1002.160889c0,-70.622009 24.437397,-129.937927 73.298195,-178.06311c48.860535,-48.055359 108.547234,-72.149353 178.992165,-72.149353c68.396927,0 127.168259,24.544739 175.961105,73.582275c48.942993,48.984924 73.449463,107.755676 73.449463,176.455383l0,362.871582l706.465332,0c64.138794,0 119.0896,22.731079 164.932739,68.231689c45.786865,45.420166 68.629761,99.934082 68.629761,163.594116c0,63.537781 -22.842896,118.14624 -68.465698,163.604675c-45.640137,45.395813 -100.479248,68.1651 -164.345703,68.1651l-707.216461,0l0,175.634277c0,68.874756 24.041473,127.372803 72.369415,175.634277c48.271912,48.125122 106.881958,72.219238 175.836914,72.219238l496.364014,0c68.874756,0 128.015991,24.572998 177.245605,73.585938c49.229614,49.037109 73.844238,107.849854 73.844238,176.451904" id="path16"/>
 </g>
</svg>
