<svg width="1230" height="1000" xmlns="http://www.w3.org/2000/svg">
 <metadata id="metadata12">image/svg+xml</metadata>
 <g>
  <title>Layer 1</title>
  <g id="g4">
   <path id="path6" d="m1229.82117,119.33358q-51.37012,76.41018 -126.04675,130.27232q0.73755,14.44601 0.73755,32.65414q0,101.17139 -29.50061,202.58859q-29.50061,101.41718 -90.12469,194.14838q-60.62408,92.73114 -144.42938,164.30347q-83.80542,71.57214 -201.47589,114.13574q-117.67059,42.56378 -252.22144,42.56378q-209.98981,0 -386.75993,-113.37952q31.37492,3.49152 60.18177,3.49152q175.42977,0 313.37391,-108.06879q-81.79523,-1.49994 -146.50725,-50.35822q-64.71204,-48.85828 -89.06741,-124.86279q24.07262,4.58588 47.5182,4.58588q33.74835,0 66.41603,-8.80286q-87.29085,-17.48279 -144.83002,-86.95276q-57.53795,-69.47 -57.53795,-160.36313v-3.12283q53.5795,29.66663 114.30135,31.55997q-51.70988,-34.47372 -81.99709,-89.90958q-30.28833,-55.43579 -30.28833,-119.98184q0,-68.07463 34.1172,-126.7808q94.92683,116.49026 230.04816,186.20615q135.12256,69.71591 289.92242,77.43683q-6.60217,-27.51511 -6.61444,-57.42752q0,-104.44167 73.92053,-178.35612q73.92059,-73.91444 178.3623,-73.91444q109.34711,0 184.20831,79.63133q85.53271,-16.94176 160.17249,-61.28798q-28.75671,90.49969 -110.82239,139.62848q75.42664,-8.96265 144.94336,-39.63741l0,0z"/>
  </g>
 </g>
</svg>
