<svg xmlns="http://www.w3.org/2000/svg" width="1000" height="1000"><path d="M193 0c-107 0-193 86-193 193v614c0 107 86 193 193 193h614c107 0 193-86 193-193v-614c0-107-86-193-193-193h-614zm517 197c3 0 6 0 9 0 74 2 108 50 104 143-3 69-52 165-146 285-97 126-180 189-247 189-42 0-77-38-106-115l-58-212c-21-77-44-115-69-115-5 0-24 11-56 34l-34-43c35-31 70-62 104-93 47-41 82-62 106-64 56-5 90 33 103 114 14 88 24 142 29 164 16 73 34 109 53 109 15 0 37-24 67-71s46-83 48-107c4-41-12-61-48-61-17 0-35 4-53 11 34-111 98-166 193-167z"/></svg>