<svg width="1158.7645" height="1000"
 xmlns="http://www.w3.org/2000/svg">
 <metadata id="metadata7">image/svg+xml</metadata>
 <g>
  <title>Layer 1</title>
  <g id="layer1">
   <g fill="#000000" id="g2987">
    <path fill="#000000" d="m1158.19531,231.33223q-7.79053,168.7953 -236.31335,462.23943q-236.31342,306.42834 -399.91498,306.42834q-101.27719,0 -171.39215,-186.97321l-93.4866,-342.7843q-51.93703,-186.97324 -111.6646,-186.97324q-12.98425,0 -90.88977,54.53384l-54.53386,-70.11496q85.69607,-75.30867 168.79529,-150.61729q114.26144,-98.68032 171.39215,-103.87402q135.03619,-12.98425 166.19843,184.37636q33.75903,212.94174 46.74329,264.87875q38.95276,176.58585 85.69611,176.58585q36.3559,0 109.06769,-114.26141q72.71185,-114.26144 77.90552,-173.98901q10.38745,-98.68031 -77.90552,-98.68031q-41.54962,0 -85.69604,18.17796q85.69604,-277.86299 327.20319,-270.07243q179.18268,5.1937 168.79523,231.11966z" id="path2989"/>
   </g>
  </g>
 </g>
</svg>
