<svg xmlns="http://www.w3.org/2000/svg" width="1000" height="1000"><title>visa</title><path d="M40 186c-22.087 0 -40 17.908 -40 40v548c0 22.091 17.922 40 40 40h920c22.087 0 40 -17.908 40 -40v-548c0 -22.091 -17.922 -40 -40 -40h-920zm557.25 187.156c24.338 0 43.843 5.376 56.281 10.375l-8.5 53.469 -5.625 -2.844c-11.587 -4.999 -26.471 -9.81 -47 -9.469 -24.576 0 -35.938 10.963 -35.938 21.219 -.142 11.558 13.276 19.18 35.219 30.594 36.216 17.609 52.955 38.962 52.719 67.031 -.487 51.217 -43.323 84.313 -109.313 84.313 -28.153 -.309 -55.276 -6.269 -69.938 -13.156l8.813 -55.25 8.094 3.938c20.617 9.212 33.967 12.938 59.094 12.938 18.043 0 37.408 -7.555 37.563 -24.094 .118 -10.799 -8.095 -18.5 -32.531 -30.594 -23.813 -11.804 -55.381 -31.577 -55.031 -67.031 .373 -47.961 44.063 -81.438 106.094 -81.438zm-508.813 7.844h101.344c13.647 .516 24.665 4.91 28.469 19.719l21.844 112.75c.003 .011 -.004 .051 0 .063l6.563 33.781 61.531 -166.313h66.563l-98.938 243.438 -66.5 .063 -52.938 -196.438c31.498 16.687 58.314 35.993 73.844 62.563 -4.004 -8.407 -9.28 -17.897 -16.031 -27.25 -7.862 -10.892 -24.84 -24.955 -31.938 -30.938 -24.73 -20.847 -58.315 -37.684 -94.594 -46.594l.781 -4.844zm312.781 .281h65.094l-40.719 243.063h-65.094l40.719 -243.063zm367.656 0h49.313l51.625 243.063h-59.188s-5.872 -27.923 -7.781 -36.438c-9.302 0 -74.367 -.094 -81.688 -.094 -2.477 6.58 -13.438 36.531 -13.438 36.531h-66.969l94.719 -222.875c6.706 -15.838 18.137 -20.188 33.406 -20.188zm4.844 65.375c-3.202 9.041 -8.781 23.641 -8.406 23 0 0 -20.037 53.439 -25.281 67.313l52.656 -.031c-2.538 -12.053 -14.688 -69.531 -14.688 -69.531l-4.281 -20.75z"/></svg>