<svg xmlns="http://www.w3.org/2000/svg" width="1000" height="1000"><title>visa</title><path d="M40 186c-22 0-40 18-40 40v548c0 22 18 40 40 40h920c22 0 40-18 40-40v-548c0-22-18-40-40-40h-920zm557 187c24 0 44 5 56 10l-9 53-6-3c-12-5-26-10-47-9-25 0-36 11-36 21 0 12 13 19 35 31 36 18 53 39 53 67 0 51-43 84-109 84-28 0-55-6-70-13l9-55 8 4c21 9 34 13 59 13 18 0 37-8 38-24 0-11-8-19-33-31-24-12-55-32-55-67 0-48 44-81 106-81zm-509 8h101c14 1 25 5 28 20l22 113 7 34 62-166h67l-99 243h-67l-53-196c31 17 58 36 74 63-4-8-9-18-16-27-8-11-25-25-32-31-25-21-58-38-95-47l1-5zm313 0h65l-41 243h-65l41-243zm368 0h49l52 243h-59s-6-28-8-36c-9 0-74 0-82 0-2 7-13 37-13 37h-67l95-223c7-16 18-20 33-20zm5 65c-3 9-9 24-8 23 0 0-20 53-25 67h53c-3-12-15-70-15-70l-4-21z"/></svg>