<svg xmlns="http://www.w3.org/2000/svg" width="1000" height="1000"><path d="M196 0c-108 0-196 88-196 196v608c0 108 88 196 196 196h608c108 0 196-88 196-196v-608c0-108-88-196-196-196h-608zm112 226h197c41 0 72 1 93 5 21 3 41 10 59 20 20 11 35 25 45 43s15 39 15 62c0 27-7 51-21 73-14 21-32 37-56 47v3c34 7 62 22 83 44s31 53 31 91c0 28-5 52-16 73s-25 38-42 52c-21 16-44 28-69 35s-57 11-96 11h-224v-558zm140 102v118h18c24 0 41 0 50-1 10-1 20-3 30-8 11-5 19-13 23-22s6-20 6-32c0-9-2-18-7-28-5-9-12-16-22-21-9-4-20-6-33-7-13 0-31-1-56-1h-10zm0 214v140h8c37 0 62 0 76-1s28-4 43-10c13-6 22-14 28-24 6-11 9-23 9-36 0-17-3-31-10-40-7-10-18-17-32-22-8-3-20-5-35-6-15 0-35-1-60-1h-26z"/></svg>