<svg xmlns="http://www.w3.org/2000/svg" width="1000" height="1000"><path d="M195.969 .063c-107.779 0 -195.969 88.19 -195.969 195.969l0 608.188c0 107.779 88.19 195.969 195.969 195.969l608.188 0c107.779 0 195.969 -88.19 195.969 -195.969l0 -608.188c0 -107.779 -88.19 -195.969 -195.969 -195.969l-608.188 0zm112.188 225.656l197.281 0c40.972 0 72.094 1.499 93.219 4.719 21.125 3.059 40.968 9.616 59.406 19.594 19.953 10.749 34.941 25.224 44.813 43.156 9.87 18.038 14.875 38.771 14.875 62.344 0 27.244 -6.798 51.461 -20.5 72.719 -13.57 21.258 -32.399 36.89 -56.344 47l0 2.906c34.454 7.317 62.087 22.036 82.813 44.438 20.757 22.428 31.125 52.618 31.125 90.531 0 27.75 -5.239 52.227 -15.75 73.219 -10.507 20.992 -24.577 38.29 -42.375 52.125 -20.992 16.496 -44.033 28.137 -69.281 35.188 -25.089 7.024 -56.959 10.531 -95.75 10.531l-223.531 0l0 -558.469zm139.531 102.375l0 118.188l17.656 0c23.945 0 40.864 -.246 50.469 -.75 9.605 -.504 19.601 -3.077 29.844 -7.813 11.121 -5.241 18.953 -12.518 23.156 -21.75 4.23 -9.339 6.406 -20.123 6.406 -32.281 0 -9.072 -2.308 -18.31 -6.938 -27.781 -4.603 -9.472 -11.754 -16.395 -21.625 -20.625 -9.206 -4.097 -20.091 -6.257 -32.781 -6.656 -12.664 -.4 -31.482 -.531 -56.438 -.531l-9.75 0zm0 213.844l0 139.813l7.563 0c36.503 0 61.715 -.275 75.656 -.781 13.941 -.504 28.303 -3.815 42.75 -10.094 12.824 -5.507 22.031 -13.577 27.938 -24.219 5.88 -10.616 8.813 -22.658 8.813 -36.094 0 -17.294 -3.418 -30.731 -10.469 -40.469 -7.024 -9.844 -17.532 -17.154 -31.5 -22.156 -8.461 -3.326 -20.248 -5.128 -35.094 -5.5 -14.846 -.372 -34.799 -.5 -59.781 -.5l-25.875 0z"/></svg>