<svg xmlns="http://www.w3.org/2000/svg" width="995" height="1000" version="1"><path d="M501.984 0c-195.884 -.341 -380.255 115.812 -464.869 299.669l237.919 .566l0 26.02c-73.261 -8.816 -66.81 29.228 -56.439 69.607l156.183 391.429 114.795 -269.092 -52.699 -126.108c-19.142 -33.777 -19.546 -71.25 -97.858 -67.721l1.1 -23.978 348.943 .849l0 26.869c-40.865 2.397 -90.057 -10.274 -63.981 73.409l141.13 370.72 77.149 -216.424c25.263 -90.724 1.487 -177.91 -28.534 -263.405 -16.697 -57.355 -8.91 -105.254 65.93 -124.255 -114.235 -116.605 -249.025 -167.929 -378.765 -168.155zm474.58 342.25l-226.229 589.689c62.476 -54.11 126.535 -73.806 204.922 -223.526 52.155 -124.532 46.786 -239.897 21.307 -366.164zm-963.395 9.553c-22.081 174.085 -20.061 225.073 34.599 367.233 71.25 136.154 126.502 164.84 204.922 218.246l-239.522 -585.479zm497.646 220.886l-167.652 404.502c117.681 33.589 222.978 29.385 319.372 -7.982l-151.72 -396.521z"/></svg>