<?xml version="1.0" encoding="UTF-8" standalone="no"?>
<!-- Created with Inkscape (http://www.inkscape.org/) -->

<svg
   xmlns:dc="http://purl.org/dc/elements/1.1/"
   xmlns:cc="http://creativecommons.org/ns#"
   xmlns:rdf="http://www.w3.org/1999/02/22-rdf-syntax-ns#"
   xmlns:svg="http://www.w3.org/2000/svg"
   xmlns="http://www.w3.org/2000/svg"
   xmlns:sodipodi="http://sodipodi.sourceforge.net/DTD/sodipodi-0.dtd"
   xmlns:inkscape="http://www.inkscape.org/namespaces/inkscape"
   width="999.85382"
   height="999.72083"
   id="svg2"
   sodipodi:version="0.32"
   inkscape:version="0.49+devel r"
   sodipodi:docname="Wordpress.svg"
   version="1.0"
   inkscape:output_extension="org.inkscape.output.svg.inkscape">
  <defs
     id="defs4">
    <inkscape:perspective
       sodipodi:type="inkscape:persp3d"
       inkscape:vp_x="0 : 128 : 1"
       inkscape:vp_y="0 : 1000 : 0"
       inkscape:vp_z="256 : 128 : 1"
       inkscape:persp3d-origin="128 : 85.333333 : 1"
       id="perspective4864" />
    <inkscape:perspective
       id="perspective5039"
       inkscape:persp3d-origin="0.5 : 0.33333333 : 1"
       inkscape:vp_z="1 : 0.5 : 1"
       inkscape:vp_y="0 : 1000 : 0"
       inkscape:vp_x="0 : 0.5 : 1"
       sodipodi:type="inkscape:persp3d" />
  </defs>
  <sodipodi:namedview
     id="base"
     pagecolor="#ffffff"
     bordercolor="#666666"
     borderopacity="1.0"
     inkscape:pageopacity="0.0"
     inkscape:pageshadow="2"
     inkscape:zoom="2"
     inkscape:cx="771.65822"
     inkscape:cy="902.71382"
     inkscape:document-units="px"
     inkscape:current-layer="layer1"
     inkscape:window-width="1366"
     inkscape:window-height="768"
     inkscape:window-x="0"
     inkscape:window-y="0"
     showgrid="false"
     inkscape:window-maximized="0"
     fit-margin-top="0"
     fit-margin-left="0"
     fit-margin-right="0"
     fit-margin-bottom="0" />
  <metadata
     id="metadata7">
    <rdf:RDF>
      <cc:Work
         rdf:about="">
        <dc:format>image/svg+xml</dc:format>
        <dc:type
           rdf:resource="http://purl.org/dc/dcmitype/StillImage" />
        <dc:title></dc:title>
        <dc:creator>
          <cc:Agent>
            <dc:title>User:ZyMOS</dc:title>
          </cc:Agent>
        </dc:creator>
        <dc:subject>
          <rdf:Bag />
        </dc:subject>
        <cc:license
           rdf:resource="http://creativecommons.org/licenses/publicdomain/" />
        <dc:description />
        <dc:contributor>
          <cc:Agent>
            <dc:title />
          </cc:Agent>
        </dc:contributor>
        <dc:publisher>
          <cc:Agent>
            <dc:title>Open Icon Library</dc:title>
          </cc:Agent>
        </dc:publisher>
      </cc:Work>
      <cc:License
         rdf:about="http://creativecommons.org/licenses/publicdomain/">
        <cc:permits
           rdf:resource="http://creativecommons.org/ns#Reproduction" />
        <cc:permits
           rdf:resource="http://creativecommons.org/ns#Distribution" />
        <cc:permits
           rdf:resource="http://creativecommons.org/ns#DerivativeWorks" />
      </cc:License>
    </rdf:RDF>
  </metadata>
  <g
     inkscape:label="Layer 1"
     inkscape:groupmode="layer"
     id="layer1"
     transform="translate(-373.66392,425.31993)">
    <g
       id="g134"
       transform="matrix(4.255829,0,0,4.255829,-1260.9734,-1824.8227)">
      <path
         d="m 430.15924,328.88468 c -25.30575,0 -46.01385,20.70813 -46.01385,46.01384 l 0,142.79536 c 0,25.30575 20.7081,46.01382 46.01385,46.01382 l 142.79535,0 c 25.30579,0 46.01381,-20.70807 46.01381,-46.01382 l 0,-142.79536 c 0,-25.30571 -20.70802,-46.01384 -46.01381,-46.01384 l -142.79535,0 z"
         id="path3140"
         inkscape:connector-curvature="0"
         style="fill:#000000;stroke:#000000;stroke-width:0" />
      <path
         sodipodi:nodetypes="cccc"
         id="path5137"
         d="m 410.75767,423.32619 45.45686,111.11678 c -14.88306,-10.13588 -25.36865,-15.57595 -38.89087,-41.41625 -10.37377,-26.97995 -10.75671,-36.66124 -6.56599,-69.70053 z"
         style="fill:#ffffff;fill-opacity:1;stroke:none"
         inkscape:connector-curvature="0" />
      <path
         sodipodi:nodetypes="cccc"
         id="path5139"
         d="m 505.20693,465.24752 28.78935,75.25637 c -18.29439,7.09176 -38.27482,7.88995 -60.60915,1.51522 l 31.8198,-76.77159 z"
         style="fill:#ffffff;fill-opacity:1;stroke:none"
         inkscape:connector-curvature="0" />
      <path
         sodipodi:nodetypes="cccc"
         id="path5143"
         d="M 593.59528,421.5151 550.6638,533.43282 c 11.85713,-10.2694 24.0139,-14.0114 38.89087,-42.42641 9.89844,-23.63461 8.87625,-45.5274 4.04061,-69.49131 z"
         style="fill:#ffffff;fill-opacity:1;stroke:none"
         inkscape:connector-curvature="0" />
      <path
         sodipodi:nodetypes="cccc"
         id="path5145"
         d="M 575.41253,388.47593 C 520.99921,332.93321 441.99836,355.42892 415.30336,413.43388 l 148.13528,0.35714 c -3.82801,-11.64778 -2.97828,-21.51908 11.97389,-25.31509 z"
         style="fill:#ffffff;fill-opacity:1;stroke:none"
         inkscape:connector-curvature="0" />
      <path
         sodipodi:nodetypes="ccccccccc"
         id="path5657"
         d="m 460.45807,409.54885 0,8.92858 c -13.90391,-1.67317 -12.68248,5.55092 -10.71429,13.21428 l 29.64286,74.28571 21.78571,-51.07142 -10,-23.92858 c -3.63288,-6.41046 -3.70885,-13.52692 -18.57143,-12.85714 l 0.35715,-7.85714 -12.5,-0.71429 z"
         style="fill:#ffffff;fill-opacity:1;stroke:none"
         inkscape:connector-curvature="0" />
      <path
         sodipodi:nodetypes="ccccccc"
         id="path5659"
         d="m 539.0295,407.406 0,11.42857 c -7.7555,0.45506 -17.09187,-1.95339 -12.14286,13.92857 l 26.78571,70.35715 14.64286,-41.07144 c 5.07705,-18.23313 -0.2765,-35.71399 -6.42857,-52.85714 L 539.0295,407.406 z"
         style="fill:#ffffff;fill-opacity:1;stroke:none"
         inkscape:connector-curvature="0" />
    </g>
  </g>
</svg>
