<svg width="1000" height="1000" xmlns="http://www.w3.org/2000/svg">
 <metadata id="metadata3061">image/svg+xml</metadata>
 <g>
  <title>Layer 1</title>
  <g id="layer1">
   <g fill="#ffffff" id="g20">
    <path fill="#000000" fill-rule="nonzero" d="m637.8006,543.15271l-53.16229,0c-83.49716,0 -164.46924,-50.06146 -164.46924,-175.22559c0,-130.39383 75.90497,-183.57501 153.08093,-183.57501l64.5506,0l0,358.8006zm83.49713,-425.54688l-144.25165,0c-141.68414,0 -261.88821,88.65384 -261.88821,260.75281c0,103.25656 58.22095,179.38983 161.9357,216.93768l-193.54153,287.86914c-6.3212,9.39392 0,16.67792 10.09186,16.67792l89.82678,0c7.59219,0 12.6593,-2.08215 15.18439,-7.284l175.85745,-282.6673l63.28809,0l0,282.6673c0,3.11975 3.79608,7.284 8.8208,7.284l78.47241,0c7.59222,0 10.12573,-3.12671 10.12573,-8.32153l0,-763.47754c0,-7.31879 -5.06708,-10.43848 -13.92181,-10.43848m-581.63853,-115.65322l720.6815,0c76.28241,0 137.69391,61.41149 137.69391,137.69384l0,720.68149c0,76.28235 -61.4115,137.69385 -137.69391,137.69385l-720.6815,0c-76.28238,0 -137.6939,-61.4115 -137.6939,-137.69385l0,-720.68149c0,-76.2824 61.41153,-137.69384 137.6939,-137.69384z" id="path22"/>
   </g>
  </g>
 </g>
</svg>
