<svg xmlns="http://www.w3.org/2000/svg" width="1000" height="1000"><path d="M450 140c-15 0-31 4-44 13-29 20-45 82-65 126-21 48-40 97-61 133-57-64-95-206-163-258-22-17-70-16-92 0-59 44 0 122 24 163 52 90 109 186 153 269-28 75-172 287 20 275 47-30 66-93 92-150 52-116 96-216 150-336 22-50 76-124 65-180-6-31-42-54-79-54zm466 46c-28 0-56 13-68 39-20 23-42 44-65 65-11 14-24 26-37 37-16 17-29 37-51 48v-133c0-72-135-72-136 0v377c6 27 18 48 48 51h41c28-5 44-22 48-51v-82c0-28-5-76 14-48 28 27 67 56 102 88 34 31 66 81 102 88 73 16 105-54 78-105-29-54-111-88-146-136 24-55 154-88 143-184-4-38-38-56-71-56z"/></svg>